<ttFont>
    <TTGlyph name="A" xMin="-100" yMin="-25" xMax="917" yMax="710">
      <contour>
        <pt x="133" y="274" on="1"/>
        <pt x="133" y="249" on="0"/>
        <pt x="224" y="226" on="1"/>
        <pt x="276" y="214" on="0"/>
        <pt x="350" y="206" on="1"/>
        <pt x="257" y="289" on="0"/>
        <pt x="166" y="289" on="1"/>
        <pt x="133" y="289" on="0"/>
      </contour>
      <contour>
        <pt x="529" y="7" on="1"/>
        <pt x="550" y="7" on="0"/>
        <pt x="633" y="172" on="1"/>
        <pt x="521" y="170" on="0"/>
        <pt x="466" y="170" on="0"/>
        <pt x="416" y="172" on="1"/>
        <pt x="475" y="101" on="0"/>
        <pt x="512" y="21" on="1"/>
        <pt x="518" y="7" on="0"/>
      </contour>
      <contour>
        <pt x="842" y="684" on="1"/>
        <pt x="809" y="684" on="0"/>
        <pt x="699" y="543" on="0"/>
        <pt x="518" y="285" on="0"/>
        <pt x="440" y="200" on="1"/>
        <pt x="510" y="198" on="0"/>
        <pt x="615" y="198" on="0"/>
        <pt x="647" y="200" on="1"/>
        <pt x="718" y="340" on="0"/>
        <pt x="853" y="652" on="0"/>
        <pt x="853" y="675" on="1"/>
        <pt x="853" y="684" on="0"/>
      </contour>
      <contour>
        <pt x="701" y="202" on="1"/>
        <pt x="909" y="217" on="1"/>
        <pt x="917" y="217" on="0"/>
        <pt x="917" y="201" on="0"/>
        <pt x="890" y="183" on="0"/>
        <pt x="812" y="177" on="0"/>
        <pt x="686" y="174" on="1"/>
        <pt x="584" y="-25" on="0"/>
        <pt x="542" y="-25" on="1"/>
        <pt x="514" y="-25" on="0"/>
        <pt x="502" y="0" on="1"/>
        <pt x="458" y="89" on="0"/>
        <pt x="399" y="156" on="1"/>
        <pt x="370" y="128" on="1"/>
        <pt x="222" y="-10" on="0"/>
        <pt x="25" y="-10" on="1"/>
        <pt x="-25" y="-10" on="0"/>
        <pt x="-100" y="5" on="0"/>
        <pt x="-100" y="18" on="1"/>
        <pt x="-100" y="27" on="0"/>
        <pt x="-89" y="27" on="1"/>
        <pt x="-82" y="27" on="0"/>
        <pt x="-72" y="23" on="1"/>
        <pt x="-42" y="11" on="0"/>
        <pt x="41" y="11" on="1"/>
        <pt x="190" y="11" on="0"/>
        <pt x="323" y="128" on="1"/>
        <pt x="371" y="173" on="0"/>
        <pt x="372" y="174" on="1"/>
        <pt x="278" y="181" on="0"/>
        <pt x="214" y="199" on="1"/>
        <pt x="100" y="231" on="0"/>
        <pt x="100" y="275" on="1"/>
        <pt x="100" y="290" on="0"/>
        <pt x="133" y="310" on="0"/>
        <pt x="160" y="310" on="1"/>
        <pt x="279" y="310" on="0"/>
        <pt x="386" y="203" on="1"/>
        <pt x="395" y="203" on="0"/>
        <pt x="399" y="202" on="1"/>
        <pt x="488" y="298" on="0"/>
        <pt x="616" y="474" on="1"/>
        <pt x="661" y="535" on="0"/>
        <pt x="706" y="592" on="1"/>
        <pt x="800" y="710" on="0"/>
        <pt x="860" y="710" on="1"/>
        <pt x="899" y="710" on="0"/>
        <pt x="899" y="676" on="1"/>
        <pt x="899" y="653" on="0"/>
        <pt x="770" y="340" on="0"/>
      </contour>
    </TTGlyph>
    <TTGlyph name="AE" xMin="-100" yMin="-30" xMax="1430" yMax="735">
      <contour>
        <pt x="894" y="655" on="1"/>
        <pt x="880" y="613" on="0"/>
        <pt x="872" y="593" on="1"/>
        <pt x="934" y="624" on="0"/>
        <pt x="1012" y="653" on="1"/>
        <pt x="933" y="653" on="0"/>
      </contour>
      <contour>
        <pt x="133" y="274" on="1"/>
        <pt x="133" y="249" on="0"/>
        <pt x="224" y="226" on="1"/>
        <pt x="276" y="214" on="0"/>
        <pt x="350" y="206" on="1"/>
        <pt x="257" y="289" on="0"/>
        <pt x="166" y="289" on="1"/>
        <pt x="133" y="289" on="0"/>
      </contour>
      <contour>
        <pt x="529" y="7" on="1"/>
        <pt x="549" y="7" on="0"/>
        <pt x="632" y="172" on="1"/>
        <pt x="520" y="170" on="0"/>
        <pt x="466" y="170" on="0"/>
        <pt x="416" y="172" on="1"/>
        <pt x="475" y="101" on="0"/>
        <pt x="512" y="21" on="1"/>
        <pt x="518" y="7" on="0"/>
      </contour>
      <contour>
        <pt x="701" y="202" on="1"/>
        <pt x="823" y="210" on="1"/>
        <pt x="881" y="244" on="0"/>
        <pt x="1069" y="333" on="0"/>
        <pt x="1174" y="388" on="0"/>
        <pt x="1174" y="404" on="1"/>
        <pt x="1174" y="412" on="0"/>
        <pt x="1156" y="412" on="1"/>
        <pt x="924" y="381" on="0"/>
        <pt x="821" y="381" on="1"/>
        <pt x="796" y="381" on="0"/>
        <pt x="785" y="382" on="1"/>
        <pt x="746" y="292" on="0"/>
      </contour>
      <contour>
        <pt x="842" y="684" on="1"/>
        <pt x="809" y="684" on="0"/>
        <pt x="699" y="543" on="0"/>
        <pt x="518" y="285" on="0"/>
        <pt x="440" y="200" on="1"/>
        <pt x="510" y="198" on="0"/>
        <pt x="614" y="198" on="0"/>
        <pt x="646" y="200" on="1"/>
        <pt x="683" y="272" on="0"/>
        <pt x="736" y="388" on="1"/>
        <pt x="683" y="401" on="0"/>
        <pt x="683" y="432" on="1"/>
        <pt x="683" y="483" on="0"/>
        <pt x="812" y="560" on="1"/>
        <pt x="853" y="662" on="0"/>
        <pt x="853" y="684" on="0"/>
      </contour>
      <contour>
        <pt x="751" y="648" on="0"/>
        <pt x="829" y="710" on="0"/>
        <pt x="896" y="710" on="0"/>
        <pt x="899" y="681" on="1"/>
        <pt x="964" y="678" on="0"/>
        <pt x="1045" y="678" on="0"/>
        <pt x="1089" y="680" on="1"/>
        <pt x="1264" y="735" on="0"/>
        <pt x="1386" y="735" on="1"/>
        <pt x="1430" y="735" on="0"/>
        <pt x="1430" y="718" on="1"/>
        <pt x="1430" y="657" on="0"/>
        <pt x="1069" y="653" on="1"/>
        <pt x="942" y="609" on="0"/>
        <pt x="757" y="494" on="0"/>
        <pt x="757" y="421" on="0"/>
        <pt x="852" y="421" on="1"/>
        <pt x="910" y="421" on="0"/>
        <pt x="1142" y="454" on="0"/>
        <pt x="1176" y="454" on="1"/>
        <pt x="1229" y="454" on="0"/>
        <pt x="1229" y="424" on="1"/>
        <pt x="1229" y="376" on="0"/>
        <pt x="1050" y="297" on="1"/>
        <pt x="976" y="264" on="0"/>
        <pt x="826" y="192" on="0"/>
        <pt x="722" y="101" on="0"/>
        <pt x="722" y="55" on="1"/>
        <pt x="722" y="17" on="0"/>
        <pt x="807" y="17" on="1"/>
        <pt x="854" y="17" on="0"/>
        <pt x="1045" y="46" on="0"/>
        <pt x="1114" y="46" on="1"/>
        <pt x="1237" y="46" on="0"/>
        <pt x="1237" y="-22" on="1"/>
        <pt x="1237" y="-30" on="0"/>
        <pt x="1228" y="-30" on="1"/>
        <pt x="1223" y="-30" on="0"/>
        <pt x="1206" y="-21" on="1"/>
        <pt x="1153" y="6" on="0"/>
        <pt x="1090" y="6" on="1"/>
        <pt x="1057" y="4" on="0"/>
        <pt x="817" y="-23" on="0"/>
        <pt x="785" y="-23" on="1"/>
        <pt x="665" y="-23" on="0"/>
        <pt x="665" y="104" on="0"/>
        <pt x="770" y="177" on="1"/>
        <pt x="692" y="174" on="0"/>
        <pt x="686" y="174" on="1"/>
        <pt x="584" y="-25" on="0"/>
        <pt x="542" y="-25" on="1"/>
        <pt x="514" y="-25" on="0"/>
        <pt x="502" y="0" on="1"/>
        <pt x="458" y="89" on="0"/>
        <pt x="399" y="156" on="1"/>
        <pt x="370" y="128" on="1"/>
        <pt x="222" y="-10" on="0"/>
        <pt x="25" y="-10" on="1"/>
        <pt x="-25" y="-10" on="0"/>
        <pt x="-100" y="5" on="0"/>
        <pt x="-100" y="18" on="1"/>
        <pt x="-100" y="27" on="0"/>
        <pt x="-89" y="27" on="1"/>
        <pt x="-82" y="27" on="0"/>
        <pt x="-72" y="23" on="1"/>
        <pt x="-42" y="11" on="0"/>
        <pt x="41" y="11" on="1"/>
        <pt x="190" y="11" on="0"/>
        <pt x="323" y="128" on="1"/>
        <pt x="371" y="173" on="0"/>
        <pt x="372" y="174" on="1"/>
        <pt x="278" y="181" on="0"/>
        <pt x="214" y="199" on="1"/>
        <pt x="100" y="231" on="0"/>
        <pt x="100" y="275" on="1"/>
        <pt x="100" y="290" on="0"/>
        <pt x="133" y="310" on="0"/>
        <pt x="160" y="310" on="1"/>
        <pt x="279" y="310" on="0"/>
        <pt x="386" y="203" on="1"/>
        <pt x="395" y="203" on="0"/>
        <pt x="399" y="202" on="1"/>
        <pt x="488" y="298" on="0"/>
        <pt x="616" y="474" on="1"/>
        <pt x="661" y="535" on="0"/>
      </contour>
    </TTGlyph>
    <TTGlyph name="Aacute" xMin="-100" yMin="-25" xMax="962" yMax="827">
      <contour>
        <pt x="962" y="814" on="1"/>
        <pt x="962" y="797" on="0"/>
        <pt x="883" y="755" on="0"/>
        <pt x="841" y="740" on="1"/>
        <pt x="835" y="740" on="0"/>
        <pt x="835" y="755" on="0"/>
        <pt x="870" y="767" on="0"/>
        <pt x="921" y="805" on="0"/>
        <pt x="939" y="827" on="0"/>
        <pt x="962" y="827" on="0"/>
      </contour>
      <contour>
        <pt x="133" y="274" on="1"/>
        <pt x="133" y="249" on="0"/>
        <pt x="224" y="226" on="1"/>
        <pt x="276" y="214" on="0"/>
        <pt x="350" y="206" on="1"/>
        <pt x="257" y="289" on="0"/>
        <pt x="166" y="289" on="1"/>
        <pt x="133" y="289" on="0"/>
      </contour>
      <contour>
        <pt x="529" y="7" on="1"/>
        <pt x="550" y="7" on="0"/>
        <pt x="633" y="172" on="1"/>
        <pt x="521" y="170" on="0"/>
        <pt x="466" y="170" on="0"/>
        <pt x="416" y="172" on="1"/>
        <pt x="475" y="101" on="0"/>
        <pt x="512" y="21" on="1"/>
        <pt x="518" y="7" on="0"/>
      </contour>
      <contour>
        <pt x="842" y="684" on="1"/>
        <pt x="809" y="684" on="0"/>
        <pt x="699" y="543" on="0"/>
        <pt x="518" y="285" on="0"/>
        <pt x="440" y="200" on="1"/>
        <pt x="510" y="198" on="0"/>
        <pt x="615" y="198" on="0"/>
        <pt x="647" y="200" on="1"/>
        <pt x="718" y="340" on="0"/>
        <pt x="853" y="652" on="0"/>
        <pt x="853" y="675" on="1"/>
        <pt x="853" y="684" on="0"/>
      </contour>
      <contour>
        <pt x="701" y="202" on="1"/>
        <pt x="909" y="217" on="1"/>
        <pt x="917" y="217" on="0"/>
        <pt x="917" y="201" on="0"/>
        <pt x="890" y="183" on="0"/>
        <pt x="812" y="177" on="0"/>
        <pt x="686" y="174" on="1"/>
        <pt x="584" y="-25" on="0"/>
        <pt x="542" y="-25" on="1"/>
        <pt x="514" y="-25" on="0"/>
        <pt x="502" y="0" on="1"/>
        <pt x="458" y="89" on="0"/>
        <pt x="399" y="156" on="1"/>
        <pt x="370" y="128" on="1"/>
        <pt x="222" y="-10" on="0"/>
        <pt x="25" y="-10" on="1"/>
        <pt x="-25" y="-10" on="0"/>
        <pt x="-100" y="5" on="0"/>
        <pt x="-100" y="18" on="1"/>
        <pt x="-100" y="27" on="0"/>
        <pt x="-89" y="27" on="1"/>
        <pt x="-82" y="27" on="0"/>
        <pt x="-72" y="23" on="1"/>
        <pt x="-42" y="11" on="0"/>
        <pt x="41" y="11" on="1"/>
        <pt x="190" y="11" on="0"/>
        <pt x="323" y="128" on="1"/>
        <pt x="371" y="173" on="0"/>
        <pt x="372" y="174" on="1"/>
        <pt x="278" y="181" on="0"/>
        <pt x="214" y="199" on="1"/>
        <pt x="100" y="231" on="0"/>
        <pt x="100" y="275" on="1"/>
        <pt x="100" y="290" on="0"/>
        <pt x="133" y="310" on="0"/>
        <pt x="160" y="310" on="1"/>
        <pt x="279" y="310" on="0"/>
        <pt x="386" y="203" on="1"/>
        <pt x="395" y="203" on="0"/>
        <pt x="399" y="202" on="1"/>
        <pt x="488" y="298" on="0"/>
        <pt x="616" y="474" on="1"/>
        <pt x="661" y="535" on="0"/>
        <pt x="706" y="592" on="1"/>
        <pt x="800" y="710" on="0"/>
        <pt x="860" y="710" on="1"/>
        <pt x="899" y="710" on="0"/>
        <pt x="899" y="676" on="1"/>
        <pt x="899" y="653" on="0"/>
        <pt x="770" y="340" on="0"/>
      </contour>
    </TTGlyph>
    <TTGlyph name="Acircumflex" xMin="-100" yMin="-25" xMax="950" yMax="820">
      <contour>
        <pt x="821" y="760" on="0"/>
        <pt x="879" y="800" on="0"/>
        <pt x="894" y="820" on="0"/>
        <pt x="915" y="820" on="0"/>
        <pt x="924" y="811" on="1"/>
        <pt x="927" y="807" on="0"/>
        <pt x="934" y="760" on="0"/>
        <pt x="948" y="739" on="1"/>
        <pt x="950" y="735" on="0"/>
        <pt x="950" y="734" on="1"/>
        <pt x="950" y="729" on="0"/>
        <pt x="938" y="729" on="0"/>
        <pt x="920" y="746" on="0"/>
        <pt x="902" y="784" on="0"/>
        <pt x="902" y="785" on="1"/>
        <pt x="878" y="763" on="0"/>
        <pt x="791" y="733" on="1"/>
        <pt x="785" y="733" on="0"/>
        <pt x="785" y="748" on="0"/>
      </contour>
      <contour>
        <pt x="133" y="274" on="1"/>
        <pt x="133" y="249" on="0"/>
        <pt x="224" y="226" on="1"/>
        <pt x="276" y="214" on="0"/>
        <pt x="350" y="206" on="1"/>
        <pt x="257" y="289" on="0"/>
        <pt x="166" y="289" on="1"/>
        <pt x="133" y="289" on="0"/>
      </contour>
      <contour>
        <pt x="529" y="7" on="1"/>
        <pt x="550" y="7" on="0"/>
        <pt x="633" y="172" on="1"/>
        <pt x="521" y="170" on="0"/>
        <pt x="466" y="170" on="0"/>
        <pt x="416" y="172" on="1"/>
        <pt x="475" y="101" on="0"/>
        <pt x="512" y="21" on="1"/>
        <pt x="518" y="7" on="0"/>
      </contour>
      <contour>
        <pt x="842" y="684" on="1"/>
        <pt x="809" y="684" on="0"/>
        <pt x="699" y="543" on="0"/>
        <pt x="518" y="285" on="0"/>
        <pt x="440" y="200" on="1"/>
        <pt x="510" y="198" on="0"/>
        <pt x="615" y="198" on="0"/>
        <pt x="647" y="200" on="1"/>
        <pt x="718" y="340" on="0"/>
        <pt x="853" y="652" on="0"/>
        <pt x="853" y="675" on="1"/>
        <pt x="853" y="684" on="0"/>
      </contour>
      <contour>
        <pt x="701" y="202" on="1"/>
        <pt x="909" y="217" on="1"/>
        <pt x="917" y="217" on="0"/>
        <pt x="917" y="201" on="0"/>
        <pt x="890" y="183" on="0"/>
        <pt x="812" y="177" on="0"/>
        <pt x="686" y="174" on="1"/>
        <pt x="584" y="-25" on="0"/>
        <pt x="542" y="-25" on="1"/>
        <pt x="514" y="-25" on="0"/>
        <pt x="502" y="0" on="1"/>
        <pt x="458" y="89" on="0"/>
        <pt x="399" y="156" on="1"/>
        <pt x="370" y="128" on="1"/>
        <pt x="222" y="-10" on="0"/>
        <pt x="25" y="-10" on="1"/>
        <pt x="-25" y="-10" on="0"/>
        <pt x="-100" y="5" on="0"/>
        <pt x="-100" y="18" on="1"/>
        <pt x="-100" y="27" on="0"/>
        <pt x="-89" y="27" on="1"/>
        <pt x="-82" y="27" on="0"/>
        <pt x="-72" y="23" on="1"/>
        <pt x="-42" y="11" on="0"/>
        <pt x="41" y="11" on="1"/>
        <pt x="190" y="11" on="0"/>
        <pt x="323" y="128" on="1"/>
        <pt x="371" y="173" on="0"/>
        <pt x="372" y="174" on="1"/>
        <pt x="278" y="181" on="0"/>
        <pt x="214" y="199" on="1"/>
        <pt x="100" y="231" on="0"/>
        <pt x="100" y="275" on="1"/>
        <pt x="100" y="290" on="0"/>
        <pt x="133" y="310" on="0"/>
        <pt x="160" y="310" on="1"/>
        <pt x="279" y="310" on="0"/>
        <pt x="386" y="203" on="1"/>
        <pt x="395" y="203" on="0"/>
        <pt x="399" y="202" on="1"/>
        <pt x="488" y="298" on="0"/>
        <pt x="616" y="474" on="1"/>
        <pt x="661" y="535" on="0"/>
        <pt x="706" y="592" on="1"/>
        <pt x="800" y="710" on="0"/>
        <pt x="860" y="710" on="1"/>
        <pt x="899" y="710" on="0"/>
        <pt x="899" y="676" on="1"/>
        <pt x="899" y="653" on="0"/>
        <pt x="770" y="340" on="0"/>
      </contour>
    </TTGlyph>
    <TTGlyph name="Adieresis" xMin="-100" yMin="-25" xMax="959" yMax="811">
      <contour>
        <pt x="859" y="811" on="0"/>
        <pt x="870" y="799" on="0"/>
        <pt x="870" y="777" on="0"/>
        <pt x="840" y="743" on="0"/>
        <pt x="818" y="743" on="0"/>
        <pt x="808" y="756" on="0"/>
        <pt x="808" y="773" on="0"/>
        <pt x="840" y="811" on="0"/>
      </contour>
      <contour>
        <pt x="948" y="811" on="0"/>
        <pt x="959" y="799" on="0"/>
        <pt x="959" y="777" on="0"/>
        <pt x="929" y="743" on="0"/>
        <pt x="907" y="743" on="0"/>
        <pt x="897" y="756" on="0"/>
        <pt x="897" y="773" on="0"/>
        <pt x="929" y="811" on="0"/>
      </contour>
      <contour>
        <pt x="133" y="274" on="1"/>
        <pt x="133" y="249" on="0"/>
        <pt x="224" y="226" on="1"/>
        <pt x="276" y="214" on="0"/>
        <pt x="350" y="206" on="1"/>
        <pt x="257" y="289" on="0"/>
        <pt x="166" y="289" on="1"/>
        <pt x="133" y="289" on="0"/>
      </contour>
      <contour>
        <pt x="529" y="7" on="1"/>
        <pt x="550" y="7" on="0"/>
        <pt x="633" y="172" on="1"/>
        <pt x="521" y="170" on="0"/>
        <pt x="466" y="170" on="0"/>
        <pt x="416" y="172" on="1"/>
        <pt x="475" y="101" on="0"/>
        <pt x="512" y="21" on="1"/>
        <pt x="518" y="7" on="0"/>
      </contour>
      <contour>
        <pt x="842" y="684" on="1"/>
        <pt x="809" y="684" on="0"/>
        <pt x="699" y="543" on="0"/>
        <pt x="518" y="285" on="0"/>
        <pt x="440" y="200" on="1"/>
        <pt x="510" y="198" on="0"/>
        <pt x="615" y="198" on="0"/>
        <pt x="647" y="200" on="1"/>
        <pt x="718" y="340" on="0"/>
        <pt x="853" y="652" on="0"/>
        <pt x="853" y="675" on="1"/>
        <pt x="853" y="684" on="0"/>
      </contour>
      <contour>
        <pt x="701" y="202" on="1"/>
        <pt x="909" y="217" on="1"/>
        <pt x="917" y="217" on="0"/>
        <pt x="917" y="201" on="0"/>
        <pt x="890" y="183" on="0"/>
        <pt x="812" y="177" on="0"/>
        <pt x="686" y="174" on="1"/>
        <pt x="584" y="-25" on="0"/>
        <pt x="542" y="-25" on="1"/>
        <pt x="514" y="-25" on="0"/>
        <pt x="502" y="0" on="1"/>
        <pt x="458" y="89" on="0"/>
        <pt x="399" y="156" on="1"/>
        <pt x="370" y="128" on="1"/>
        <pt x="222" y="-10" on="0"/>
        <pt x="25" y="-10" on="1"/>
        <pt x="-25" y="-10" on="0"/>
        <pt x="-100" y="5" on="0"/>
        <pt x="-100" y="18" on="1"/>
        <pt x="-100" y="27" on="0"/>
        <pt x="-89" y="27" on="1"/>
        <pt x="-82" y="27" on="0"/>
        <pt x="-72" y="23" on="1"/>
        <pt x="-42" y="11" on="0"/>
        <pt x="41" y="11" on="1"/>
        <pt x="190" y="11" on="0"/>
        <pt x="323" y="128" on="1"/>
        <pt x="371" y="173" on="0"/>
        <pt x="372" y="174" on="1"/>
        <pt x="278" y="181" on="0"/>
        <pt x="214" y="199" on="1"/>
        <pt x="100" y="231" on="0"/>
        <pt x="100" y="275" on="1"/>
        <pt x="100" y="290" on="0"/>
        <pt x="133" y="310" on="0"/>
        <pt x="160" y="310" on="1"/>
        <pt x="279" y="310" on="0"/>
        <pt x="386" y="203" on="1"/>
        <pt x="395" y="203" on="0"/>
        <pt x="399" y="202" on="1"/>
        <pt x="488" y="298" on="0"/>
        <pt x="616" y="474" on="1"/>
        <pt x="661" y="535" on="0"/>
        <pt x="706" y="592" on="1"/>
        <pt x="800" y="710" on="0"/>
        <pt x="860" y="710" on="1"/>
        <pt x="899" y="710" on="0"/>
        <pt x="899" y="676" on="1"/>
        <pt x="899" y="653" on="0"/>
        <pt x="770" y="340" on="0"/>
      </contour>
    </TTGlyph>
    <TTGlyph name="Agrave" xMin="-100" yMin="-25" xMax="943" yMax="832">
      <contour>
        <pt x="816" y="819" on="1"/>
        <pt x="816" y="832" on="0"/>
        <pt x="840" y="832" on="0"/>
        <pt x="857" y="810" on="0"/>
        <pt x="908" y="772" on="0"/>
        <pt x="933" y="763" on="1"/>
        <pt x="943" y="760" on="0"/>
        <pt x="943" y="745" on="0"/>
        <pt x="937" y="745" on="1"/>
        <pt x="853" y="775" on="0"/>
        <pt x="826" y="802" on="1"/>
        <pt x="816" y="812" on="0"/>
      </contour>
      <contour>
        <pt x="133" y="274" on="1"/>
        <pt x="133" y="249" on="0"/>
        <pt x="224" y="226" on="1"/>
        <pt x="276" y="214" on="0"/>
        <pt x="350" y="206" on="1"/>
        <pt x="257" y="289" on="0"/>
        <pt x="166" y="289" on="1"/>
        <pt x="133" y="289" on="0"/>
      </contour>
      <contour>
        <pt x="529" y="7" on="1"/>
        <pt x="550" y="7" on="0"/>
        <pt x="633" y="172" on="1"/>
        <pt x="521" y="170" on="0"/>
        <pt x="466" y="170" on="0"/>
        <pt x="416" y="172" on="1"/>
        <pt x="475" y="101" on="0"/>
        <pt x="512" y="21" on="1"/>
        <pt x="518" y="7" on="0"/>
      </contour>
      <contour>
        <pt x="842" y="684" on="1"/>
        <pt x="809" y="684" on="0"/>
        <pt x="699" y="543" on="0"/>
        <pt x="518" y="285" on="0"/>
        <pt x="440" y="200" on="1"/>
        <pt x="510" y="198" on="0"/>
        <pt x="615" y="198" on="0"/>
        <pt x="647" y="200" on="1"/>
        <pt x="718" y="340" on="0"/>
        <pt x="853" y="652" on="0"/>
        <pt x="853" y="675" on="1"/>
        <pt x="853" y="684" on="0"/>
      </contour>
      <contour>
        <pt x="701" y="202" on="1"/>
        <pt x="909" y="217" on="1"/>
        <pt x="917" y="217" on="0"/>
        <pt x="917" y="201" on="0"/>
        <pt x="890" y="183" on="0"/>
        <pt x="812" y="177" on="0"/>
        <pt x="686" y="174" on="1"/>
        <pt x="584" y="-25" on="0"/>
        <pt x="542" y="-25" on="1"/>
        <pt x="514" y="-25" on="0"/>
        <pt x="502" y="0" on="1"/>
        <pt x="458" y="89" on="0"/>
        <pt x="399" y="156" on="1"/>
        <pt x="370" y="128" on="1"/>
        <pt x="222" y="-10" on="0"/>
        <pt x="25" y="-10" on="1"/>
        <pt x="-25" y="-10" on="0"/>
        <pt x="-100" y="5" on="0"/>
        <pt x="-100" y="18" on="1"/>
        <pt x="-100" y="27" on="0"/>
        <pt x="-89" y="27" on="1"/>
        <pt x="-82" y="27" on="0"/>
        <pt x="-72" y="23" on="1"/>
        <pt x="-42" y="11" on="0"/>
        <pt x="41" y="11" on="1"/>
        <pt x="190" y="11" on="0"/>
        <pt x="323" y="128" on="1"/>
        <pt x="371" y="173" on="0"/>
        <pt x="372" y="174" on="1"/>
        <pt x="278" y="181" on="0"/>
        <pt x="214" y="199" on="1"/>
        <pt x="100" y="231" on="0"/>
        <pt x="100" y="275" on="1"/>
        <pt x="100" y="290" on="0"/>
        <pt x="133" y="310" on="0"/>
        <pt x="160" y="310" on="1"/>
        <pt x="279" y="310" on="0"/>
        <pt x="386" y="203" on="1"/>
        <pt x="395" y="203" on="0"/>
        <pt x="399" y="202" on="1"/>
        <pt x="488" y="298" on="0"/>
        <pt x="616" y="474" on="1"/>
        <pt x="661" y="535" on="0"/>
        <pt x="706" y="592" on="1"/>
        <pt x="800" y="710" on="0"/>
        <pt x="860" y="710" on="1"/>
        <pt x="899" y="710" on="0"/>
        <pt x="899" y="676" on="1"/>
        <pt x="899" y="653" on="0"/>
        <pt x="770" y="340" on="0"/>
      </contour>
    </TTGlyph>
    <TTGlyph name="Aring" xMin="-100" yMin="-25" xMax="952" yMax="830">
      <contour>
        <pt x="936" y="798" on="1"/>
        <pt x="936" y="815" on="0"/>
        <pt x="901" y="815" on="0"/>
        <pt x="876" y="787" on="0"/>
        <pt x="876" y="778" on="1"/>
        <pt x="876" y="760" on="0"/>
        <pt x="911" y="760" on="0"/>
        <pt x="936" y="787" on="0"/>
      </contour>
      <contour>
        <pt x="860" y="787" on="0"/>
        <pt x="897" y="830" on="0"/>
        <pt x="952" y="830" on="0"/>
        <pt x="952" y="801" on="1"/>
        <pt x="952" y="786" on="0"/>
        <pt x="913" y="745" on="0"/>
        <pt x="860" y="745" on="0"/>
        <pt x="860" y="771" on="1"/>
      </contour>
      <contour>
        <pt x="133" y="274" on="1"/>
        <pt x="133" y="249" on="0"/>
        <pt x="224" y="226" on="1"/>
        <pt x="276" y="214" on="0"/>
        <pt x="350" y="206" on="1"/>
        <pt x="257" y="289" on="0"/>
        <pt x="166" y="289" on="1"/>
        <pt x="133" y="289" on="0"/>
      </contour>
      <contour>
        <pt x="529" y="7" on="1"/>
        <pt x="550" y="7" on="0"/>
        <pt x="633" y="172" on="1"/>
        <pt x="521" y="170" on="0"/>
        <pt x="466" y="170" on="0"/>
        <pt x="416" y="172" on="1"/>
        <pt x="475" y="101" on="0"/>
        <pt x="512" y="21" on="1"/>
        <pt x="518" y="7" on="0"/>
      </contour>
      <contour>
        <pt x="842" y="684" on="1"/>
        <pt x="809" y="684" on="0"/>
        <pt x="699" y="543" on="0"/>
        <pt x="518" y="285" on="0"/>
        <pt x="440" y="200" on="1"/>
        <pt x="510" y="198" on="0"/>
        <pt x="615" y="198" on="0"/>
        <pt x="647" y="200" on="1"/>
        <pt x="718" y="340" on="0"/>
        <pt x="853" y="652" on="0"/>
        <pt x="853" y="675" on="1"/>
        <pt x="853" y="684" on="0"/>
      </contour>
      <contour>
        <pt x="701" y="202" on="1"/>
        <pt x="909" y="217" on="1"/>
        <pt x="917" y="217" on="0"/>
        <pt x="917" y="201" on="0"/>
        <pt x="890" y="183" on="0"/>
        <pt x="812" y="177" on="0"/>
        <pt x="686" y="174" on="1"/>
        <pt x="584" y="-25" on="0"/>
        <pt x="542" y="-25" on="1"/>
        <pt x="514" y="-25" on="0"/>
        <pt x="502" y="0" on="1"/>
        <pt x="458" y="89" on="0"/>
        <pt x="399" y="156" on="1"/>
        <pt x="370" y="128" on="1"/>
        <pt x="222" y="-10" on="0"/>
        <pt x="25" y="-10" on="1"/>
        <pt x="-25" y="-10" on="0"/>
        <pt x="-100" y="5" on="0"/>
        <pt x="-100" y="18" on="1"/>
        <pt x="-100" y="27" on="0"/>
        <pt x="-89" y="27" on="1"/>
        <pt x="-82" y="27" on="0"/>
        <pt x="-72" y="23" on="1"/>
        <pt x="-42" y="11" on="0"/>
        <pt x="41" y="11" on="1"/>
        <pt x="190" y="11" on="0"/>
        <pt x="323" y="128" on="1"/>
        <pt x="371" y="173" on="0"/>
        <pt x="372" y="174" on="1"/>
        <pt x="278" y="181" on="0"/>
        <pt x="214" y="199" on="1"/>
        <pt x="100" y="231" on="0"/>
        <pt x="100" y="275" on="1"/>
        <pt x="100" y="290" on="0"/>
        <pt x="133" y="310" on="0"/>
        <pt x="160" y="310" on="1"/>
        <pt x="279" y="310" on="0"/>
        <pt x="386" y="203" on="1"/>
        <pt x="395" y="203" on="0"/>
        <pt x="399" y="202" on="1"/>
        <pt x="488" y="298" on="0"/>
        <pt x="616" y="474" on="1"/>
        <pt x="661" y="535" on="0"/>
        <pt x="706" y="592" on="1"/>
        <pt x="800" y="710" on="0"/>
        <pt x="860" y="710" on="1"/>
        <pt x="899" y="710" on="0"/>
        <pt x="899" y="676" on="1"/>
        <pt x="899" y="653" on="0"/>
        <pt x="770" y="340" on="0"/>
      </contour>
    </TTGlyph>
    <TTGlyph name="Atilde" xMin="-100" yMin="-25" xMax="982" yMax="818">
      <contour>
        <pt x="930" y="772" on="1"/>
        <pt x="836" y="762" on="1"/>
        <pt x="814" y="762" on="0"/>
        <pt x="780" y="789" on="0"/>
        <pt x="773" y="813" on="1"/>
        <pt x="773" y="818" on="0"/>
        <pt x="782" y="818" on="0"/>
        <pt x="785" y="812" on="1"/>
        <pt x="800" y="788" on="0"/>
        <pt x="834" y="788" on="1"/>
        <pt x="918" y="797" on="1"/>
        <pt x="943" y="797" on="0"/>
        <pt x="982" y="775" on="0"/>
        <pt x="982" y="752" on="1"/>
        <pt x="982" y="746" on="0"/>
        <pt x="973" y="746" on="0"/>
        <pt x="970" y="752" on="1"/>
        <pt x="957" y="772" on="0"/>
      </contour>
      <contour>
        <pt x="133" y="274" on="1"/>
        <pt x="133" y="249" on="0"/>
        <pt x="224" y="226" on="1"/>
        <pt x="276" y="214" on="0"/>
        <pt x="350" y="206" on="1"/>
        <pt x="257" y="289" on="0"/>
        <pt x="166" y="289" on="1"/>
        <pt x="133" y="289" on="0"/>
      </contour>
      <contour>
        <pt x="529" y="7" on="1"/>
        <pt x="550" y="7" on="0"/>
        <pt x="633" y="172" on="1"/>
        <pt x="521" y="170" on="0"/>
        <pt x="466" y="170" on="0"/>
        <pt x="416" y="172" on="1"/>
        <pt x="475" y="101" on="0"/>
        <pt x="512" y="21" on="1"/>
        <pt x="518" y="7" on="0"/>
      </contour>
      <contour>
        <pt x="842" y="684" on="1"/>
        <pt x="809" y="684" on="0"/>
        <pt x="699" y="543" on="0"/>
        <pt x="518" y="285" on="0"/>
        <pt x="440" y="200" on="1"/>
        <pt x="510" y="198" on="0"/>
        <pt x="615" y="198" on="0"/>
        <pt x="647" y="200" on="1"/>
        <pt x="718" y="340" on="0"/>
        <pt x="853" y="652" on="0"/>
        <pt x="853" y="675" on="1"/>
        <pt x="853" y="684" on="0"/>
      </contour>
      <contour>
        <pt x="701" y="202" on="1"/>
        <pt x="909" y="217" on="1"/>
        <pt x="917" y="217" on="0"/>
        <pt x="917" y="201" on="0"/>
        <pt x="890" y="183" on="0"/>
        <pt x="812" y="177" on="0"/>
        <pt x="686" y="174" on="1"/>
        <pt x="584" y="-25" on="0"/>
        <pt x="542" y="-25" on="1"/>
        <pt x="514" y="-25" on="0"/>
        <pt x="502" y="0" on="1"/>
        <pt x="458" y="89" on="0"/>
        <pt x="399" y="156" on="1"/>
        <pt x="370" y="128" on="1"/>
        <pt x="222" y="-10" on="0"/>
        <pt x="25" y="-10" on="1"/>
        <pt x="-25" y="-10" on="0"/>
        <pt x="-100" y="5" on="0"/>
        <pt x="-100" y="18" on="1"/>
        <pt x="-100" y="27" on="0"/>
        <pt x="-89" y="27" on="1"/>
        <pt x="-82" y="27" on="0"/>
        <pt x="-72" y="23" on="1"/>
        <pt x="-42" y="11" on="0"/>
        <pt x="41" y="11" on="1"/>
        <pt x="190" y="11" on="0"/>
        <pt x="323" y="128" on="1"/>
        <pt x="371" y="173" on="0"/>
        <pt x="372" y="174" on="1"/>
        <pt x="278" y="181" on="0"/>
        <pt x="214" y="199" on="1"/>
        <pt x="100" y="231" on="0"/>
        <pt x="100" y="275" on="1"/>
        <pt x="100" y="290" on="0"/>
        <pt x="133" y="310" on="0"/>
        <pt x="160" y="310" on="1"/>
        <pt x="279" y="310" on="0"/>
        <pt x="386" y="203" on="1"/>
        <pt x="395" y="203" on="0"/>
        <pt x="399" y="202" on="1"/>
        <pt x="488" y="298" on="0"/>
        <pt x="616" y="474" on="1"/>
        <pt x="661" y="535" on="0"/>
        <pt x="706" y="592" on="1"/>
        <pt x="800" y="710" on="0"/>
        <pt x="860" y="710" on="1"/>
        <pt x="899" y="710" on="0"/>
        <pt x="899" y="676" on="1"/>
        <pt x="899" y="653" on="0"/>
        <pt x="770" y="340" on="0"/>
      </contour>
    </TTGlyph>
    <TTGlyph name="B" xMin="1" yMin="-141" xMax="902" yMax="707">
      <contour>
        <pt x="588" y="394" on="1"/>
        <pt x="588" y="394" on="0"/>
        <pt x="632" y="397" on="1"/>
        <pt x="703" y="397" on="0"/>
        <pt x="772" y="344" on="0"/>
        <pt x="772" y="247" on="0"/>
        <pt x="684" y="117" on="0"/>
        <pt x="614" y="64" on="1"/>
        <pt x="671" y="64" on="1"/>
        <pt x="706" y="64" on="0"/>
        <pt x="734" y="70" on="0"/>
        <pt x="736" y="70" on="1"/>
        <pt x="750" y="70" on="0"/>
        <pt x="750" y="40" on="0"/>
        <pt x="730" y="39" on="1"/>
        <pt x="653" y="39" on="0"/>
        <pt x="582" y="41" on="1"/>
        <pt x="470" y="-30" on="0"/>
        <pt x="362" y="-30" on="1"/>
        <pt x="311" y="-30" on="0"/>
        <pt x="251" y="8" on="0"/>
        <pt x="251" y="47" on="0"/>
        <pt x="284" y="69" on="0"/>
        <pt x="314" y="69" on="1"/>
        <pt x="431" y="69" on="0"/>
        <pt x="576" y="64" on="1"/>
        <pt x="636" y="113" on="0"/>
        <pt x="708" y="242" on="0"/>
        <pt x="708" y="294" on="1"/>
        <pt x="708" y="377" on="0"/>
        <pt x="619" y="377" on="1"/>
        <pt x="584" y="377" on="0"/>
        <pt x="509" y="355" on="0"/>
        <pt x="494" y="346" on="0"/>
        <pt x="492" y="346" on="1"/>
        <pt x="486" y="346" on="0"/>
        <pt x="486" y="363" on="0"/>
        <pt x="512" y="375" on="1"/>
        <pt x="626" y="430" on="0"/>
        <pt x="844" y="613" on="0"/>
        <pt x="844" y="652" on="1"/>
        <pt x="844" y="670" on="0"/>
        <pt x="816" y="670" on="1"/>
        <pt x="702" y="669" on="0"/>
        <pt x="503" y="499" on="1"/>
        <pt x="463" y="396" on="0"/>
        <pt x="280" y="96" on="0"/>
        <pt x="80" y="-141" on="0"/>
        <pt x="31" y="-141" on="1"/>
        <pt x="1" y="-141" on="0"/>
        <pt x="1" y="-110" on="1"/>
        <pt x="1" y="-39" on="0"/>
        <pt x="270" y="325" on="0"/>
        <pt x="440" y="478" on="1"/>
        <pt x="470" y="551" on="0"/>
        <pt x="470" y="618" on="0"/>
        <pt x="438" y="657" on="0"/>
        <pt x="407" y="666" on="1"/>
        <pt x="358" y="679" on="0"/>
        <pt x="249" y="679" on="0"/>
        <pt x="191" y="674" on="0"/>
        <pt x="108" y="659" on="0"/>
        <pt x="56" y="622" on="0"/>
        <pt x="56" y="565" on="0"/>
        <pt x="112" y="534" on="0"/>
        <pt x="193" y="522" on="0"/>
        <pt x="273" y="508" on="0"/>
        <pt x="329" y="467" on="0"/>
        <pt x="329" y="430" on="1"/>
        <pt x="329" y="420" on="0"/>
        <pt x="320" y="420" on="0"/>
        <pt x="315" y="426" on="0"/>
        <pt x="309" y="435" on="1"/>
        <pt x="300" y="448" on="0"/>
        <pt x="265" y="462" on="0"/>
        <pt x="192" y="475" on="0"/>
        <pt x="127" y="490" on="0"/>
        <pt x="61" y="514" on="0"/>
        <pt x="21" y="558" on="0"/>
        <pt x="21" y="617" on="0"/>
        <pt x="71" y="663" on="0"/>
        <pt x="112" y="676" on="1"/>
        <pt x="196" y="701" on="0"/>
        <pt x="287" y="701" on="1"/>
        <pt x="523" y="701" on="0"/>
        <pt x="523" y="577" on="1"/>
        <pt x="523" y="566" on="0"/>
        <pt x="518" y="544" on="1"/>
        <pt x="720" y="707" on="0"/>
        <pt x="846" y="707" on="1"/>
        <pt x="902" y="707" on="0"/>
        <pt x="902" y="673" on="1"/>
        <pt x="902" y="624" on="0"/>
        <pt x="697" y="444" on="0"/>
      </contour>
      <contour>
        <pt x="56" y="-112" on="1"/>
        <pt x="85" y="-112" on="0"/>
        <pt x="338" y="259" on="0"/>
        <pt x="414" y="419" on="1"/>
        <pt x="264" y="276" on="0"/>
        <pt x="33" y="-33" on="0"/>
        <pt x="33" y="-89" on="1"/>
        <pt x="33" y="-112" on="0"/>
      </contour>
      <contour>
        <pt x="545" y="42" on="1"/>
        <pt x="364" y="46" on="1"/>
        <pt x="287" y="46" on="0"/>
        <pt x="287" y="23" on="1"/>
        <pt x="287" y="10" on="0"/>
        <pt x="339" y="-13" on="0"/>
        <pt x="373" y="-13" on="1"/>
        <pt x="462" y="-13" on="0"/>
      </contour>
    </TTGlyph>
    <TTGlyph name="C" xMin="0" yMin="-56" xMax="708" yMax="703">
      <contour>
        <pt x="69" y="364" on="1"/>
        <pt x="122" y="364" on="0"/>
        <pt x="185" y="381" on="1"/>
        <pt x="303" y="516" on="0"/>
        <pt x="570" y="703" on="0"/>
        <pt x="662" y="703" on="1"/>
        <pt x="708" y="703" on="0"/>
        <pt x="708" y="680" on="1"/>
        <pt x="708" y="649" on="0"/>
        <pt x="568" y="533" on="0"/>
        <pt x="344" y="411" on="0"/>
        <pt x="236" y="375" on="1"/>
        <pt x="155" y="281" on="0"/>
        <pt x="55" y="105" on="0"/>
        <pt x="55" y="48" on="1"/>
        <pt x="55" y="-32" on="0"/>
        <pt x="157" y="-32" on="1"/>
        <pt x="214" y="-32" on="0"/>
        <pt x="352" y="40" on="0"/>
        <pt x="397" y="75" on="1"/>
        <pt x="407" y="82" on="0"/>
        <pt x="422" y="82" on="0"/>
        <pt x="422" y="74" on="1"/>
        <pt x="422" y="69" on="0"/>
        <pt x="418" y="65" on="1"/>
        <pt x="371" y="31" on="0"/>
        <pt x="298" y="-13" on="0"/>
        <pt x="180" y="-56" on="0"/>
        <pt x="126" y="-56" on="1"/>
        <pt x="0" y="-56" on="0"/>
        <pt x="0" y="41" on="1"/>
        <pt x="0" y="158" on="0"/>
        <pt x="162" y="354" on="1"/>
        <pt x="114" y="342" on="0"/>
        <pt x="70" y="339" on="1"/>
        <pt x="58" y="341" on="0"/>
        <pt x="58" y="363" on="0"/>
      </contour>
      <contour>
        <pt x="631" y="675" on="1"/>
        <pt x="572" y="675" on="0"/>
        <pt x="363" y="518" on="0"/>
        <pt x="261" y="404" on="1"/>
        <pt x="354" y="437" on="0"/>
        <pt x="543" y="544" on="0"/>
        <pt x="657" y="639" on="0"/>
        <pt x="657" y="661" on="1"/>
        <pt x="657" y="675" on="0"/>
      </contour>
    </TTGlyph>
    <TTGlyph name="Ccedilla" xMin="-24" yMin="-244" xMax="708" yMax="703">
      <contour>
        <pt x="69" y="364" on="1"/>
        <pt x="122" y="364" on="0"/>
        <pt x="185" y="381" on="1"/>
        <pt x="303" y="516" on="0"/>
        <pt x="570" y="703" on="0"/>
        <pt x="662" y="703" on="1"/>
        <pt x="708" y="703" on="0"/>
        <pt x="708" y="680" on="1"/>
        <pt x="708" y="649" on="0"/>
        <pt x="568" y="533" on="0"/>
        <pt x="344" y="411" on="0"/>
        <pt x="236" y="375" on="1"/>
        <pt x="155" y="281" on="0"/>
        <pt x="55" y="105" on="0"/>
        <pt x="55" y="48" on="1"/>
        <pt x="55" y="-32" on="0"/>
        <pt x="157" y="-32" on="1"/>
        <pt x="214" y="-32" on="0"/>
        <pt x="352" y="40" on="0"/>
        <pt x="397" y="75" on="1"/>
        <pt x="407" y="82" on="0"/>
        <pt x="422" y="82" on="0"/>
        <pt x="422" y="74" on="1"/>
        <pt x="422" y="69" on="0"/>
        <pt x="418" y="65" on="1"/>
        <pt x="371" y="31" on="0"/>
        <pt x="298" y="-13" on="0"/>
        <pt x="180" y="-56" on="0"/>
        <pt x="126" y="-56" on="1"/>
        <pt x="0" y="-56" on="0"/>
        <pt x="0" y="41" on="1"/>
        <pt x="0" y="158" on="0"/>
        <pt x="162" y="354" on="1"/>
        <pt x="114" y="342" on="0"/>
        <pt x="70" y="339" on="1"/>
        <pt x="58" y="341" on="0"/>
        <pt x="58" y="363" on="0"/>
      </contour>
      <contour>
        <pt x="631" y="675" on="1"/>
        <pt x="572" y="675" on="0"/>
        <pt x="363" y="518" on="0"/>
        <pt x="261" y="404" on="1"/>
        <pt x="354" y="437" on="0"/>
        <pt x="543" y="544" on="0"/>
        <pt x="657" y="639" on="0"/>
        <pt x="657" y="661" on="1"/>
        <pt x="657" y="675" on="0"/>
      </contour>
      <contour>
        <pt x="8" y="-78" on="1"/>
        <pt x="0" y="-78" on="0"/>
        <pt x="-10" y="-70" on="0"/>
        <pt x="-10" y="-66" on="1"/>
        <pt x="-10" y="-59" on="0"/>
        <pt x="0" y="-59" on="1"/>
        <pt x="59" y="-59" on="0"/>
        <pt x="140" y="-97" on="0"/>
        <pt x="140" y="-134" on="1"/>
        <pt x="140" y="-158" on="0"/>
        <pt x="108" y="-190" on="0"/>
        <pt x="73" y="-202" on="0"/>
        <pt x="15" y="-217" on="0"/>
        <pt x="-4" y="-224" on="0"/>
        <pt x="-19" y="-244" on="0"/>
        <pt x="-24" y="-244" on="0"/>
        <pt x="-24" y="-237" on="1"/>
        <pt x="-24" y="-208" on="0"/>
        <pt x="20" y="-180" on="0"/>
        <pt x="74" y="-175" on="0"/>
        <pt x="118" y="-152" on="0"/>
        <pt x="118" y="-130" on="1"/>
        <pt x="118" y="-78" on="0"/>
      </contour>
    </TTGlyph>
    <TTGlyph name="D" xMin="0" yMin="-83" xMax="1049" yMax="729">
      <contour>
        <pt x="518" y="16" on="1"/>
        <pt x="545" y="16" on="0"/>
        <pt x="645" y="110" on="0"/>
        <pt x="704" y="187" on="1"/>
        <pt x="674" y="182" on="0"/>
        <pt x="648" y="182" on="1"/>
        <pt x="583" y="182" on="0"/>
        <pt x="521" y="243" on="0"/>
        <pt x="521" y="354" on="0"/>
        <pt x="594" y="506" on="0"/>
        <pt x="703" y="638" on="0"/>
        <pt x="845" y="729" on="0"/>
        <pt x="907" y="729" on="1"/>
        <pt x="975" y="729" on="0"/>
        <pt x="975" y="585" on="0"/>
        <pt x="861" y="349" on="0"/>
        <pt x="776" y="233" on="1"/>
        <pt x="837" y="257" on="0"/>
        <pt x="971" y="343" on="0"/>
        <pt x="1014" y="365" on="0"/>
        <pt x="1036" y="365" on="0"/>
        <pt x="1049" y="354" on="0"/>
        <pt x="1049" y="347" on="1"/>
        <pt x="1049" y="333" on="0"/>
        <pt x="984" y="321" on="0"/>
        <pt x="804" y="217" on="0"/>
        <pt x="751" y="200" on="1"/>
        <pt x="679" y="105" on="0"/>
        <pt x="546" y="-13" on="0"/>
        <pt x="504" y="-13" on="1"/>
        <pt x="446" y="-13" on="0"/>
        <pt x="446" y="70" on="1"/>
        <pt x="446" y="93" on="0"/>
        <pt x="456" y="180" on="0"/>
        <pt x="456" y="193" on="1"/>
        <pt x="456" y="271" on="0"/>
        <pt x="409" y="271" on="1"/>
        <pt x="392" y="271" on="0"/>
        <pt x="373" y="265" on="1"/>
        <pt x="315" y="179" on="0"/>
        <pt x="245" y="83" on="0"/>
        <pt x="197" y="26" on="1"/>
        <pt x="105" y="-83" on="0"/>
        <pt x="30" y="-83" on="1"/>
        <pt x="0" y="-83" on="0"/>
        <pt x="0" y="-61" on="1"/>
        <pt x="0" y="-15" on="0"/>
        <pt x="220" y="202" on="0"/>
        <pt x="325" y="262" on="1"/>
        <pt x="388" y="358" on="0"/>
        <pt x="460" y="465" on="0"/>
        <pt x="572" y="613" on="0"/>
        <pt x="617" y="659" on="1"/>
        <pt x="684" y="726" on="0"/>
        <pt x="731" y="726" on="1"/>
        <pt x="750" y="726" on="0"/>
        <pt x="750" y="715" on="1"/>
        <pt x="750" y="708" on="0"/>
        <pt x="744" y="705" on="1"/>
        <pt x="730" y="697" on="0"/>
        <pt x="722" y="693" on="1"/>
        <pt x="642" y="640" on="0"/>
        <pt x="550" y="519" on="1"/>
        <pt x="491" y="440" on="0"/>
        <pt x="391" y="292" on="1"/>
        <pt x="410" y="298" on="0"/>
        <pt x="447" y="298" on="0"/>
        <pt x="476" y="282" on="0"/>
        <pt x="482" y="267" on="1"/>
        <pt x="492" y="242" on="0"/>
        <pt x="492" y="208" on="1"/>
        <pt x="479" y="72" on="1"/>
        <pt x="479" y="16" on="0"/>
      </contour>
      <contour>
        <pt x="698" y="215" on="1"/>
        <pt x="712" y="215" on="0"/>
        <pt x="727" y="218" on="1"/>
        <pt x="814" y="336" on="0"/>
        <pt x="939" y="582" on="0"/>
        <pt x="939" y="707" on="0"/>
        <pt x="887" y="707" on="1"/>
        <pt x="824" y="707" on="0"/>
        <pt x="673" y="577" on="0"/>
        <pt x="571" y="396" on="0"/>
        <pt x="571" y="325" on="1"/>
        <pt x="571" y="215" on="0"/>
      </contour>
      <contour>
        <pt x="61" y="-55" on="1"/>
        <pt x="97" y="-55" on="0"/>
        <pt x="211" y="88" on="0"/>
        <pt x="307" y="234" on="1"/>
        <pt x="219" y="182" on="0"/>
        <pt x="43" y="-3" on="0"/>
        <pt x="43" y="-40" on="1"/>
        <pt x="43" y="-55" on="0"/>
      </contour>
    </TTGlyph>
    <TTGlyph name="E" xMin="31" yMin="-30" xMax="871" yMax="735">
      <contour>
        <pt x="171" y="443" on="1"/>
        <pt x="171" y="421" on="0"/>
        <pt x="276" y="421" on="0"/>
        <pt x="508" y="454" on="0"/>
        <pt x="542" y="454" on="1"/>
        <pt x="595" y="454" on="0"/>
        <pt x="595" y="424" on="1"/>
        <pt x="595" y="376" on="0"/>
        <pt x="416" y="297" on="1"/>
        <pt x="342" y="264" on="0"/>
        <pt x="192" y="192" on="0"/>
        <pt x="88" y="101" on="0"/>
        <pt x="88" y="55" on="1"/>
        <pt x="88" y="17" on="0"/>
        <pt x="173" y="17" on="1"/>
        <pt x="220" y="17" on="0"/>
        <pt x="411" y="46" on="0"/>
        <pt x="480" y="46" on="1"/>
        <pt x="603" y="46" on="0"/>
        <pt x="603" y="-22" on="1"/>
        <pt x="603" y="-30" on="0"/>
        <pt x="594" y="-30" on="1"/>
        <pt x="589" y="-30" on="0"/>
        <pt x="572" y="-21" on="1"/>
        <pt x="519" y="6" on="0"/>
        <pt x="456" y="6" on="1"/>
        <pt x="423" y="4" on="0"/>
        <pt x="183" y="-23" on="0"/>
        <pt x="151" y="-23" on="1"/>
        <pt x="31" y="-23" on="0"/>
        <pt x="31" y="41" on="1"/>
        <pt x="31" y="86" on="0"/>
        <pt x="136" y="184" on="0"/>
        <pt x="286" y="263" on="0"/>
        <pt x="435" y="333" on="0"/>
        <pt x="540" y="389" on="0"/>
        <pt x="540" y="404" on="1"/>
        <pt x="540" y="412" on="0"/>
        <pt x="522" y="412" on="1"/>
        <pt x="290" y="381" on="0"/>
        <pt x="187" y="381" on="1"/>
        <pt x="104" y="381" on="0"/>
        <pt x="104" y="418" on="1"/>
        <pt x="104" y="460" on="0"/>
        <pt x="306" y="599" on="0"/>
        <pt x="453" y="653" on="1"/>
        <pt x="209" y="655" on="0"/>
        <pt x="40" y="674" on="1"/>
        <pt x="31" y="677" on="0"/>
        <pt x="31" y="686" on="1"/>
        <pt x="31" y="699" on="0"/>
        <pt x="53" y="699" on="1"/>
        <pt x="59" y="699" on="0"/>
        <pt x="132" y="694" on="1"/>
        <pt x="338" y="678" on="0"/>
        <pt x="486" y="678" on="0"/>
        <pt x="530" y="680" on="1"/>
        <pt x="705" y="735" on="0"/>
        <pt x="827" y="735" on="1"/>
        <pt x="871" y="735" on="0"/>
        <pt x="871" y="718" on="1"/>
        <pt x="871" y="657" on="0"/>
        <pt x="510" y="653" on="1"/>
        <pt x="375" y="606" on="0"/>
        <pt x="171" y="477" on="0"/>
      </contour>
    </TTGlyph>
    <TTGlyph name="Eacute" xMin="31" yMin="-30" xMax="871" yMax="829">
      <contour>
        <pt x="594" y="816" on="1"/>
        <pt x="594" y="799" on="0"/>
        <pt x="515" y="757" on="0"/>
        <pt x="473" y="742" on="1"/>
        <pt x="467" y="742" on="0"/>
        <pt x="467" y="757" on="0"/>
        <pt x="502" y="769" on="0"/>
        <pt x="553" y="807" on="0"/>
        <pt x="570" y="829" on="0"/>
        <pt x="594" y="829" on="0"/>
      </contour>
      <contour>
        <pt x="508" y="454" on="0"/>
        <pt x="276" y="421" on="0"/>
        <pt x="171" y="421" on="0"/>
        <pt x="171" y="443" on="1"/>
        <pt x="171" y="477" on="0"/>
        <pt x="375" y="606" on="0"/>
        <pt x="510" y="653" on="1"/>
        <pt x="871" y="657" on="0"/>
        <pt x="871" y="718" on="1"/>
        <pt x="871" y="735" on="0"/>
        <pt x="827" y="735" on="1"/>
        <pt x="705" y="735" on="0"/>
        <pt x="530" y="680" on="1"/>
        <pt x="486" y="678" on="0"/>
        <pt x="398" y="678" on="0"/>
        <pt x="205" y="688" on="0"/>
        <pt x="59" y="699" on="0"/>
        <pt x="53" y="699" on="1"/>
        <pt x="31" y="699" on="0"/>
        <pt x="31" y="686" on="1"/>
        <pt x="31" y="678" on="0"/>
        <pt x="40" y="674" on="1"/>
        <pt x="209" y="655" on="0"/>
        <pt x="453" y="653" on="1"/>
        <pt x="306" y="599" on="0"/>
        <pt x="104" y="460" on="0"/>
        <pt x="104" y="418" on="1"/>
        <pt x="104" y="381" on="0"/>
        <pt x="289" y="381" on="0"/>
        <pt x="522" y="412" on="1"/>
        <pt x="540" y="412" on="0"/>
        <pt x="540" y="404" on="1"/>
        <pt x="540" y="389" on="0"/>
        <pt x="435" y="333" on="0"/>
        <pt x="286" y="263" on="0"/>
        <pt x="136" y="184" on="0"/>
        <pt x="31" y="86" on="0"/>
        <pt x="31" y="41" on="1"/>
        <pt x="31" y="-23" on="0"/>
        <pt x="151" y="-23" on="1"/>
        <pt x="183" y="-23" on="0"/>
        <pt x="423" y="4" on="0"/>
        <pt x="456" y="6" on="1"/>
        <pt x="519" y="6" on="0"/>
        <pt x="572" y="-21" on="1"/>
        <pt x="589" y="-30" on="0"/>
        <pt x="594" y="-30" on="1"/>
        <pt x="603" y="-30" on="0"/>
        <pt x="603" y="-22" on="1"/>
        <pt x="603" y="46" on="0"/>
        <pt x="480" y="46" on="1"/>
        <pt x="411" y="46" on="0"/>
        <pt x="220" y="17" on="0"/>
        <pt x="173" y="17" on="1"/>
        <pt x="88" y="17" on="0"/>
        <pt x="88" y="55" on="1"/>
        <pt x="88" y="101" on="0"/>
        <pt x="192" y="192" on="0"/>
        <pt x="341" y="264" on="0"/>
        <pt x="416" y="297" on="1"/>
        <pt x="595" y="376" on="0"/>
        <pt x="595" y="424" on="1"/>
        <pt x="595" y="454" on="0"/>
        <pt x="542" y="454" on="1"/>
      </contour>
    </TTGlyph>
    <TTGlyph name="Ecircumflex" xMin="31" yMin="-30" xMax="871" yMax="847">
      <contour>
        <pt x="508" y="454" on="0"/>
        <pt x="276" y="421" on="0"/>
        <pt x="171" y="421" on="0"/>
        <pt x="171" y="443" on="1"/>
        <pt x="171" y="477" on="0"/>
        <pt x="375" y="606" on="0"/>
        <pt x="510" y="653" on="1"/>
        <pt x="871" y="657" on="0"/>
        <pt x="871" y="718" on="1"/>
        <pt x="871" y="735" on="0"/>
        <pt x="827" y="735" on="1"/>
        <pt x="705" y="735" on="0"/>
        <pt x="530" y="680" on="1"/>
        <pt x="486" y="678" on="0"/>
        <pt x="398" y="678" on="0"/>
        <pt x="205" y="688" on="0"/>
        <pt x="59" y="699" on="0"/>
        <pt x="53" y="699" on="1"/>
        <pt x="31" y="699" on="0"/>
        <pt x="31" y="686" on="1"/>
        <pt x="31" y="678" on="0"/>
        <pt x="40" y="674" on="1"/>
        <pt x="209" y="655" on="0"/>
        <pt x="453" y="653" on="1"/>
        <pt x="306" y="599" on="0"/>
        <pt x="104" y="460" on="0"/>
        <pt x="104" y="418" on="1"/>
        <pt x="104" y="381" on="0"/>
        <pt x="289" y="381" on="0"/>
        <pt x="522" y="412" on="1"/>
        <pt x="540" y="412" on="0"/>
        <pt x="540" y="404" on="1"/>
        <pt x="540" y="389" on="0"/>
        <pt x="435" y="333" on="0"/>
        <pt x="286" y="263" on="0"/>
        <pt x="136" y="184" on="0"/>
        <pt x="31" y="86" on="0"/>
        <pt x="31" y="41" on="1"/>
        <pt x="31" y="-23" on="0"/>
        <pt x="151" y="-23" on="1"/>
        <pt x="183" y="-23" on="0"/>
        <pt x="423" y="4" on="0"/>
        <pt x="456" y="6" on="1"/>
        <pt x="519" y="6" on="0"/>
        <pt x="572" y="-21" on="1"/>
        <pt x="589" y="-30" on="0"/>
        <pt x="594" y="-30" on="1"/>
        <pt x="603" y="-30" on="0"/>
        <pt x="603" y="-22" on="1"/>
        <pt x="603" y="46" on="0"/>
        <pt x="480" y="46" on="1"/>
        <pt x="411" y="46" on="0"/>
        <pt x="220" y="17" on="0"/>
        <pt x="173" y="17" on="1"/>
        <pt x="88" y="17" on="0"/>
        <pt x="88" y="55" on="1"/>
        <pt x="88" y="101" on="0"/>
        <pt x="192" y="192" on="0"/>
        <pt x="341" y="264" on="0"/>
        <pt x="416" y="297" on="1"/>
        <pt x="595" y="376" on="0"/>
        <pt x="595" y="424" on="1"/>
        <pt x="595" y="454" on="0"/>
        <pt x="542" y="454" on="1"/>
      </contour>
      <contour>
        <pt x="562" y="787" on="0"/>
        <pt x="620" y="827" on="0"/>
        <pt x="635" y="847" on="0"/>
        <pt x="656" y="847" on="0"/>
        <pt x="665" y="838" on="1"/>
        <pt x="668" y="834" on="0"/>
        <pt x="675" y="787" on="0"/>
        <pt x="689" y="766" on="1"/>
        <pt x="691" y="762" on="0"/>
        <pt x="691" y="761" on="1"/>
        <pt x="691" y="756" on="0"/>
        <pt x="679" y="756" on="0"/>
        <pt x="661" y="773" on="0"/>
        <pt x="643" y="811" on="0"/>
        <pt x="643" y="812" on="1"/>
        <pt x="619" y="790" on="0"/>
        <pt x="532" y="760" on="1"/>
        <pt x="526" y="760" on="0"/>
        <pt x="526" y="775" on="0"/>
      </contour>
    </TTGlyph>
    <TTGlyph name="Edieresis" xMin="31" yMin="-30" xMax="871" yMax="825">
      <contour>
        <pt x="508" y="454" on="0"/>
        <pt x="276" y="421" on="0"/>
        <pt x="171" y="421" on="0"/>
        <pt x="171" y="443" on="1"/>
        <pt x="171" y="477" on="0"/>
        <pt x="375" y="606" on="0"/>
        <pt x="510" y="653" on="1"/>
        <pt x="871" y="657" on="0"/>
        <pt x="871" y="718" on="1"/>
        <pt x="871" y="735" on="0"/>
        <pt x="827" y="735" on="1"/>
        <pt x="705" y="735" on="0"/>
        <pt x="530" y="680" on="1"/>
        <pt x="486" y="678" on="0"/>
        <pt x="398" y="678" on="0"/>
        <pt x="205" y="688" on="0"/>
        <pt x="59" y="699" on="0"/>
        <pt x="53" y="699" on="1"/>
        <pt x="31" y="699" on="0"/>
        <pt x="31" y="686" on="1"/>
        <pt x="31" y="678" on="0"/>
        <pt x="40" y="674" on="1"/>
        <pt x="209" y="655" on="0"/>
        <pt x="453" y="653" on="1"/>
        <pt x="306" y="599" on="0"/>
        <pt x="104" y="460" on="0"/>
        <pt x="104" y="418" on="1"/>
        <pt x="104" y="381" on="0"/>
        <pt x="289" y="381" on="0"/>
        <pt x="522" y="412" on="1"/>
        <pt x="540" y="412" on="0"/>
        <pt x="540" y="404" on="1"/>
        <pt x="540" y="389" on="0"/>
        <pt x="435" y="333" on="0"/>
        <pt x="286" y="263" on="0"/>
        <pt x="136" y="184" on="0"/>
        <pt x="31" y="86" on="0"/>
        <pt x="31" y="41" on="1"/>
        <pt x="31" y="-23" on="0"/>
        <pt x="151" y="-23" on="1"/>
        <pt x="183" y="-23" on="0"/>
        <pt x="423" y="4" on="0"/>
        <pt x="456" y="6" on="1"/>
        <pt x="519" y="6" on="0"/>
        <pt x="572" y="-21" on="1"/>
        <pt x="589" y="-30" on="0"/>
        <pt x="594" y="-30" on="1"/>
        <pt x="603" y="-30" on="0"/>
        <pt x="603" y="-22" on="1"/>
        <pt x="603" y="46" on="0"/>
        <pt x="480" y="46" on="1"/>
        <pt x="411" y="46" on="0"/>
        <pt x="220" y="17" on="0"/>
        <pt x="173" y="17" on="1"/>
        <pt x="88" y="17" on="0"/>
        <pt x="88" y="55" on="1"/>
        <pt x="88" y="101" on="0"/>
        <pt x="192" y="192" on="0"/>
        <pt x="341" y="264" on="0"/>
        <pt x="416" y="297" on="1"/>
        <pt x="595" y="376" on="0"/>
        <pt x="595" y="424" on="1"/>
        <pt x="595" y="454" on="0"/>
        <pt x="542" y="454" on="1"/>
      </contour>
      <contour>
        <pt x="502" y="825" on="0"/>
        <pt x="513" y="813" on="0"/>
        <pt x="513" y="791" on="0"/>
        <pt x="483" y="757" on="0"/>
        <pt x="461" y="757" on="0"/>
        <pt x="451" y="770" on="0"/>
        <pt x="451" y="787" on="0"/>
        <pt x="483" y="825" on="0"/>
      </contour>
      <contour>
        <pt x="591" y="825" on="0"/>
        <pt x="602" y="813" on="0"/>
        <pt x="602" y="791" on="0"/>
        <pt x="572" y="757" on="0"/>
        <pt x="550" y="757" on="0"/>
        <pt x="540" y="770" on="0"/>
        <pt x="540" y="787" on="0"/>
        <pt x="572" y="825" on="0"/>
      </contour>
    </TTGlyph>
    <TTGlyph name="Egrave" xMin="31" yMin="-30" xMax="871" yMax="862">
      <contour>
        <pt x="171" y="443" on="1"/>
        <pt x="171" y="421" on="0"/>
        <pt x="276" y="421" on="0"/>
        <pt x="508" y="454" on="0"/>
        <pt x="542" y="454" on="1"/>
        <pt x="595" y="454" on="0"/>
        <pt x="595" y="424" on="1"/>
        <pt x="595" y="376" on="0"/>
        <pt x="416" y="297" on="1"/>
        <pt x="342" y="264" on="0"/>
        <pt x="192" y="192" on="0"/>
        <pt x="88" y="101" on="0"/>
        <pt x="88" y="55" on="1"/>
        <pt x="88" y="17" on="0"/>
        <pt x="173" y="17" on="1"/>
        <pt x="220" y="17" on="0"/>
        <pt x="411" y="46" on="0"/>
        <pt x="480" y="46" on="1"/>
        <pt x="603" y="46" on="0"/>
        <pt x="603" y="-22" on="1"/>
        <pt x="603" y="-30" on="0"/>
        <pt x="594" y="-30" on="1"/>
        <pt x="589" y="-30" on="0"/>
        <pt x="572" y="-21" on="1"/>
        <pt x="519" y="6" on="0"/>
        <pt x="456" y="6" on="1"/>
        <pt x="423" y="4" on="0"/>
        <pt x="183" y="-23" on="0"/>
        <pt x="151" y="-23" on="1"/>
        <pt x="31" y="-23" on="0"/>
        <pt x="31" y="41" on="1"/>
        <pt x="31" y="86" on="0"/>
        <pt x="136" y="184" on="0"/>
        <pt x="286" y="263" on="0"/>
        <pt x="435" y="333" on="0"/>
        <pt x="540" y="389" on="0"/>
        <pt x="540" y="404" on="1"/>
        <pt x="540" y="412" on="0"/>
        <pt x="522" y="412" on="1"/>
        <pt x="290" y="381" on="0"/>
        <pt x="187" y="381" on="1"/>
        <pt x="104" y="381" on="0"/>
        <pt x="104" y="418" on="1"/>
        <pt x="104" y="460" on="0"/>
        <pt x="306" y="599" on="0"/>
        <pt x="453" y="653" on="1"/>
        <pt x="209" y="655" on="0"/>
        <pt x="40" y="674" on="1"/>
        <pt x="31" y="677" on="0"/>
        <pt x="31" y="686" on="1"/>
        <pt x="31" y="699" on="0"/>
        <pt x="53" y="699" on="1"/>
        <pt x="59" y="699" on="0"/>
        <pt x="132" y="694" on="1"/>
        <pt x="338" y="678" on="0"/>
        <pt x="486" y="678" on="0"/>
        <pt x="530" y="680" on="1"/>
        <pt x="705" y="735" on="0"/>
        <pt x="827" y="735" on="1"/>
        <pt x="871" y="735" on="0"/>
        <pt x="871" y="718" on="1"/>
        <pt x="871" y="657" on="0"/>
        <pt x="510" y="653" on="1"/>
        <pt x="375" y="606" on="0"/>
        <pt x="171" y="477" on="0"/>
      </contour>
      <contour>
        <pt x="564" y="849" on="1"/>
        <pt x="564" y="862" on="0"/>
        <pt x="588" y="862" on="0"/>
        <pt x="605" y="840" on="0"/>
        <pt x="656" y="802" on="0"/>
        <pt x="681" y="793" on="1"/>
        <pt x="691" y="790" on="0"/>
        <pt x="691" y="775" on="0"/>
        <pt x="685" y="775" on="1"/>
        <pt x="601" y="805" on="0"/>
        <pt x="574" y="832" on="1"/>
        <pt x="564" y="842" on="0"/>
      </contour>
    </TTGlyph>
    <TTGlyph name="Eth" xMin="0" yMin="-83" xMax="1049" yMax="729">
      <contour>
        <pt x="452" y="382" on="1"/>
        <pt x="483" y="384" on="0"/>
        <pt x="539" y="389" on="1"/>
        <pt x="584" y="513" on="0"/>
        <pt x="805" y="729" on="0"/>
        <pt x="907" y="729" on="1"/>
        <pt x="975" y="729" on="0"/>
        <pt x="975" y="585" on="0"/>
        <pt x="861" y="349" on="0"/>
        <pt x="776" y="233" on="1"/>
        <pt x="837" y="257" on="0"/>
        <pt x="971" y="343" on="0"/>
        <pt x="1014" y="365" on="0"/>
        <pt x="1036" y="365" on="0"/>
        <pt x="1049" y="354" on="0"/>
        <pt x="1049" y="347" on="1"/>
        <pt x="1049" y="333" on="0"/>
        <pt x="984" y="321" on="0"/>
        <pt x="804" y="217" on="0"/>
        <pt x="751" y="200" on="1"/>
        <pt x="679" y="105" on="0"/>
        <pt x="546" y="-13" on="0"/>
        <pt x="504" y="-13" on="1"/>
        <pt x="446" y="-13" on="0"/>
        <pt x="446" y="70" on="1"/>
        <pt x="446" y="93" on="0"/>
        <pt x="456" y="180" on="0"/>
        <pt x="456" y="193" on="1"/>
        <pt x="456" y="271" on="0"/>
        <pt x="409" y="271" on="1"/>
        <pt x="392" y="271" on="0"/>
        <pt x="373" y="265" on="1"/>
        <pt x="315" y="179" on="0"/>
        <pt x="245" y="83" on="0"/>
        <pt x="197" y="26" on="1"/>
        <pt x="105" y="-83" on="0"/>
        <pt x="30" y="-83" on="1"/>
        <pt x="0" y="-83" on="0"/>
        <pt x="0" y="-61" on="1"/>
        <pt x="0" y="-15" on="0"/>
        <pt x="220" y="202" on="0"/>
        <pt x="325" y="262" on="1"/>
        <pt x="366" y="326" on="0"/>
        <pt x="382" y="349" on="1"/>
        <pt x="363" y="350" on="0"/>
        <pt x="242" y="350" on="0"/>
        <pt x="195" y="355" on="0"/>
        <pt x="194" y="368" on="1"/>
        <pt x="194" y="374" on="0"/>
        <pt x="200" y="377" on="0"/>
        <pt x="328" y="377" on="0"/>
        <pt x="403" y="380" on="1"/>
        <pt x="528" y="567" on="0"/>
        <pt x="617" y="659" on="1"/>
        <pt x="684" y="726" on="0"/>
        <pt x="731" y="726" on="1"/>
        <pt x="750" y="726" on="0"/>
        <pt x="750" y="715" on="1"/>
        <pt x="750" y="708" on="0"/>
        <pt x="744" y="705" on="1"/>
        <pt x="730" y="697" on="0"/>
        <pt x="722" y="693" on="1"/>
        <pt x="613" y="619" on="0"/>
      </contour>
      <contour>
        <pt x="698" y="215" on="1"/>
        <pt x="712" y="215" on="0"/>
        <pt x="727" y="218" on="1"/>
        <pt x="814" y="336" on="0"/>
        <pt x="939" y="582" on="0"/>
        <pt x="939" y="707" on="0"/>
        <pt x="887" y="707" on="1"/>
        <pt x="806" y="707" on="0"/>
        <pt x="615" y="503" on="0"/>
        <pt x="582" y="393" on="1"/>
        <pt x="587" y="394" on="0"/>
        <pt x="595" y="394" on="1"/>
        <pt x="616" y="394" on="0"/>
        <pt x="616" y="372" on="1"/>
        <pt x="615" y="356" on="0"/>
        <pt x="572" y="349" on="1"/>
        <pt x="571" y="341" on="0"/>
        <pt x="571" y="325" on="1"/>
        <pt x="571" y="215" on="0"/>
      </contour>
      <contour>
        <pt x="518" y="16" on="1"/>
        <pt x="545" y="16" on="0"/>
        <pt x="645" y="110" on="0"/>
        <pt x="704" y="187" on="1"/>
        <pt x="674" y="182" on="0"/>
        <pt x="648" y="182" on="1"/>
        <pt x="583" y="182" on="0"/>
        <pt x="521" y="243" on="0"/>
        <pt x="521" y="295" on="1"/>
        <pt x="521" y="320" on="0"/>
        <pt x="527" y="345" on="1"/>
        <pt x="499" y="345" on="1"/>
        <pt x="451" y="345" on="0"/>
        <pt x="427" y="346" on="1"/>
        <pt x="391" y="292" on="1"/>
        <pt x="410" y="298" on="0"/>
        <pt x="447" y="298" on="0"/>
        <pt x="476" y="282" on="0"/>
        <pt x="482" y="267" on="1"/>
        <pt x="492" y="242" on="0"/>
        <pt x="492" y="208" on="1"/>
        <pt x="479" y="72" on="1"/>
        <pt x="479" y="16" on="0"/>
      </contour>
      <contour>
        <pt x="61" y="-55" on="1"/>
        <pt x="97" y="-55" on="0"/>
        <pt x="211" y="88" on="0"/>
        <pt x="307" y="234" on="1"/>
        <pt x="219" y="182" on="0"/>
        <pt x="43" y="-3" on="0"/>
        <pt x="43" y="-40" on="1"/>
        <pt x="43" y="-55" on="0"/>
      </contour>
    </TTGlyph>
    <TTGlyph name="Euro" xMin="-26" yMin="-42" xMax="644" yMax="774">
      <contour>
        <pt x="580" y="746" on="1"/>
        <pt x="534" y="746" on="0"/>
        <pt x="384" y="624" on="0"/>
        <pt x="306" y="528" on="1"/>
        <pt x="419" y="585" on="0"/>
        <pt x="596" y="713" on="0"/>
        <pt x="596" y="737" on="1"/>
        <pt x="596" y="746" on="0"/>
      </contour>
      <contour>
        <pt x="280" y="265" on="1"/>
        <pt x="280" y="260" on="0"/>
        <pt x="271" y="260" on="1"/>
        <pt x="203" y="261" on="0"/>
        <pt x="131" y="261" on="1"/>
        <pt x="78" y="152" on="0"/>
        <pt x="78" y="81" on="1"/>
        <pt x="78" y="-18" on="0"/>
        <pt x="185" y="-18" on="1"/>
        <pt x="242" y="-18" on="0"/>
        <pt x="380" y="54" on="0"/>
        <pt x="425" y="89" on="1"/>
        <pt x="435" y="96" on="0"/>
        <pt x="450" y="96" on="0"/>
        <pt x="450" y="88" on="1"/>
        <pt x="450" y="83" on="0"/>
        <pt x="446" y="79" on="1"/>
        <pt x="399" y="45" on="0"/>
        <pt x="326" y="1" on="0"/>
        <pt x="208" y="-42" on="0"/>
        <pt x="154" y="-42" on="1"/>
        <pt x="15" y="-42" on="0"/>
        <pt x="15" y="76" on="1"/>
        <pt x="15" y="152" on="0"/>
        <pt x="71" y="262" on="1"/>
        <pt x="-11" y="262" on="1"/>
        <pt x="-26" y="262" on="0"/>
        <pt x="-26" y="283" on="1"/>
        <pt x="-26" y="289" on="0"/>
        <pt x="-14" y="293" on="0"/>
        <pt x="9" y="293" on="1"/>
        <pt x="88" y="293" on="1"/>
        <pt x="96" y="308" on="0"/>
        <pt x="114" y="338" on="1"/>
        <pt x="28" y="338" on="1"/>
        <pt x="13" y="338" on="0"/>
        <pt x="13" y="359" on="1"/>
        <pt x="13" y="365" on="0"/>
        <pt x="25" y="369" on="0"/>
        <pt x="48" y="369" on="1"/>
        <pt x="134" y="369" on="1"/>
        <pt x="165" y="416" on="0"/>
        <pt x="192" y="449" on="1"/>
        <pt x="101" y="419" on="0"/>
        <pt x="19" y="410" on="1"/>
        <pt x="7" y="412" on="0"/>
        <pt x="7" y="434" on="0"/>
        <pt x="18" y="435" on="1"/>
        <pt x="98" y="436" on="0"/>
        <pt x="225" y="490" on="1"/>
        <pt x="326" y="612" on="0"/>
        <pt x="539" y="774" on="0"/>
        <pt x="611" y="774" on="1"/>
        <pt x="644" y="774" on="0"/>
        <pt x="644" y="754" on="1"/>
        <pt x="644" y="712" on="0"/>
        <pt x="414" y="537" on="0"/>
        <pt x="265" y="476" on="1"/>
        <pt x="227" y="425" on="0"/>
        <pt x="191" y="367" on="1"/>
        <pt x="304" y="363" on="1"/>
        <pt x="319" y="362" on="0"/>
        <pt x="319" y="341" on="1"/>
        <pt x="319" y="336" on="0"/>
        <pt x="310" y="336" on="1"/>
        <pt x="246" y="337" on="0"/>
        <pt x="172" y="337" on="1"/>
        <pt x="163" y="322" on="0"/>
        <pt x="147" y="292" on="1"/>
        <pt x="265" y="287" on="1"/>
        <pt x="280" y="286" on="0"/>
      </contour>
    </TTGlyph>
    <TTGlyph name="F" xMin="-17" yMin="-36" xMax="897" yMax="768">
      <contour>
        <pt x="64" y="42" on="1"/>
        <pt x="55" y="23" on="1"/>
        <pt x="55" y="20" on="0"/>
        <pt x="58" y="20" on="1"/>
        <pt x="109" y="20" on="0"/>
        <pt x="177" y="103" on="1"/>
        <pt x="233" y="171" on="0"/>
        <pt x="314" y="291" on="1"/>
        <pt x="286" y="289" on="0"/>
        <pt x="159" y="289" on="0"/>
        <pt x="115" y="295" on="0"/>
        <pt x="114" y="309" on="1"/>
        <pt x="114" y="315" on="0"/>
        <pt x="120" y="318" on="0"/>
        <pt x="256" y="318" on="0"/>
        <pt x="335" y="321" on="1"/>
        <pt x="490" y="547" on="0"/>
        <pt x="587" y="639" on="1"/>
        <pt x="420" y="612" on="0"/>
        <pt x="227" y="612" on="1"/>
        <pt x="157" y="612" on="0"/>
        <pt x="59" y="617" on="1"/>
        <pt x="51" y="617" on="0"/>
        <pt x="51" y="610" on="1"/>
        <pt x="51" y="608" on="0"/>
        <pt x="53" y="600" on="1"/>
        <pt x="53" y="591" on="0"/>
        <pt x="26" y="591" on="0"/>
        <pt x="-16" y="619" on="0"/>
        <pt x="-17" y="634" on="1"/>
        <pt x="-17" y="662" on="0"/>
        <pt x="19" y="662" on="1"/>
        <pt x="193" y="650" on="0"/>
        <pt x="499" y="650" on="0"/>
        <pt x="620" y="668" on="1"/>
        <pt x="740" y="768" on="0"/>
        <pt x="852" y="768" on="1"/>
        <pt x="897" y="768" on="0"/>
        <pt x="897" y="752" on="1"/>
        <pt x="897" y="724" on="0"/>
        <pt x="776" y="684" on="1"/>
        <pt x="714" y="663" on="0"/>
        <pt x="632" y="647" on="1"/>
        <pt x="560" y="579" on="0"/>
        <pt x="468" y="446" on="1"/>
        <pt x="437" y="403" on="0"/>
        <pt x="385" y="324" on="1"/>
        <pt x="533" y="335" on="1"/>
        <pt x="554" y="335" on="0"/>
        <pt x="554" y="313" on="1"/>
        <pt x="554" y="304" on="0"/>
        <pt x="516" y="287" on="0"/>
        <pt x="478" y="263" on="0"/>
        <pt x="478" y="230" on="0"/>
        <pt x="468" y="230" on="1"/>
        <pt x="422" y="230" on="0"/>
        <pt x="422" y="248" on="1"/>
        <pt x="422" y="268" on="0"/>
        <pt x="447" y="293" on="1"/>
        <pt x="447" y="297" on="0"/>
        <pt x="440" y="297" on="1"/>
        <pt x="381" y="294" on="1"/>
        <pt x="365" y="293" on="1"/>
        <pt x="237" y="96" on="0"/>
        <pt x="165" y="29" on="1"/>
        <pt x="95" y="-36" on="0"/>
        <pt x="40" y="-36" on="1"/>
        <pt x="5" y="-36" on="0"/>
        <pt x="5" y="-8" on="1"/>
        <pt x="5" y="11" on="0"/>
        <pt x="35" y="51" on="0"/>
        <pt x="64" y="51" on="0"/>
      </contour>
      <contour>
        <pt x="818" y="740" on="1"/>
        <pt x="745" y="740" on="0"/>
        <pt x="664" y="675" on="1"/>
        <pt x="775" y="695" on="0"/>
        <pt x="812" y="720" on="1"/>
        <pt x="826" y="730" on="0"/>
        <pt x="826" y="740" on="0"/>
      </contour>
    </TTGlyph>
    <TTGlyph name="G" xMin="0" yMin="-74" xMax="783" yMax="732">
      <contour>
        <pt x="64" y="85" on="1"/>
        <pt x="97" y="59" on="0"/>
        <pt x="161" y="59" on="1"/>
        <pt x="188" y="59" on="0"/>
        <pt x="225" y="64" on="1"/>
        <pt x="260" y="105" on="0"/>
        <pt x="472" y="408" on="0"/>
        <pt x="528" y="462" on="1"/>
        <pt x="532" y="465" on="0"/>
        <pt x="532" y="476" on="0"/>
        <pt x="529" y="476" on="1"/>
        <pt x="462" y="436" on="1"/>
        <pt x="396" y="396" on="0"/>
        <pt x="204" y="316" on="0"/>
        <pt x="131" y="316" on="1"/>
        <pt x="21" y="316" on="0"/>
        <pt x="21" y="385" on="1"/>
        <pt x="21" y="425" on="0"/>
        <pt x="59" y="482" on="1"/>
        <pt x="0" y="485" on="0"/>
        <pt x="0" y="509" on="1"/>
        <pt x="0" y="514" on="0"/>
        <pt x="9" y="524" on="0"/>
        <pt x="15" y="524" on="0"/>
        <pt x="52" y="511" on="0"/>
        <pt x="80" y="510" on="1"/>
        <pt x="148" y="596" on="0"/>
        <pt x="358" y="732" on="0"/>
        <pt x="437" y="732" on="1"/>
        <pt x="482" y="732" on="0"/>
        <pt x="482" y="709" on="1"/>
        <pt x="482" y="680" on="0"/>
        <pt x="358" y="580" on="0"/>
        <pt x="173" y="493" on="0"/>
        <pt x="99" y="484" on="1"/>
        <pt x="77" y="446" on="0"/>
        <pt x="77" y="417" on="1"/>
        <pt x="77" y="354" on="0"/>
        <pt x="185" y="354" on="1"/>
        <pt x="246" y="354" on="0"/>
        <pt x="466" y="451" on="0"/>
        <pt x="578" y="537" on="1"/>
        <pt x="733" y="658" on="0"/>
        <pt x="754" y="681" on="1"/>
        <pt x="760" y="690" on="0"/>
        <pt x="773" y="690" on="0"/>
        <pt x="783" y="680" on="0"/>
        <pt x="783" y="668" on="0"/>
        <pt x="776" y="664" on="1"/>
        <pt x="695" y="599" on="0"/>
        <pt x="535" y="426" on="0"/>
        <pt x="438" y="297" on="0"/>
        <pt x="305" y="111" on="0"/>
        <pt x="278" y="75" on="1"/>
        <pt x="343" y="92" on="0"/>
        <pt x="461" y="143" on="0"/>
        <pt x="473" y="157" on="1"/>
        <pt x="483" y="157" on="0"/>
        <pt x="483" y="146" on="1"/>
        <pt x="483" y="131" on="0"/>
        <pt x="338" y="68" on="0"/>
        <pt x="256" y="47" on="1"/>
        <pt x="158" y="-74" on="0"/>
        <pt x="83" y="-74" on="1"/>
        <pt x="53" y="-74" on="0"/>
        <pt x="24" y="-11" on="0"/>
        <pt x="24" y="62" on="0"/>
        <pt x="37" y="107" on="0"/>
        <pt x="54" y="107" on="0"/>
        <pt x="60" y="101" on="0"/>
        <pt x="63" y="88" on="0"/>
      </contour>
      <contour>
        <pt x="387" y="697" on="1"/>
        <pt x="335" y="697" on="0"/>
        <pt x="170" y="582" on="0"/>
        <pt x="119" y="513" on="1"/>
        <pt x="209" y="527" on="0"/>
        <pt x="418" y="650" on="0"/>
        <pt x="418" y="682" on="1"/>
        <pt x="418" y="697" on="0"/>
      </contour>
      <contour>
        <pt x="102" y="-25" on="1"/>
        <pt x="141" y="-25" on="0"/>
        <pt x="198" y="34" on="1"/>
        <pt x="160" y="28" on="0"/>
        <pt x="76" y="28" on="0"/>
        <pt x="56" y="48" on="1"/>
        <pt x="48" y="47" on="0"/>
        <pt x="48" y="16" on="0"/>
        <pt x="53" y="-5" on="0"/>
        <pt x="78" y="-25" on="0"/>
      </contour>
    </TTGlyph>
    <TTGlyph name="H" xMin="-37" yMin="-146" xMax="1015" yMax="749">
      <contour>
        <pt x="1015" y="732" on="1"/>
        <pt x="1015" y="688" on="0"/>
        <pt x="849" y="546" on="0"/>
        <pt x="696" y="444" on="1"/>
        <pt x="603" y="319" on="0"/>
        <pt x="474" y="91" on="0"/>
        <pt x="474" y="3" on="0"/>
        <pt x="499" y="3" on="1"/>
        <pt x="517" y="3" on="0"/>
        <pt x="580" y="41" on="0"/>
        <pt x="602" y="60" on="1"/>
        <pt x="624" y="79" on="1"/>
        <pt x="630" y="86" on="0"/>
        <pt x="640" y="86" on="0"/>
        <pt x="640" y="82" on="1"/>
        <pt x="640" y="56" on="0"/>
        <pt x="512" y="-20" on="0"/>
        <pt x="480" y="-20" on="1"/>
        <pt x="419" y="-20" on="0"/>
        <pt x="419" y="75" on="0"/>
        <pt x="515" y="265" on="0"/>
        <pt x="591" y="374" on="1"/>
        <pt x="426" y="267" on="0"/>
        <pt x="344" y="212" on="1"/>
        <pt x="238" y="67" on="0"/>
        <pt x="28" y="-146" on="0"/>
        <pt x="-14" y="-146" on="1"/>
        <pt x="-37" y="-146" on="0"/>
        <pt x="-37" y="-129" on="1"/>
        <pt x="-37" y="-73" on="0"/>
        <pt x="134" y="89" on="0"/>
        <pt x="286" y="195" on="1"/>
        <pt x="380" y="329" on="0"/>
        <pt x="507" y="570" on="0"/>
        <pt x="507" y="625" on="1"/>
        <pt x="507" y="688" on="0"/>
        <pt x="444" y="702" on="1"/>
        <pt x="395" y="714" on="0"/>
        <pt x="288" y="714" on="0"/>
        <pt x="225" y="708" on="0"/>
        <pt x="149" y="691" on="0"/>
        <pt x="102" y="653" on="0"/>
        <pt x="102" y="626" on="1"/>
        <pt x="102" y="595" on="0"/>
        <pt x="211" y="559" on="0"/>
        <pt x="346" y="523" on="0"/>
        <pt x="365" y="497" on="1"/>
        <pt x="373" y="488" on="0"/>
        <pt x="376" y="464" on="1"/>
        <pt x="376" y="457" on="0"/>
        <pt x="367" y="457" on="0"/>
        <pt x="363" y="464" on="1"/>
        <pt x="354" y="485" on="0"/>
        <pt x="257" y="518" on="0"/>
        <pt x="152" y="537" on="0"/>
        <pt x="67" y="580" on="0"/>
        <pt x="67" y="644" on="0"/>
        <pt x="109" y="691" on="0"/>
        <pt x="166" y="715" on="0"/>
        <pt x="210" y="722" on="1"/>
        <pt x="276" y="731" on="0"/>
        <pt x="453" y="731" on="0"/>
        <pt x="552" y="673" on="0"/>
        <pt x="552" y="621" on="1"/>
        <pt x="552" y="510" on="0"/>
        <pt x="374" y="255" on="1"/>
        <pt x="422" y="287" on="0"/>
        <pt x="598" y="402" on="0"/>
        <pt x="623" y="419" on="1"/>
        <pt x="726" y="559" on="0"/>
        <pt x="933" y="749" on="0"/>
        <pt x="997" y="749" on="1"/>
        <pt x="1015" y="749" on="0"/>
      </contour>
      <contour>
        <pt x="-2" y="-123" on="1"/>
        <pt x="26" y="-123" on="0"/>
        <pt x="171" y="34" on="0"/>
        <pt x="256" y="152" on="1"/>
        <pt x="-9" y="-34" on="0"/>
        <pt x="-9" y="-114" on="1"/>
        <pt x="-9" y="-123" on="0"/>
      </contour>
      <contour>
        <pt x="973" y="726" on="1"/>
        <pt x="945" y="726" on="0"/>
        <pt x="813" y="595" on="0"/>
        <pt x="733" y="492" on="1"/>
        <pt x="979" y="660" on="0"/>
        <pt x="979" y="720" on="1"/>
        <pt x="979" y="726" on="0"/>
      </contour>
    </TTGlyph>
    <TTGlyph name="I" xMin="0" yMin="-28" xMax="682" yMax="740">
      <contour>
        <pt x="577" y="647" on="1"/>
        <pt x="525" y="596" on="0"/>
        <pt x="353" y="339" on="1"/>
        <pt x="494" y="365" on="0"/>
        <pt x="561" y="365" on="0"/>
        <pt x="633" y="339" on="0"/>
        <pt x="633" y="323" on="1"/>
        <pt x="633" y="317" on="0"/>
        <pt x="622" y="309" on="0"/>
        <pt x="611" y="309" on="0"/>
        <pt x="519" y="337" on="0"/>
        <pt x="434" y="337" on="0"/>
        <pt x="340" y="320" on="1"/>
        <pt x="157" y="52" on="0"/>
        <pt x="98" y="-1" on="1"/>
        <pt x="68" y="-28" on="0"/>
        <pt x="49" y="-28" on="1"/>
        <pt x="32" y="-28" on="0"/>
        <pt x="32" y="-4" on="1"/>
        <pt x="32" y="9" on="0"/>
        <pt x="46" y="47" on="0"/>
        <pt x="58" y="47" on="1"/>
        <pt x="62" y="47" on="0"/>
        <pt x="64" y="30" on="0"/>
        <pt x="66" y="30" on="1"/>
        <pt x="86" y="30" on="0"/>
        <pt x="195" y="173" on="0"/>
        <pt x="290" y="311" on="1"/>
        <pt x="175" y="289" on="0"/>
        <pt x="115" y="289" on="1"/>
        <pt x="0" y="289" on="0"/>
        <pt x="0" y="410" on="0"/>
        <pt x="204" y="597" on="0"/>
        <pt x="496" y="740" on="0"/>
        <pt x="605" y="740" on="1"/>
        <pt x="682" y="740" on="0"/>
        <pt x="682" y="698" on="1"/>
        <pt x="682" y="666" on="0"/>
        <pt x="604" y="588" on="0"/>
        <pt x="581" y="588" on="1"/>
        <pt x="575" y="588" on="0"/>
        <pt x="575" y="603" on="0"/>
        <pt x="579" y="606" on="1"/>
        <pt x="600" y="616" on="0"/>
        <pt x="637" y="660" on="0"/>
        <pt x="637" y="679" on="1"/>
        <pt x="637" y="715" on="0"/>
        <pt x="487" y="715" on="0"/>
        <pt x="241" y="589" on="0"/>
        <pt x="59" y="423" on="0"/>
        <pt x="59" y="316" on="0"/>
        <pt x="164" y="316" on="1"/>
        <pt x="204" y="316" on="0"/>
        <pt x="304" y="332" on="1"/>
        <pt x="411" y="485" on="0"/>
        <pt x="459" y="548" on="1"/>
        <pt x="547" y="662" on="0"/>
        <pt x="580" y="662" on="1"/>
        <pt x="585" y="662" on="0"/>
        <pt x="585" y="659" on="1"/>
      </contour>
    </TTGlyph>
    <TTGlyph name="Iacute" xMin="0" yMin="-28" xMax="729" yMax="863">
      <contour>
        <pt x="577" y="647" on="1"/>
        <pt x="525" y="596" on="0"/>
        <pt x="353" y="339" on="1"/>
        <pt x="494" y="365" on="0"/>
        <pt x="561" y="365" on="0"/>
        <pt x="633" y="339" on="0"/>
        <pt x="633" y="323" on="1"/>
        <pt x="633" y="317" on="0"/>
        <pt x="622" y="309" on="0"/>
        <pt x="611" y="309" on="0"/>
        <pt x="519" y="337" on="0"/>
        <pt x="434" y="337" on="0"/>
        <pt x="340" y="320" on="1"/>
        <pt x="157" y="52" on="0"/>
        <pt x="98" y="-1" on="1"/>
        <pt x="68" y="-28" on="0"/>
        <pt x="49" y="-28" on="1"/>
        <pt x="32" y="-28" on="0"/>
        <pt x="32" y="-4" on="1"/>
        <pt x="32" y="9" on="0"/>
        <pt x="46" y="47" on="0"/>
        <pt x="58" y="47" on="1"/>
        <pt x="62" y="47" on="0"/>
        <pt x="64" y="30" on="0"/>
        <pt x="66" y="30" on="1"/>
        <pt x="86" y="30" on="0"/>
        <pt x="195" y="173" on="0"/>
        <pt x="290" y="311" on="1"/>
        <pt x="175" y="289" on="0"/>
        <pt x="115" y="289" on="1"/>
        <pt x="0" y="289" on="0"/>
        <pt x="0" y="410" on="0"/>
        <pt x="204" y="597" on="0"/>
        <pt x="496" y="740" on="0"/>
        <pt x="605" y="740" on="1"/>
        <pt x="682" y="740" on="0"/>
        <pt x="682" y="698" on="1"/>
        <pt x="682" y="666" on="0"/>
        <pt x="604" y="588" on="0"/>
        <pt x="581" y="588" on="1"/>
        <pt x="575" y="588" on="0"/>
        <pt x="575" y="603" on="0"/>
        <pt x="579" y="606" on="1"/>
        <pt x="600" y="616" on="0"/>
        <pt x="637" y="660" on="0"/>
        <pt x="637" y="679" on="1"/>
        <pt x="637" y="715" on="0"/>
        <pt x="487" y="715" on="0"/>
        <pt x="241" y="589" on="0"/>
        <pt x="59" y="423" on="0"/>
        <pt x="59" y="316" on="0"/>
        <pt x="164" y="316" on="1"/>
        <pt x="204" y="316" on="0"/>
        <pt x="304" y="332" on="1"/>
        <pt x="411" y="485" on="0"/>
        <pt x="459" y="548" on="1"/>
        <pt x="547" y="662" on="0"/>
        <pt x="580" y="662" on="1"/>
        <pt x="585" y="662" on="0"/>
        <pt x="585" y="659" on="1"/>
      </contour>
      <contour>
        <pt x="729" y="850" on="1"/>
        <pt x="729" y="833" on="0"/>
        <pt x="650" y="791" on="0"/>
        <pt x="608" y="776" on="1"/>
        <pt x="602" y="776" on="0"/>
        <pt x="602" y="791" on="0"/>
        <pt x="637" y="803" on="0"/>
        <pt x="688" y="841" on="0"/>
        <pt x="706" y="863" on="0"/>
        <pt x="729" y="863" on="0"/>
      </contour>
    </TTGlyph>
    <TTGlyph name="Icircumflex" xMin="0" yMin="-28" xMax="716" yMax="854">
      <contour>
        <pt x="577" y="647" on="1"/>
        <pt x="525" y="596" on="0"/>
        <pt x="353" y="339" on="1"/>
        <pt x="494" y="365" on="0"/>
        <pt x="561" y="365" on="0"/>
        <pt x="633" y="339" on="0"/>
        <pt x="633" y="323" on="1"/>
        <pt x="633" y="317" on="0"/>
        <pt x="622" y="309" on="0"/>
        <pt x="611" y="309" on="0"/>
        <pt x="519" y="337" on="0"/>
        <pt x="434" y="337" on="0"/>
        <pt x="340" y="320" on="1"/>
        <pt x="157" y="52" on="0"/>
        <pt x="98" y="-1" on="1"/>
        <pt x="68" y="-28" on="0"/>
        <pt x="49" y="-28" on="1"/>
        <pt x="32" y="-28" on="0"/>
        <pt x="32" y="-4" on="1"/>
        <pt x="32" y="9" on="0"/>
        <pt x="46" y="47" on="0"/>
        <pt x="58" y="47" on="1"/>
        <pt x="62" y="47" on="0"/>
        <pt x="64" y="30" on="0"/>
        <pt x="66" y="30" on="1"/>
        <pt x="86" y="30" on="0"/>
        <pt x="195" y="173" on="0"/>
        <pt x="290" y="311" on="1"/>
        <pt x="175" y="289" on="0"/>
        <pt x="115" y="289" on="1"/>
        <pt x="0" y="289" on="0"/>
        <pt x="0" y="410" on="0"/>
        <pt x="204" y="597" on="0"/>
        <pt x="496" y="740" on="0"/>
        <pt x="605" y="740" on="1"/>
        <pt x="682" y="740" on="0"/>
        <pt x="682" y="698" on="1"/>
        <pt x="682" y="666" on="0"/>
        <pt x="604" y="588" on="0"/>
        <pt x="581" y="588" on="1"/>
        <pt x="575" y="588" on="0"/>
        <pt x="575" y="603" on="0"/>
        <pt x="579" y="606" on="1"/>
        <pt x="600" y="616" on="0"/>
        <pt x="637" y="660" on="0"/>
        <pt x="637" y="679" on="1"/>
        <pt x="637" y="715" on="0"/>
        <pt x="487" y="715" on="0"/>
        <pt x="241" y="589" on="0"/>
        <pt x="59" y="423" on="0"/>
        <pt x="59" y="316" on="0"/>
        <pt x="164" y="316" on="1"/>
        <pt x="204" y="316" on="0"/>
        <pt x="304" y="332" on="1"/>
        <pt x="411" y="485" on="0"/>
        <pt x="459" y="548" on="1"/>
        <pt x="547" y="662" on="0"/>
        <pt x="580" y="662" on="1"/>
        <pt x="585" y="662" on="0"/>
        <pt x="585" y="659" on="1"/>
      </contour>
      <contour>
        <pt x="587" y="794" on="0"/>
        <pt x="645" y="834" on="0"/>
        <pt x="660" y="854" on="0"/>
        <pt x="681" y="854" on="0"/>
        <pt x="690" y="845" on="1"/>
        <pt x="693" y="841" on="0"/>
        <pt x="700" y="794" on="0"/>
        <pt x="714" y="773" on="1"/>
        <pt x="716" y="769" on="0"/>
        <pt x="716" y="768" on="1"/>
        <pt x="716" y="763" on="0"/>
        <pt x="704" y="763" on="0"/>
        <pt x="686" y="780" on="0"/>
        <pt x="668" y="818" on="0"/>
        <pt x="668" y="819" on="1"/>
        <pt x="644" y="797" on="0"/>
        <pt x="557" y="767" on="1"/>
        <pt x="551" y="767" on="0"/>
        <pt x="551" y="782" on="0"/>
      </contour>
    </TTGlyph>
    <TTGlyph name="Idieresis" xMin="0" yMin="-28" xMax="695" yMax="836">
      <contour>
        <pt x="577" y="647" on="1"/>
        <pt x="525" y="596" on="0"/>
        <pt x="353" y="339" on="1"/>
        <pt x="494" y="365" on="0"/>
        <pt x="561" y="365" on="0"/>
        <pt x="633" y="339" on="0"/>
        <pt x="633" y="323" on="1"/>
        <pt x="633" y="317" on="0"/>
        <pt x="622" y="309" on="0"/>
        <pt x="611" y="309" on="0"/>
        <pt x="519" y="337" on="0"/>
        <pt x="434" y="337" on="0"/>
        <pt x="340" y="320" on="1"/>
        <pt x="157" y="52" on="0"/>
        <pt x="98" y="-1" on="1"/>
        <pt x="68" y="-28" on="0"/>
        <pt x="49" y="-28" on="1"/>
        <pt x="32" y="-28" on="0"/>
        <pt x="32" y="-4" on="1"/>
        <pt x="32" y="9" on="0"/>
        <pt x="46" y="47" on="0"/>
        <pt x="58" y="47" on="1"/>
        <pt x="62" y="47" on="0"/>
        <pt x="64" y="30" on="0"/>
        <pt x="66" y="30" on="1"/>
        <pt x="86" y="30" on="0"/>
        <pt x="195" y="173" on="0"/>
        <pt x="290" y="311" on="1"/>
        <pt x="175" y="289" on="0"/>
        <pt x="115" y="289" on="1"/>
        <pt x="0" y="289" on="0"/>
        <pt x="0" y="410" on="0"/>
        <pt x="204" y="597" on="0"/>
        <pt x="496" y="740" on="0"/>
        <pt x="605" y="740" on="1"/>
        <pt x="682" y="740" on="0"/>
        <pt x="682" y="698" on="1"/>
        <pt x="682" y="666" on="0"/>
        <pt x="604" y="588" on="0"/>
        <pt x="581" y="588" on="1"/>
        <pt x="575" y="588" on="0"/>
        <pt x="575" y="603" on="0"/>
        <pt x="579" y="606" on="1"/>
        <pt x="600" y="616" on="0"/>
        <pt x="637" y="660" on="0"/>
        <pt x="637" y="679" on="1"/>
        <pt x="637" y="715" on="0"/>
        <pt x="487" y="715" on="0"/>
        <pt x="241" y="589" on="0"/>
        <pt x="59" y="423" on="0"/>
        <pt x="59" y="316" on="0"/>
        <pt x="164" y="316" on="1"/>
        <pt x="204" y="316" on="0"/>
        <pt x="304" y="332" on="1"/>
        <pt x="411" y="485" on="0"/>
        <pt x="459" y="548" on="1"/>
        <pt x="547" y="662" on="0"/>
        <pt x="580" y="662" on="1"/>
        <pt x="585" y="662" on="0"/>
        <pt x="585" y="659" on="1"/>
      </contour>
      <contour>
        <pt x="595" y="836" on="0"/>
        <pt x="606" y="824" on="0"/>
        <pt x="606" y="802" on="0"/>
        <pt x="576" y="768" on="0"/>
        <pt x="554" y="768" on="0"/>
        <pt x="544" y="781" on="0"/>
        <pt x="544" y="798" on="0"/>
        <pt x="576" y="836" on="0"/>
      </contour>
      <contour>
        <pt x="684" y="836" on="0"/>
        <pt x="695" y="824" on="0"/>
        <pt x="695" y="802" on="0"/>
        <pt x="665" y="768" on="0"/>
        <pt x="643" y="768" on="0"/>
        <pt x="633" y="781" on="0"/>
        <pt x="633" y="798" on="0"/>
        <pt x="665" y="836" on="0"/>
      </contour>
    </TTGlyph>
    <TTGlyph name="Igrave" xMin="0" yMin="-28" xMax="687" yMax="858">
      <contour>
        <pt x="577" y="647" on="1"/>
        <pt x="525" y="596" on="0"/>
        <pt x="353" y="339" on="1"/>
        <pt x="494" y="365" on="0"/>
        <pt x="561" y="365" on="0"/>
        <pt x="633" y="339" on="0"/>
        <pt x="633" y="323" on="1"/>
        <pt x="633" y="317" on="0"/>
        <pt x="622" y="309" on="0"/>
        <pt x="611" y="309" on="0"/>
        <pt x="519" y="337" on="0"/>
        <pt x="434" y="337" on="0"/>
        <pt x="340" y="320" on="1"/>
        <pt x="157" y="52" on="0"/>
        <pt x="98" y="-1" on="1"/>
        <pt x="68" y="-28" on="0"/>
        <pt x="49" y="-28" on="1"/>
        <pt x="32" y="-28" on="0"/>
        <pt x="32" y="-4" on="1"/>
        <pt x="32" y="9" on="0"/>
        <pt x="46" y="47" on="0"/>
        <pt x="58" y="47" on="1"/>
        <pt x="62" y="47" on="0"/>
        <pt x="64" y="30" on="0"/>
        <pt x="66" y="30" on="1"/>
        <pt x="86" y="30" on="0"/>
        <pt x="195" y="173" on="0"/>
        <pt x="290" y="311" on="1"/>
        <pt x="175" y="289" on="0"/>
        <pt x="115" y="289" on="1"/>
        <pt x="0" y="289" on="0"/>
        <pt x="0" y="410" on="0"/>
        <pt x="204" y="597" on="0"/>
        <pt x="496" y="740" on="0"/>
        <pt x="605" y="740" on="1"/>
        <pt x="682" y="740" on="0"/>
        <pt x="682" y="698" on="1"/>
        <pt x="682" y="666" on="0"/>
        <pt x="604" y="588" on="0"/>
        <pt x="581" y="588" on="1"/>
        <pt x="575" y="588" on="0"/>
        <pt x="575" y="603" on="0"/>
        <pt x="579" y="606" on="1"/>
        <pt x="600" y="616" on="0"/>
        <pt x="637" y="660" on="0"/>
        <pt x="637" y="679" on="1"/>
        <pt x="637" y="715" on="0"/>
        <pt x="487" y="715" on="0"/>
        <pt x="241" y="589" on="0"/>
        <pt x="59" y="423" on="0"/>
        <pt x="59" y="316" on="0"/>
        <pt x="164" y="316" on="1"/>
        <pt x="204" y="316" on="0"/>
        <pt x="304" y="332" on="1"/>
        <pt x="411" y="485" on="0"/>
        <pt x="459" y="548" on="1"/>
        <pt x="547" y="662" on="0"/>
        <pt x="580" y="662" on="1"/>
        <pt x="585" y="662" on="0"/>
        <pt x="585" y="659" on="1"/>
      </contour>
      <contour>
        <pt x="560" y="845" on="1"/>
        <pt x="560" y="858" on="0"/>
        <pt x="584" y="858" on="0"/>
        <pt x="601" y="836" on="0"/>
        <pt x="652" y="798" on="0"/>
        <pt x="677" y="789" on="1"/>
        <pt x="687" y="786" on="0"/>
        <pt x="687" y="771" on="0"/>
        <pt x="681" y="771" on="1"/>
        <pt x="597" y="801" on="0"/>
        <pt x="570" y="828" on="1"/>
        <pt x="560" y="838" on="0"/>
      </contour>
    </TTGlyph>
    <TTGlyph name="J" xMin="-44" yMin="-384" xMax="916" yMax="772">
      <contour>
        <pt x="281" y="158" on="1"/>
        <pt x="327" y="123" on="0"/>
        <pt x="417" y="123" on="1"/>
        <pt x="421" y="123" on="1"/>
        <pt x="477" y="227" on="0"/>
        <pt x="528" y="315" on="1"/>
        <pt x="375" y="225" on="0"/>
      </contour>
      <contour>
        <pt x="871" y="631" on="1"/>
        <pt x="871" y="665" on="0"/>
        <pt x="825" y="671" on="1"/>
        <pt x="738" y="570" on="0"/>
        <pt x="633" y="405" on="1"/>
        <pt x="750" y="475" on="0"/>
        <pt x="871" y="581" on="0"/>
      </contour>
      <contour>
        <pt x="323" y="449" on="0"/>
        <pt x="238" y="308" on="0"/>
        <pt x="238" y="206" on="0"/>
        <pt x="261" y="177" on="1"/>
        <pt x="355" y="243" on="0"/>
        <pt x="552" y="357" on="1"/>
        <pt x="672" y="563" on="0"/>
        <pt x="769" y="671" on="1"/>
        <pt x="664" y="664" on="0"/>
        <pt x="462" y="574" on="0"/>
      </contour>
      <contour>
        <pt x="410" y="103" on="1"/>
        <pt x="389" y="103" on="1"/>
        <pt x="301" y="103" on="0"/>
        <pt x="247" y="134" on="1"/>
        <pt x="-9" y="-55" on="0"/>
        <pt x="-9" y="-237" on="1"/>
        <pt x="-9" y="-349" on="0"/>
        <pt x="69" y="-349" on="1"/>
        <pt x="106" y="-349" on="0"/>
        <pt x="144" y="-311" on="1"/>
        <pt x="166" y="-290" on="0"/>
        <pt x="201" y="-252" on="0"/>
        <pt x="252" y="-174" on="0"/>
        <pt x="285" y="-121" on="0"/>
        <pt x="345" y="-16" on="0"/>
        <pt x="376" y="42" on="0"/>
      </contour>
      <contour>
        <pt x="895" y="633" on="1"/>
        <pt x="894" y="574" on="0"/>
        <pt x="748" y="448" on="0"/>
        <pt x="606" y="362" on="1"/>
        <pt x="528" y="236" on="0"/>
        <pt x="465" y="126" on="1"/>
        <pt x="562" y="141" on="0"/>
        <pt x="629" y="197" on="1"/>
        <pt x="633" y="200" on="0"/>
        <pt x="643" y="200" on="0"/>
        <pt x="643" y="189" on="0"/>
        <pt x="599" y="156" on="0"/>
        <pt x="506" y="116" on="0"/>
        <pt x="455" y="108" on="1"/>
        <pt x="296" y="-162" on="0"/>
        <pt x="236" y="-238" on="1"/>
        <pt x="155" y="-341" on="0"/>
        <pt x="106" y="-368" on="1"/>
        <pt x="76" y="-384" on="0"/>
        <pt x="48" y="-384" on="1"/>
        <pt x="5" y="-384" on="0"/>
        <pt x="-44" y="-308" on="0"/>
        <pt x="-44" y="-260" on="1"/>
        <pt x="-44" y="-50" on="0"/>
        <pt x="225" y="151" on="1"/>
        <pt x="186" y="186" on="0"/>
        <pt x="186" y="307" on="0"/>
        <pt x="279" y="456" on="0"/>
        <pt x="434" y="588" on="0"/>
        <pt x="663" y="682" on="0"/>
        <pt x="785" y="689" on="1"/>
        <pt x="832" y="738" on="0"/>
        <pt x="867" y="764" on="1"/>
        <pt x="879" y="772" on="0"/>
        <pt x="916" y="772" on="0"/>
        <pt x="916" y="762" on="1"/>
        <pt x="916" y="757" on="0"/>
        <pt x="888" y="737" on="0"/>
        <pt x="881" y="731" on="1"/>
        <pt x="840" y="688" on="1"/>
        <pt x="863" y="683" on="0"/>
        <pt x="895" y="651" on="0"/>
      </contour>
    </TTGlyph>
    <TTGlyph name="K" xMin="-34" yMin="-48" xMax="1057" yMax="810">
      <contour>
        <pt x="608" y="498" on="1"/>
        <pt x="608" y="493" on="0"/>
        <pt x="606" y="479" on="1"/>
        <pt x="635" y="505" on="0"/>
        <pt x="754" y="616" on="0"/>
        <pt x="835" y="688" on="0"/>
        <pt x="885" y="728" on="1"/>
        <pt x="986" y="810" on="0"/>
        <pt x="1043" y="810" on="1"/>
        <pt x="1057" y="810" on="0"/>
        <pt x="1057" y="801" on="1"/>
        <pt x="1056" y="781" on="0"/>
        <pt x="1022" y="750" on="0"/>
        <pt x="979" y="741" on="0"/>
        <pt x="909" y="702" on="0"/>
        <pt x="816" y="632" on="0"/>
        <pt x="742" y="572" on="0"/>
        <pt x="628" y="477" on="0"/>
        <pt x="601" y="455" on="1"/>
        <pt x="594" y="426" on="0"/>
        <pt x="491" y="104" on="0"/>
        <pt x="491" y="60" on="1"/>
        <pt x="491" y="5" on="0"/>
        <pt x="545" y="5" on="1"/>
        <pt x="576" y="5" on="0"/>
        <pt x="633" y="28" on="0"/>
        <pt x="666" y="52" on="0"/>
        <pt x="672" y="52" on="0"/>
        <pt x="672" y="48" on="1"/>
        <pt x="672" y="25" on="0"/>
        <pt x="556" y="-25" on="0"/>
        <pt x="523" y="-25" on="1"/>
        <pt x="454" y="-25" on="0"/>
        <pt x="454" y="47" on="1"/>
        <pt x="454" y="115" on="0"/>
        <pt x="492" y="232" on="1"/>
        <pt x="505" y="272" on="0"/>
        <pt x="550" y="402" on="0"/>
        <pt x="555" y="418" on="1"/>
        <pt x="476" y="357" on="0"/>
        <pt x="418" y="357" on="0"/>
        <pt x="418" y="379" on="1"/>
        <pt x="418" y="414" on="0"/>
        <pt x="544" y="528" on="0"/>
        <pt x="586" y="528" on="1"/>
        <pt x="608" y="528" on="0"/>
      </contour>
      <contour>
        <pt x="47" y="44" on="0"/>
        <pt x="58" y="47" on="0"/>
        <pt x="74" y="47" on="0"/>
        <pt x="78" y="32" on="0"/>
        <pt x="80" y="32" on="1"/>
        <pt x="124" y="64" on="0"/>
        <pt x="290" y="281" on="0"/>
        <pt x="434" y="542" on="0"/>
        <pt x="434" y="609" on="1"/>
        <pt x="432" y="656" on="0"/>
        <pt x="400" y="680" on="1"/>
        <pt x="372" y="700" on="0"/>
        <pt x="135" y="700" on="0"/>
        <pt x="-4" y="653" on="0"/>
        <pt x="-4" y="615" on="1"/>
        <pt x="-4" y="591" on="0"/>
        <pt x="65" y="562" on="0"/>
        <pt x="100" y="557" on="1"/>
        <pt x="114" y="553" on="0"/>
        <pt x="175" y="547" on="0"/>
        <pt x="225" y="539" on="0"/>
        <pt x="250" y="532" on="1"/>
        <pt x="306" y="515" on="0"/>
        <pt x="306" y="468" on="1"/>
        <pt x="302" y="462" on="1"/>
        <pt x="285" y="485" on="0"/>
        <pt x="255" y="496" on="0"/>
        <pt x="244" y="500" on="0"/>
        <pt x="214" y="505" on="0"/>
        <pt x="207" y="506" on="1"/>
        <pt x="186" y="509" on="0"/>
        <pt x="150" y="513" on="1"/>
        <pt x="-34" y="536" on="0"/>
        <pt x="-34" y="604" on="1"/>
        <pt x="-34" y="639" on="0"/>
        <pt x="37" y="689" on="0"/>
        <pt x="92" y="700" on="1"/>
        <pt x="188" y="719" on="0"/>
        <pt x="281" y="719" on="1"/>
        <pt x="390" y="719" on="0"/>
        <pt x="432" y="693" on="1"/>
        <pt x="449" y="682" on="0"/>
        <pt x="474" y="637" on="0"/>
        <pt x="474" y="606" on="1"/>
        <pt x="474" y="547" on="0"/>
        <pt x="282" y="225" on="0"/>
        <pt x="63" y="-48" on="0"/>
        <pt x="29" y="-48" on="1"/>
        <pt x="12" y="-48" on="0"/>
        <pt x="12" y="-31" on="1"/>
        <pt x="12" y="-24" on="0"/>
        <pt x="20" y="-7" on="0"/>
        <pt x="33" y="22" on="0"/>
        <pt x="38" y="31" on="0"/>
      </contour>
      <contour>
        <pt x="457" y="382" on="1"/>
        <pt x="489" y="382" on="0"/>
        <pt x="562" y="442" on="1"/>
        <pt x="569" y="463" on="0"/>
        <pt x="569" y="475" on="1"/>
        <pt x="569" y="496" on="0"/>
        <pt x="551" y="496" on="1"/>
        <pt x="528" y="496" on="0"/>
        <pt x="446" y="412" on="0"/>
        <pt x="446" y="391" on="1"/>
        <pt x="446" y="382" on="0"/>
      </contour>
    </TTGlyph>
    <TTGlyph name="L" xMin="0" yMin="-80" xMax="925" yMax="742">
      <contour>
        <pt x="0" y="-53" on="1"/>
        <pt x="0" y="-4" on="0"/>
        <pt x="178" y="156" on="0"/>
        <pt x="272" y="172" on="1"/>
        <pt x="291" y="196" on="0"/>
        <pt x="377" y="310" on="0"/>
        <pt x="404" y="344" on="1"/>
        <pt x="489" y="456" on="0"/>
        <pt x="540" y="513" on="1"/>
        <pt x="336" y="459" on="0"/>
        <pt x="123" y="459" on="1"/>
        <pt x="79" y="459" on="0"/>
        <pt x="79" y="472" on="1"/>
        <pt x="79" y="479" on="0"/>
        <pt x="103" y="495" on="0"/>
        <pt x="114" y="495" on="1"/>
        <pt x="168" y="488" on="0"/>
        <pt x="217" y="488" on="1"/>
        <pt x="378" y="488" on="0"/>
        <pt x="567" y="544" on="1"/>
        <pt x="748" y="742" on="0"/>
        <pt x="873" y="742" on="1"/>
        <pt x="925" y="742" on="0"/>
        <pt x="925" y="718" on="1"/>
        <pt x="925" y="685" on="0"/>
        <pt x="739" y="573" on="0"/>
        <pt x="596" y="529" on="1"/>
        <pt x="544" y="467" on="0"/>
        <pt x="348" y="203" on="0"/>
        <pt x="325" y="174" on="1"/>
        <pt x="417" y="170" on="0"/>
        <pt x="484" y="112" on="1"/>
        <pt x="512" y="89" on="0"/>
        <pt x="538" y="66" on="1"/>
        <pt x="602" y="11" on="0"/>
        <pt x="674" y="11" on="1"/>
        <pt x="708" y="11" on="0"/>
        <pt x="789" y="54" on="0"/>
        <pt x="800" y="54" on="0"/>
        <pt x="800" y="49" on="1"/>
        <pt x="800" y="31" on="0"/>
        <pt x="698" y="-12" on="0"/>
        <pt x="598" y="-12" on="0"/>
        <pt x="518" y="21" on="0"/>
        <pt x="465" y="69" on="0"/>
        <pt x="440" y="93" on="1"/>
        <pt x="381" y="152" on="0"/>
        <pt x="312" y="157" on="1"/>
        <pt x="223" y="44" on="0"/>
        <pt x="87" y="-80" on="0"/>
        <pt x="34" y="-80" on="1"/>
        <pt x="0" y="-80" on="0"/>
      </contour>
      <contour>
        <pt x="41" y="-53" on="1"/>
        <pt x="76" y="-53" on="0"/>
        <pt x="182" y="53" on="0"/>
        <pt x="258" y="153" on="1"/>
        <pt x="180" y="135" on="0"/>
        <pt x="23" y="-4" on="0"/>
        <pt x="23" y="-39" on="1"/>
        <pt x="23" y="-53" on="0"/>
      </contour>
      <contour>
        <pt x="855" y="724" on="1"/>
        <pt x="766" y="724" on="0"/>
        <pt x="624" y="563" on="1"/>
        <pt x="736" y="601" on="0"/>
        <pt x="889" y="687" on="0"/>
        <pt x="889" y="710" on="1"/>
        <pt x="889" y="724" on="0"/>
      </contour>
    </TTGlyph>
    <TTGlyph name="Lslash" xMin="0" yMin="-80" xMax="925" yMax="742">
      <contour>
        <pt x="375" y="309" on="1"/>
        <pt x="331" y="310" on="1"/>
        <pt x="239" y="310" on="0"/>
        <pt x="192" y="315" on="0"/>
        <pt x="191" y="328" on="1"/>
        <pt x="191" y="334" on="0"/>
        <pt x="197" y="337" on="0"/>
        <pt x="326" y="337" on="0"/>
        <pt x="399" y="340" on="1"/>
        <pt x="483" y="447" on="0"/>
        <pt x="540" y="513" on="1"/>
        <pt x="336" y="459" on="0"/>
        <pt x="123" y="459" on="1"/>
        <pt x="79" y="459" on="0"/>
        <pt x="79" y="472" on="1"/>
        <pt x="79" y="479" on="0"/>
        <pt x="103" y="495" on="0"/>
        <pt x="114" y="495" on="1"/>
        <pt x="168" y="488" on="0"/>
        <pt x="217" y="488" on="1"/>
        <pt x="378" y="488" on="0"/>
        <pt x="567" y="544" on="1"/>
        <pt x="748" y="742" on="0"/>
        <pt x="873" y="742" on="1"/>
        <pt x="925" y="742" on="0"/>
        <pt x="925" y="718" on="1"/>
        <pt x="925" y="685" on="0"/>
        <pt x="739" y="573" on="0"/>
        <pt x="596" y="529" on="1"/>
        <pt x="544" y="467" on="0"/>
        <pt x="451" y="342" on="1"/>
        <pt x="515" y="345" on="0"/>
        <pt x="586" y="354" on="0"/>
        <pt x="592" y="354" on="1"/>
        <pt x="613" y="354" on="0"/>
        <pt x="613" y="332" on="1"/>
        <pt x="611" y="305" on="0"/>
        <pt x="496" y="305" on="1"/>
        <pt x="448" y="305" on="0"/>
        <pt x="425" y="306" on="1"/>
        <pt x="332" y="183" on="0"/>
        <pt x="325" y="174" on="1"/>
        <pt x="417" y="170" on="0"/>
        <pt x="484" y="112" on="1"/>
        <pt x="512" y="89" on="0"/>
        <pt x="538" y="66" on="1"/>
        <pt x="602" y="11" on="0"/>
        <pt x="674" y="11" on="1"/>
        <pt x="708" y="11" on="0"/>
        <pt x="789" y="54" on="0"/>
        <pt x="800" y="54" on="0"/>
        <pt x="800" y="49" on="1"/>
        <pt x="800" y="31" on="0"/>
        <pt x="698" y="-12" on="0"/>
        <pt x="598" y="-12" on="0"/>
        <pt x="518" y="21" on="0"/>
        <pt x="465" y="69" on="0"/>
        <pt x="440" y="93" on="1"/>
        <pt x="381" y="152" on="0"/>
        <pt x="312" y="157" on="1"/>
        <pt x="223" y="44" on="0"/>
        <pt x="87" y="-80" on="0"/>
        <pt x="34" y="-80" on="1"/>
        <pt x="0" y="-80" on="0"/>
        <pt x="0" y="-53" on="1"/>
        <pt x="0" y="-4" on="0"/>
        <pt x="178" y="156" on="0"/>
        <pt x="272" y="172" on="1"/>
      </contour>
      <contour>
        <pt x="41" y="-53" on="1"/>
        <pt x="76" y="-53" on="0"/>
        <pt x="182" y="53" on="0"/>
        <pt x="258" y="153" on="1"/>
        <pt x="180" y="135" on="0"/>
        <pt x="23" y="-4" on="0"/>
        <pt x="23" y="-39" on="1"/>
        <pt x="23" y="-53" on="0"/>
      </contour>
      <contour>
        <pt x="855" y="724" on="1"/>
        <pt x="766" y="724" on="0"/>
        <pt x="624" y="563" on="1"/>
        <pt x="736" y="601" on="0"/>
        <pt x="889" y="687" on="0"/>
        <pt x="889" y="710" on="1"/>
        <pt x="889" y="724" on="0"/>
      </contour>
    </TTGlyph>
    <TTGlyph name="M" xMin="1" yMin="-28" xMax="837" yMax="717">
      <contour>
        <pt x="54" y="-16" on="1"/>
        <pt x="34" y="-16" on="0"/>
        <pt x="34" y="4" on="1"/>
        <pt x="34" y="58" on="0"/>
        <pt x="277" y="360" on="0"/>
        <pt x="409" y="469" on="1"/>
        <pt x="457" y="570" on="0"/>
        <pt x="457" y="626" on="1"/>
        <pt x="457" y="693" on="0"/>
        <pt x="390" y="693" on="1"/>
        <pt x="327" y="693" on="0"/>
        <pt x="156" y="567" on="0"/>
        <pt x="38" y="412" on="0"/>
        <pt x="38" y="368" on="1"/>
        <pt x="38" y="336" on="0"/>
        <pt x="75" y="336" on="1"/>
        <pt x="128" y="336" on="0"/>
        <pt x="253" y="444" on="0"/>
        <pt x="284" y="495" on="1"/>
        <pt x="295" y="513" on="0"/>
        <pt x="309" y="513" on="0"/>
        <pt x="309" y="499" on="0"/>
        <pt x="305" y="494" on="1"/>
        <pt x="271" y="443" on="0"/>
        <pt x="123" y="311" on="0"/>
        <pt x="1" y="311" on="0"/>
        <pt x="1" y="356" on="1"/>
        <pt x="1" y="395" on="0"/>
        <pt x="85" y="519" on="0"/>
        <pt x="206" y="634" on="0"/>
        <pt x="357" y="717" on="0"/>
        <pt x="416" y="717" on="1"/>
        <pt x="493" y="717" on="0"/>
        <pt x="493" y="641" on="1"/>
        <pt x="493" y="591" on="0"/>
        <pt x="457" y="506" on="1"/>
        <pt x="556" y="579" on="0"/>
        <pt x="616" y="579" on="1"/>
        <pt x="652" y="579" on="0"/>
        <pt x="652" y="503" on="0"/>
        <pt x="518" y="284" on="0"/>
        <pt x="451" y="196" on="1"/>
        <pt x="384" y="107" on="1"/>
        <pt x="384" y="105" on="0"/>
        <pt x="385" y="105" on="1"/>
        <pt x="423" y="131" on="0"/>
        <pt x="614" y="307" on="0"/>
        <pt x="775" y="435" on="0"/>
        <pt x="814" y="435" on="1"/>
        <pt x="837" y="435" on="0"/>
        <pt x="837" y="389" on="0"/>
        <pt x="717" y="229" on="0"/>
        <pt x="597" y="61" on="0"/>
        <pt x="597" y="-3" on="0"/>
        <pt x="624" y="-3" on="1"/>
        <pt x="655" y="-3" on="0"/>
        <pt x="755" y="60" on="0"/>
        <pt x="795" y="98" on="0"/>
        <pt x="805" y="98" on="0"/>
        <pt x="805" y="94" on="1"/>
        <pt x="805" y="82" on="0"/>
        <pt x="738" y="24" on="0"/>
        <pt x="637" y="-28" on="0"/>
        <pt x="601" y="-28" on="1"/>
        <pt x="553" y="-28" on="0"/>
        <pt x="553" y="51" on="0"/>
        <pt x="620" y="165" on="0"/>
        <pt x="660" y="214" on="1"/>
        <pt x="774" y="350" on="0"/>
        <pt x="787" y="394" on="1"/>
        <pt x="787" y="405" on="0"/>
        <pt x="777" y="405" on="1"/>
        <pt x="753" y="405" on="0"/>
        <pt x="505" y="189" on="0"/>
        <pt x="389" y="77" on="0"/>
        <pt x="349" y="37" on="0"/>
        <pt x="327" y="13" on="0"/>
        <pt x="316" y="3" on="1"/>
        <pt x="295" y="-16" on="0"/>
        <pt x="288" y="-16" on="1"/>
        <pt x="287" y="-16" on="0"/>
        <pt x="286" y="-15" on="1"/>
        <pt x="277" y="-11" on="0"/>
        <pt x="277" y="-1" on="1"/>
        <pt x="277" y="24" on="0"/>
        <pt x="341" y="104" on="1"/>
        <pt x="454" y="244" on="0"/>
        <pt x="613" y="496" on="0"/>
        <pt x="613" y="538" on="1"/>
        <pt x="613" y="554" on="0"/>
        <pt x="593" y="554" on="1"/>
        <pt x="544" y="554" on="0"/>
        <pt x="439" y="466" on="1"/>
        <pt x="363" y="310" on="0"/>
        <pt x="99" y="-16" on="0"/>
      </contour>
      <contour>
        <pt x="76" y="10" on="1"/>
        <pt x="102" y="10" on="0"/>
        <pt x="312" y="283" on="0"/>
        <pt x="384" y="418" on="1"/>
        <pt x="270" y="313" on="0"/>
        <pt x="65" y="58" on="0"/>
        <pt x="65" y="21" on="1"/>
        <pt x="65" y="10" on="0"/>
      </contour>
    </TTGlyph>
    <TTGlyph name="N" xMin="1" yMin="-32" xMax="727" yMax="702">
      <contour>
        <pt x="270" y="379" on="1"/>
        <pt x="263" y="379" on="0"/>
        <pt x="256" y="391" on="0"/>
        <pt x="255" y="392" on="1"/>
        <pt x="244" y="381" on="0"/>
        <pt x="205" y="347" on="0"/>
        <pt x="105" y="291" on="0"/>
        <pt x="66" y="291" on="1"/>
        <pt x="1" y="291" on="0"/>
        <pt x="1" y="341" on="1"/>
        <pt x="1" y="395" on="0"/>
        <pt x="139" y="567" on="0"/>
        <pt x="344" y="702" on="0"/>
        <pt x="425" y="702" on="1"/>
        <pt x="472" y="702" on="0"/>
        <pt x="521" y="646" on="0"/>
        <pt x="521" y="557" on="0"/>
        <pt x="482" y="474" on="1"/>
        <pt x="638" y="590" on="0"/>
        <pt x="699" y="590" on="1"/>
        <pt x="711" y="590" on="0"/>
        <pt x="727" y="576" on="0"/>
        <pt x="727" y="564" on="1"/>
        <pt x="727" y="544" on="0"/>
        <pt x="564" y="326" on="0"/>
        <pt x="400" y="88" on="0"/>
        <pt x="400" y="43" on="1"/>
        <pt x="400" y="15" on="0"/>
        <pt x="431" y="15" on="1"/>
        <pt x="478" y="15" on="0"/>
        <pt x="564" y="101" on="1"/>
        <pt x="577" y="114" on="0"/>
        <pt x="586" y="114" on="1"/>
        <pt x="592" y="114" on="0"/>
        <pt x="592" y="97" on="0"/>
        <pt x="528" y="40" on="0"/>
        <pt x="433" y="-14" on="0"/>
        <pt x="398" y="-14" on="1"/>
        <pt x="351" y="-14" on="0"/>
        <pt x="351" y="65" on="0"/>
        <pt x="450" y="230" on="0"/>
        <pt x="510" y="308" on="1"/>
        <pt x="669" y="513" on="0"/>
        <pt x="669" y="547" on="1"/>
        <pt x="669" y="553" on="0"/>
        <pt x="662" y="553" on="1"/>
        <pt x="605" y="553" on="0"/>
        <pt x="468" y="445" on="1"/>
        <pt x="391" y="294" on="0"/>
        <pt x="126" y="-32" on="0"/>
        <pt x="80" y="-32" on="1"/>
        <pt x="55" y="-32" on="0"/>
        <pt x="55" y="-11" on="1"/>
        <pt x="55" y="54" on="0"/>
        <pt x="279" y="311" on="0"/>
        <pt x="425" y="429" on="1"/>
        <pt x="480" y="539" on="0"/>
        <pt x="480" y="601" on="1"/>
        <pt x="480" y="677" on="0"/>
        <pt x="399" y="677" on="1"/>
        <pt x="337" y="677" on="0"/>
        <pt x="162" y="556" on="0"/>
        <pt x="38" y="402" on="0"/>
        <pt x="38" y="357" on="1"/>
        <pt x="38" y="319" on="0"/>
        <pt x="88" y="319" on="1"/>
        <pt x="122" y="319" on="0"/>
        <pt x="248" y="401" on="0"/>
        <pt x="257" y="417" on="1"/>
        <pt x="300" y="493" on="0"/>
        <pt x="306" y="501" on="1"/>
        <pt x="327" y="534" on="0"/>
        <pt x="340" y="534" on="1"/>
        <pt x="345" y="534" on="0"/>
        <pt x="347" y="520" on="0"/>
        <pt x="342" y="507" on="0"/>
        <pt x="330" y="488" on="0"/>
        <pt x="320" y="473" on="0"/>
        <pt x="303" y="449" on="0"/>
        <pt x="290" y="431" on="0"/>
        <pt x="286" y="423" on="1"/>
        <pt x="280" y="411" on="0"/>
        <pt x="280" y="379" on="0"/>
      </contour>
      <contour>
        <pt x="93" y="-8" on="1"/>
        <pt x="120" y="-7" on="0"/>
        <pt x="335" y="260" on="0"/>
        <pt x="407" y="394" on="1"/>
        <pt x="281" y="286" on="0"/>
        <pt x="89" y="54" on="0"/>
        <pt x="89" y="-1" on="1"/>
        <pt x="89" y="-8" on="0"/>
      </contour>
    </TTGlyph>
    <TTGlyph name="Ntilde" xMin="1" yMin="-32" xMax="764" yMax="737">
      <contour>
        <pt x="270" y="379" on="1"/>
        <pt x="263" y="379" on="0"/>
        <pt x="256" y="391" on="0"/>
        <pt x="255" y="392" on="1"/>
        <pt x="244" y="381" on="0"/>
        <pt x="205" y="347" on="0"/>
        <pt x="105" y="291" on="0"/>
        <pt x="66" y="291" on="1"/>
        <pt x="1" y="291" on="0"/>
        <pt x="1" y="341" on="1"/>
        <pt x="1" y="395" on="0"/>
        <pt x="139" y="567" on="0"/>
        <pt x="344" y="702" on="0"/>
        <pt x="425" y="702" on="1"/>
        <pt x="472" y="702" on="0"/>
        <pt x="521" y="646" on="0"/>
        <pt x="521" y="557" on="0"/>
        <pt x="482" y="474" on="1"/>
        <pt x="638" y="590" on="0"/>
        <pt x="699" y="590" on="1"/>
        <pt x="711" y="590" on="0"/>
        <pt x="727" y="576" on="0"/>
        <pt x="727" y="564" on="1"/>
        <pt x="727" y="544" on="0"/>
        <pt x="564" y="326" on="0"/>
        <pt x="400" y="88" on="0"/>
        <pt x="400" y="43" on="1"/>
        <pt x="400" y="15" on="0"/>
        <pt x="431" y="15" on="1"/>
        <pt x="478" y="15" on="0"/>
        <pt x="564" y="101" on="1"/>
        <pt x="577" y="114" on="0"/>
        <pt x="586" y="114" on="1"/>
        <pt x="592" y="114" on="0"/>
        <pt x="592" y="97" on="0"/>
        <pt x="528" y="40" on="0"/>
        <pt x="433" y="-14" on="0"/>
        <pt x="398" y="-14" on="1"/>
        <pt x="351" y="-14" on="0"/>
        <pt x="351" y="65" on="0"/>
        <pt x="450" y="230" on="0"/>
        <pt x="510" y="308" on="1"/>
        <pt x="669" y="513" on="0"/>
        <pt x="669" y="547" on="1"/>
        <pt x="669" y="553" on="0"/>
        <pt x="662" y="553" on="1"/>
        <pt x="605" y="553" on="0"/>
        <pt x="468" y="445" on="1"/>
        <pt x="391" y="294" on="0"/>
        <pt x="126" y="-32" on="0"/>
        <pt x="80" y="-32" on="1"/>
        <pt x="55" y="-32" on="0"/>
        <pt x="55" y="-11" on="1"/>
        <pt x="55" y="54" on="0"/>
        <pt x="279" y="311" on="0"/>
        <pt x="425" y="429" on="1"/>
        <pt x="480" y="539" on="0"/>
        <pt x="480" y="601" on="1"/>
        <pt x="480" y="677" on="0"/>
        <pt x="399" y="677" on="1"/>
        <pt x="337" y="677" on="0"/>
        <pt x="162" y="556" on="0"/>
        <pt x="38" y="402" on="0"/>
        <pt x="38" y="357" on="1"/>
        <pt x="38" y="319" on="0"/>
        <pt x="88" y="319" on="1"/>
        <pt x="122" y="319" on="0"/>
        <pt x="248" y="401" on="0"/>
        <pt x="257" y="417" on="1"/>
        <pt x="300" y="493" on="0"/>
        <pt x="306" y="501" on="1"/>
        <pt x="327" y="534" on="0"/>
        <pt x="340" y="534" on="1"/>
        <pt x="345" y="534" on="0"/>
        <pt x="347" y="520" on="0"/>
        <pt x="342" y="507" on="0"/>
        <pt x="330" y="488" on="0"/>
        <pt x="320" y="473" on="0"/>
        <pt x="303" y="449" on="0"/>
        <pt x="290" y="431" on="0"/>
        <pt x="286" y="423" on="1"/>
        <pt x="280" y="411" on="0"/>
        <pt x="280" y="379" on="0"/>
      </contour>
      <contour>
        <pt x="93" y="-8" on="1"/>
        <pt x="120" y="-7" on="0"/>
        <pt x="335" y="260" on="0"/>
        <pt x="407" y="394" on="1"/>
        <pt x="281" y="286" on="0"/>
        <pt x="89" y="54" on="0"/>
        <pt x="89" y="-1" on="1"/>
        <pt x="89" y="-8" on="0"/>
      </contour>
      <contour>
        <pt x="712" y="691" on="1"/>
        <pt x="618" y="681" on="1"/>
        <pt x="596" y="681" on="0"/>
        <pt x="562" y="708" on="0"/>
        <pt x="555" y="732" on="1"/>
        <pt x="555" y="737" on="0"/>
        <pt x="564" y="737" on="0"/>
        <pt x="567" y="731" on="1"/>
        <pt x="582" y="707" on="0"/>
        <pt x="616" y="707" on="1"/>
        <pt x="616" y="707" on="0"/>
        <pt x="700" y="716" on="1"/>
        <pt x="725" y="716" on="0"/>
        <pt x="764" y="694" on="0"/>
        <pt x="764" y="671" on="1"/>
        <pt x="764" y="665" on="0"/>
        <pt x="755" y="665" on="0"/>
        <pt x="752" y="671" on="1"/>
        <pt x="739" y="691" on="0"/>
      </contour>
    </TTGlyph>
    <TTGlyph name="O" xMin="1" yMin="-15" xMax="647" yMax="750">
      <contour>
        <pt x="573" y="750" on="0"/>
        <pt x="608" y="718" on="0"/>
        <pt x="608" y="668" on="0"/>
        <pt x="596" y="648" on="1"/>
        <pt x="647" y="623" on="0"/>
        <pt x="647" y="551" on="1"/>
        <pt x="647" y="454" on="0"/>
        <pt x="482" y="179" on="0"/>
        <pt x="366" y="86" on="1"/>
        <pt x="408" y="88" on="0"/>
        <pt x="499" y="124" on="0"/>
        <pt x="555" y="158" on="0"/>
        <pt x="562" y="158" on="0"/>
        <pt x="562" y="150" on="1"/>
        <pt x="562" y="130" on="0"/>
        <pt x="410" y="69" on="0"/>
        <pt x="351" y="69" on="1"/>
        <pt x="344" y="69" on="1"/>
        <pt x="230" y="-15" on="0"/>
        <pt x="131" y="-15" on="1"/>
        <pt x="65" y="-15" on="0"/>
        <pt x="1" y="58" on="0"/>
        <pt x="1" y="204" on="0"/>
        <pt x="98" y="422" on="0"/>
        <pt x="247" y="615" on="0"/>
        <pt x="445" y="750" on="0"/>
        <pt x="536" y="750" on="1"/>
      </contour>
      <contour>
        <pt x="446" y="498" on="1"/>
        <pt x="447" y="491" on="1"/>
        <pt x="447" y="479" on="0"/>
        <pt x="440" y="479" on="1"/>
        <pt x="427" y="479" on="0"/>
        <pt x="427" y="534" on="0"/>
        <pt x="466" y="580" on="0"/>
        <pt x="540" y="627" on="0"/>
        <pt x="552" y="638" on="1"/>
        <pt x="536" y="642" on="0"/>
        <pt x="526" y="642" on="1"/>
        <pt x="440" y="642" on="0"/>
        <pt x="282" y="513" on="0"/>
        <pt x="192" y="332" on="0"/>
        <pt x="192" y="256" on="1"/>
        <pt x="192" y="96" on="0"/>
        <pt x="341" y="86" on="1"/>
        <pt x="447" y="172" on="0"/>
        <pt x="605" y="454" on="0"/>
        <pt x="605" y="550" on="1"/>
        <pt x="605" y="601" on="0"/>
        <pt x="579" y="624" on="1"/>
        <pt x="561" y="604" on="0"/>
        <pt x="490" y="555" on="0"/>
        <pt x="446" y="516" on="0"/>
      </contour>
      <contour>
        <pt x="162" y="10" on="1"/>
        <pt x="236" y="10" on="0"/>
        <pt x="320" y="70" on="1"/>
        <pt x="230" y="77" on="0"/>
        <pt x="142" y="171" on="0"/>
        <pt x="142" y="308" on="0"/>
        <pt x="209" y="455" on="0"/>
        <pt x="315" y="578" on="0"/>
        <pt x="464" y="660" on="0"/>
        <pt x="539" y="660" on="1"/>
        <pt x="554" y="660" on="0"/>
        <pt x="568" y="657" on="1"/>
        <pt x="581" y="676" on="0"/>
        <pt x="581" y="715" on="0"/>
        <pt x="549" y="733" on="0"/>
        <pt x="528" y="733" on="1"/>
        <pt x="447" y="733" on="0"/>
        <pt x="269" y="604" on="0"/>
        <pt x="137" y="420" on="0"/>
        <pt x="51" y="213" on="0"/>
        <pt x="51" y="145" on="1"/>
        <pt x="51" y="10" on="0"/>
      </contour>
    </TTGlyph>
    <TTGlyph name="OE" xMin="1" yMin="-30" xMax="1052" yMax="750">
      <contour>
        <pt x="634" y="653" on="1"/>
        <pt x="599" y="653" on="1"/>
        <pt x="597" y="649" on="1"/>
        <pt x="607" y="643" on="1"/>
        <pt x="625" y="649" on="0"/>
      </contour>
      <contour>
        <pt x="579" y="679" on="1"/>
        <pt x="581" y="691" on="0"/>
        <pt x="581" y="715" on="0"/>
        <pt x="549" y="733" on="0"/>
        <pt x="528" y="733" on="1"/>
        <pt x="461" y="733" on="0"/>
        <pt x="387" y="688" on="1"/>
        <pt x="471" y="682" on="0"/>
      </contour>
      <contour>
        <pt x="51" y="77" on="0"/>
        <pt x="106" y="10" on="0"/>
        <pt x="220" y="10" on="0"/>
        <pt x="287" y="49" on="1"/>
        <pt x="288" y="61" on="0"/>
        <pt x="293" y="73" on="1"/>
        <pt x="216" y="85" on="0"/>
        <pt x="142" y="176" on="0"/>
        <pt x="142" y="323" on="0"/>
        <pt x="236" y="503" on="0"/>
        <pt x="401" y="640" on="0"/>
        <pt x="492" y="656" on="1"/>
        <pt x="395" y="660" on="0"/>
        <pt x="349" y="663" on="1"/>
        <pt x="229" y="573" on="0"/>
        <pt x="51" y="253" on="0"/>
        <pt x="51" y="136" on="1"/>
      </contour>
      <contour>
        <pt x="558" y="637" on="1"/>
        <pt x="543" y="642" on="0"/>
        <pt x="526" y="642" on="1"/>
        <pt x="440" y="642" on="0"/>
        <pt x="282" y="513" on="0"/>
        <pt x="192" y="332" on="0"/>
        <pt x="192" y="260" on="1"/>
        <pt x="192" y="120" on="0"/>
        <pt x="303" y="92" on="1"/>
        <pt x="327" y="131" on="0"/>
        <pt x="447" y="215" on="0"/>
        <pt x="582" y="282" on="0"/>
        <pt x="711" y="342" on="0"/>
        <pt x="796" y="390" on="0"/>
        <pt x="796" y="404" on="1"/>
        <pt x="796" y="412" on="0"/>
        <pt x="778" y="412" on="1"/>
        <pt x="546" y="381" on="0"/>
        <pt x="443" y="381" on="1"/>
        <pt x="305" y="381" on="0"/>
        <pt x="305" y="432" on="1"/>
        <pt x="305" y="462" on="0"/>
        <pt x="402" y="546" on="0"/>
        <pt x="540" y="618" on="0"/>
      </contour>
      <contour>
        <pt x="474" y="421" on="1"/>
        <pt x="532" y="421" on="0"/>
        <pt x="764" y="454" on="0"/>
        <pt x="798" y="454" on="1"/>
        <pt x="851" y="454" on="0"/>
        <pt x="851" y="424" on="1"/>
        <pt x="851" y="376" on="0"/>
        <pt x="672" y="297" on="1"/>
        <pt x="598" y="264" on="0"/>
        <pt x="448" y="192" on="0"/>
        <pt x="344" y="101" on="0"/>
        <pt x="344" y="55" on="1"/>
        <pt x="344" y="17" on="0"/>
        <pt x="429" y="17" on="1"/>
        <pt x="476" y="17" on="0"/>
        <pt x="667" y="46" on="0"/>
        <pt x="736" y="46" on="1"/>
        <pt x="859" y="46" on="0"/>
        <pt x="859" y="-22" on="1"/>
        <pt x="859" y="-30" on="0"/>
        <pt x="850" y="-30" on="1"/>
        <pt x="845" y="-30" on="0"/>
        <pt x="828" y="-21" on="1"/>
        <pt x="775" y="6" on="0"/>
        <pt x="712" y="6" on="1"/>
        <pt x="679" y="4" on="0"/>
        <pt x="439" y="-23" on="0"/>
        <pt x="407" y="-23" on="1"/>
        <pt x="295" y="-23" on="0"/>
        <pt x="287" y="32" on="1"/>
        <pt x="207" y="-15" on="0"/>
        <pt x="136" y="-15" on="1"/>
        <pt x="1" y="-15" on="0"/>
        <pt x="1" y="121" on="1"/>
        <pt x="1" y="240" on="0"/>
        <pt x="190" y="567" on="0"/>
        <pt x="320" y="665" on="1"/>
        <pt x="257" y="670" on="0"/>
        <pt x="221" y="674" on="1"/>
        <pt x="212" y="677" on="0"/>
        <pt x="212" y="686" on="1"/>
        <pt x="212" y="699" on="0"/>
        <pt x="234" y="699" on="1"/>
        <pt x="242" y="699" on="0"/>
        <pt x="357" y="690" on="1"/>
        <pt x="453" y="750" on="0"/>
        <pt x="536" y="750" on="1"/>
        <pt x="573" y="750" on="0"/>
        <pt x="608" y="718" on="0"/>
        <pt x="608" y="692" on="1"/>
        <pt x="607" y="678" on="1"/>
        <pt x="642" y="678" on="1"/>
        <pt x="667" y="678" on="0"/>
        <pt x="711" y="680" on="1"/>
        <pt x="886" y="735" on="0"/>
        <pt x="1008" y="735" on="1"/>
        <pt x="1052" y="735" on="0"/>
        <pt x="1052" y="718" on="1"/>
        <pt x="1052" y="657" on="0"/>
        <pt x="691" y="653" on="1"/>
        <pt x="564" y="609" on="0"/>
        <pt x="379" y="494" on="0"/>
        <pt x="379" y="421" on="0"/>
      </contour>
    </TTGlyph>
    <TTGlyph name="Oacute" xMin="1" yMin="-15" xMax="702" yMax="861">
      <contour>
        <pt x="573" y="750" on="0"/>
        <pt x="608" y="718" on="0"/>
        <pt x="608" y="668" on="0"/>
        <pt x="596" y="648" on="1"/>
        <pt x="647" y="623" on="0"/>
        <pt x="647" y="551" on="1"/>
        <pt x="647" y="454" on="0"/>
        <pt x="482" y="179" on="0"/>
        <pt x="366" y="86" on="1"/>
        <pt x="408" y="88" on="0"/>
        <pt x="499" y="124" on="0"/>
        <pt x="555" y="158" on="0"/>
        <pt x="562" y="158" on="0"/>
        <pt x="562" y="150" on="1"/>
        <pt x="562" y="130" on="0"/>
        <pt x="410" y="69" on="0"/>
        <pt x="351" y="69" on="1"/>
        <pt x="344" y="69" on="1"/>
        <pt x="230" y="-15" on="0"/>
        <pt x="131" y="-15" on="1"/>
        <pt x="65" y="-15" on="0"/>
        <pt x="1" y="58" on="0"/>
        <pt x="1" y="204" on="0"/>
        <pt x="98" y="422" on="0"/>
        <pt x="247" y="615" on="0"/>
        <pt x="445" y="750" on="0"/>
        <pt x="536" y="750" on="1"/>
      </contour>
      <contour>
        <pt x="446" y="498" on="1"/>
        <pt x="447" y="491" on="1"/>
        <pt x="447" y="479" on="0"/>
        <pt x="440" y="479" on="1"/>
        <pt x="427" y="479" on="0"/>
        <pt x="427" y="534" on="0"/>
        <pt x="466" y="580" on="0"/>
        <pt x="540" y="627" on="0"/>
        <pt x="552" y="638" on="1"/>
        <pt x="536" y="642" on="0"/>
        <pt x="526" y="642" on="1"/>
        <pt x="440" y="642" on="0"/>
        <pt x="282" y="513" on="0"/>
        <pt x="192" y="332" on="0"/>
        <pt x="192" y="256" on="1"/>
        <pt x="192" y="96" on="0"/>
        <pt x="341" y="86" on="1"/>
        <pt x="447" y="172" on="0"/>
        <pt x="605" y="454" on="0"/>
        <pt x="605" y="550" on="1"/>
        <pt x="605" y="601" on="0"/>
        <pt x="579" y="624" on="1"/>
        <pt x="561" y="604" on="0"/>
        <pt x="490" y="555" on="0"/>
        <pt x="446" y="516" on="0"/>
      </contour>
      <contour>
        <pt x="162" y="10" on="1"/>
        <pt x="236" y="10" on="0"/>
        <pt x="320" y="70" on="1"/>
        <pt x="230" y="77" on="0"/>
        <pt x="142" y="171" on="0"/>
        <pt x="142" y="308" on="0"/>
        <pt x="209" y="455" on="0"/>
        <pt x="315" y="578" on="0"/>
        <pt x="464" y="660" on="0"/>
        <pt x="539" y="660" on="1"/>
        <pt x="554" y="660" on="0"/>
        <pt x="568" y="657" on="1"/>
        <pt x="581" y="676" on="0"/>
        <pt x="581" y="715" on="0"/>
        <pt x="549" y="733" on="0"/>
        <pt x="528" y="733" on="1"/>
        <pt x="447" y="733" on="0"/>
        <pt x="269" y="604" on="0"/>
        <pt x="137" y="420" on="0"/>
        <pt x="51" y="213" on="0"/>
        <pt x="51" y="145" on="1"/>
        <pt x="51" y="10" on="0"/>
      </contour>
      <contour>
        <pt x="702" y="848" on="1"/>
        <pt x="702" y="831" on="0"/>
        <pt x="623" y="789" on="0"/>
        <pt x="581" y="774" on="1"/>
        <pt x="575" y="774" on="0"/>
        <pt x="575" y="789" on="0"/>
        <pt x="610" y="801" on="0"/>
        <pt x="661" y="839" on="0"/>
        <pt x="678" y="861" on="0"/>
        <pt x="702" y="861" on="0"/>
      </contour>
    </TTGlyph>
    <TTGlyph name="Ocircumflex" xMin="1" yMin="-15" xMax="663" yMax="863">
      <contour>
        <pt x="573" y="750" on="0"/>
        <pt x="608" y="718" on="0"/>
        <pt x="608" y="668" on="0"/>
        <pt x="596" y="648" on="1"/>
        <pt x="647" y="623" on="0"/>
        <pt x="647" y="551" on="1"/>
        <pt x="647" y="454" on="0"/>
        <pt x="482" y="179" on="0"/>
        <pt x="366" y="86" on="1"/>
        <pt x="408" y="88" on="0"/>
        <pt x="499" y="124" on="0"/>
        <pt x="555" y="158" on="0"/>
        <pt x="562" y="158" on="0"/>
        <pt x="562" y="150" on="1"/>
        <pt x="562" y="130" on="0"/>
        <pt x="410" y="69" on="0"/>
        <pt x="351" y="69" on="1"/>
        <pt x="344" y="69" on="1"/>
        <pt x="230" y="-15" on="0"/>
        <pt x="131" y="-15" on="1"/>
        <pt x="65" y="-15" on="0"/>
        <pt x="1" y="58" on="0"/>
        <pt x="1" y="204" on="0"/>
        <pt x="98" y="422" on="0"/>
        <pt x="247" y="615" on="0"/>
        <pt x="445" y="750" on="0"/>
        <pt x="536" y="750" on="1"/>
      </contour>
      <contour>
        <pt x="446" y="498" on="1"/>
        <pt x="447" y="491" on="1"/>
        <pt x="447" y="479" on="0"/>
        <pt x="440" y="479" on="1"/>
        <pt x="427" y="479" on="0"/>
        <pt x="427" y="534" on="0"/>
        <pt x="466" y="580" on="0"/>
        <pt x="540" y="627" on="0"/>
        <pt x="552" y="638" on="1"/>
        <pt x="536" y="642" on="0"/>
        <pt x="526" y="642" on="1"/>
        <pt x="440" y="642" on="0"/>
        <pt x="282" y="513" on="0"/>
        <pt x="192" y="332" on="0"/>
        <pt x="192" y="256" on="1"/>
        <pt x="192" y="96" on="0"/>
        <pt x="341" y="86" on="1"/>
        <pt x="447" y="172" on="0"/>
        <pt x="605" y="454" on="0"/>
        <pt x="605" y="550" on="1"/>
        <pt x="605" y="601" on="0"/>
        <pt x="579" y="624" on="1"/>
        <pt x="561" y="604" on="0"/>
        <pt x="490" y="555" on="0"/>
        <pt x="446" y="516" on="0"/>
      </contour>
      <contour>
        <pt x="162" y="10" on="1"/>
        <pt x="236" y="10" on="0"/>
        <pt x="320" y="70" on="1"/>
        <pt x="230" y="77" on="0"/>
        <pt x="142" y="171" on="0"/>
        <pt x="142" y="308" on="0"/>
        <pt x="209" y="455" on="0"/>
        <pt x="315" y="578" on="0"/>
        <pt x="464" y="660" on="0"/>
        <pt x="539" y="660" on="1"/>
        <pt x="554" y="660" on="0"/>
        <pt x="568" y="657" on="1"/>
        <pt x="581" y="676" on="0"/>
        <pt x="581" y="715" on="0"/>
        <pt x="549" y="733" on="0"/>
        <pt x="528" y="733" on="1"/>
        <pt x="447" y="733" on="0"/>
        <pt x="269" y="604" on="0"/>
        <pt x="137" y="420" on="0"/>
        <pt x="51" y="213" on="0"/>
        <pt x="51" y="145" on="1"/>
        <pt x="51" y="10" on="0"/>
      </contour>
      <contour>
        <pt x="534" y="803" on="0"/>
        <pt x="592" y="843" on="0"/>
        <pt x="607" y="863" on="0"/>
        <pt x="628" y="863" on="0"/>
        <pt x="637" y="854" on="1"/>
        <pt x="640" y="850" on="0"/>
        <pt x="647" y="803" on="0"/>
        <pt x="661" y="782" on="1"/>
        <pt x="663" y="778" on="0"/>
        <pt x="663" y="777" on="1"/>
        <pt x="663" y="772" on="0"/>
        <pt x="651" y="772" on="0"/>
        <pt x="633" y="789" on="0"/>
        <pt x="615" y="827" on="0"/>
        <pt x="615" y="828" on="1"/>
        <pt x="591" y="806" on="0"/>
        <pt x="504" y="776" on="1"/>
        <pt x="498" y="776" on="0"/>
        <pt x="498" y="791" on="0"/>
      </contour>
    </TTGlyph>
    <TTGlyph name="Odieresis" xMin="1" yMin="-15" xMax="665" yMax="849">
      <contour>
        <pt x="573" y="750" on="0"/>
        <pt x="608" y="718" on="0"/>
        <pt x="608" y="668" on="0"/>
        <pt x="596" y="648" on="1"/>
        <pt x="647" y="623" on="0"/>
        <pt x="647" y="551" on="1"/>
        <pt x="647" y="454" on="0"/>
        <pt x="482" y="179" on="0"/>
        <pt x="366" y="86" on="1"/>
        <pt x="408" y="88" on="0"/>
        <pt x="499" y="124" on="0"/>
        <pt x="555" y="158" on="0"/>
        <pt x="562" y="158" on="0"/>
        <pt x="562" y="150" on="1"/>
        <pt x="562" y="130" on="0"/>
        <pt x="410" y="69" on="0"/>
        <pt x="351" y="69" on="1"/>
        <pt x="344" y="69" on="1"/>
        <pt x="230" y="-15" on="0"/>
        <pt x="131" y="-15" on="1"/>
        <pt x="65" y="-15" on="0"/>
        <pt x="1" y="58" on="0"/>
        <pt x="1" y="204" on="0"/>
        <pt x="98" y="422" on="0"/>
        <pt x="247" y="615" on="0"/>
        <pt x="445" y="750" on="0"/>
        <pt x="536" y="750" on="1"/>
      </contour>
      <contour>
        <pt x="446" y="498" on="1"/>
        <pt x="447" y="491" on="1"/>
        <pt x="447" y="479" on="0"/>
        <pt x="440" y="479" on="1"/>
        <pt x="427" y="479" on="0"/>
        <pt x="427" y="534" on="0"/>
        <pt x="466" y="580" on="0"/>
        <pt x="540" y="627" on="0"/>
        <pt x="552" y="638" on="1"/>
        <pt x="536" y="642" on="0"/>
        <pt x="526" y="642" on="1"/>
        <pt x="440" y="642" on="0"/>
        <pt x="282" y="513" on="0"/>
        <pt x="192" y="332" on="0"/>
        <pt x="192" y="256" on="1"/>
        <pt x="192" y="96" on="0"/>
        <pt x="341" y="86" on="1"/>
        <pt x="447" y="172" on="0"/>
        <pt x="605" y="454" on="0"/>
        <pt x="605" y="550" on="1"/>
        <pt x="605" y="601" on="0"/>
        <pt x="579" y="624" on="1"/>
        <pt x="561" y="604" on="0"/>
        <pt x="490" y="555" on="0"/>
        <pt x="446" y="516" on="0"/>
      </contour>
      <contour>
        <pt x="162" y="10" on="1"/>
        <pt x="236" y="10" on="0"/>
        <pt x="320" y="70" on="1"/>
        <pt x="230" y="77" on="0"/>
        <pt x="142" y="171" on="0"/>
        <pt x="142" y="308" on="0"/>
        <pt x="209" y="455" on="0"/>
        <pt x="315" y="578" on="0"/>
        <pt x="464" y="660" on="0"/>
        <pt x="539" y="660" on="1"/>
        <pt x="554" y="660" on="0"/>
        <pt x="568" y="657" on="1"/>
        <pt x="581" y="676" on="0"/>
        <pt x="581" y="715" on="0"/>
        <pt x="549" y="733" on="0"/>
        <pt x="528" y="733" on="1"/>
        <pt x="447" y="733" on="0"/>
        <pt x="269" y="604" on="0"/>
        <pt x="137" y="420" on="0"/>
        <pt x="51" y="213" on="0"/>
        <pt x="51" y="145" on="1"/>
        <pt x="51" y="10" on="0"/>
      </contour>
      <contour>
        <pt x="565" y="849" on="0"/>
        <pt x="576" y="837" on="0"/>
        <pt x="576" y="815" on="0"/>
        <pt x="546" y="781" on="0"/>
        <pt x="524" y="781" on="0"/>
        <pt x="514" y="794" on="0"/>
        <pt x="514" y="811" on="0"/>
        <pt x="546" y="849" on="0"/>
      </contour>
      <contour>
        <pt x="654" y="849" on="0"/>
        <pt x="665" y="837" on="0"/>
        <pt x="665" y="815" on="0"/>
        <pt x="635" y="781" on="0"/>
        <pt x="613" y="781" on="0"/>
        <pt x="603" y="794" on="0"/>
        <pt x="603" y="811" on="0"/>
        <pt x="635" y="849" on="0"/>
      </contour>
    </TTGlyph>
    <TTGlyph name="Ograve" xMin="1" yMin="-15" xMax="662" yMax="858">
      <contour>
        <pt x="573" y="750" on="0"/>
        <pt x="608" y="718" on="0"/>
        <pt x="608" y="668" on="0"/>
        <pt x="596" y="648" on="1"/>
        <pt x="647" y="623" on="0"/>
        <pt x="647" y="551" on="1"/>
        <pt x="647" y="454" on="0"/>
        <pt x="482" y="179" on="0"/>
        <pt x="366" y="86" on="1"/>
        <pt x="408" y="88" on="0"/>
        <pt x="499" y="124" on="0"/>
        <pt x="555" y="158" on="0"/>
        <pt x="562" y="158" on="0"/>
        <pt x="562" y="150" on="1"/>
        <pt x="562" y="130" on="0"/>
        <pt x="410" y="69" on="0"/>
        <pt x="351" y="69" on="1"/>
        <pt x="344" y="69" on="1"/>
        <pt x="230" y="-15" on="0"/>
        <pt x="131" y="-15" on="1"/>
        <pt x="65" y="-15" on="0"/>
        <pt x="1" y="58" on="0"/>
        <pt x="1" y="204" on="0"/>
        <pt x="98" y="422" on="0"/>
        <pt x="247" y="615" on="0"/>
        <pt x="445" y="750" on="0"/>
        <pt x="536" y="750" on="1"/>
      </contour>
      <contour>
        <pt x="446" y="498" on="1"/>
        <pt x="447" y="491" on="1"/>
        <pt x="447" y="479" on="0"/>
        <pt x="440" y="479" on="1"/>
        <pt x="427" y="479" on="0"/>
        <pt x="427" y="534" on="0"/>
        <pt x="466" y="580" on="0"/>
        <pt x="540" y="627" on="0"/>
        <pt x="552" y="638" on="1"/>
        <pt x="536" y="642" on="0"/>
        <pt x="526" y="642" on="1"/>
        <pt x="440" y="642" on="0"/>
        <pt x="282" y="513" on="0"/>
        <pt x="192" y="332" on="0"/>
        <pt x="192" y="256" on="1"/>
        <pt x="192" y="96" on="0"/>
        <pt x="341" y="86" on="1"/>
        <pt x="447" y="172" on="0"/>
        <pt x="605" y="454" on="0"/>
        <pt x="605" y="550" on="1"/>
        <pt x="605" y="601" on="0"/>
        <pt x="579" y="624" on="1"/>
        <pt x="561" y="604" on="0"/>
        <pt x="490" y="555" on="0"/>
        <pt x="446" y="516" on="0"/>
      </contour>
      <contour>
        <pt x="162" y="10" on="1"/>
        <pt x="236" y="10" on="0"/>
        <pt x="320" y="70" on="1"/>
        <pt x="230" y="77" on="0"/>
        <pt x="142" y="171" on="0"/>
        <pt x="142" y="308" on="0"/>
        <pt x="209" y="455" on="0"/>
        <pt x="315" y="578" on="0"/>
        <pt x="464" y="660" on="0"/>
        <pt x="539" y="660" on="1"/>
        <pt x="554" y="660" on="0"/>
        <pt x="568" y="657" on="1"/>
        <pt x="581" y="676" on="0"/>
        <pt x="581" y="715" on="0"/>
        <pt x="549" y="733" on="0"/>
        <pt x="528" y="733" on="1"/>
        <pt x="447" y="733" on="0"/>
        <pt x="269" y="604" on="0"/>
        <pt x="137" y="420" on="0"/>
        <pt x="51" y="213" on="0"/>
        <pt x="51" y="145" on="1"/>
        <pt x="51" y="10" on="0"/>
      </contour>
      <contour>
        <pt x="535" y="845" on="1"/>
        <pt x="535" y="858" on="0"/>
        <pt x="558" y="858" on="0"/>
        <pt x="576" y="836" on="0"/>
        <pt x="627" y="798" on="0"/>
        <pt x="652" y="789" on="1"/>
        <pt x="662" y="786" on="0"/>
        <pt x="662" y="771" on="0"/>
        <pt x="656" y="771" on="1"/>
        <pt x="572" y="801" on="0"/>
        <pt x="546" y="828" on="1"/>
        <pt x="535" y="838" on="0"/>
      </contour>
    </TTGlyph>
    <TTGlyph name="Oslash" xMin="1" yMin="-98" xMax="647" yMax="846">
      <contour>
        <pt x="320" y="70" on="1"/>
        <pt x="266" y="74" on="0"/>
        <pt x="227" y="93" on="1"/>
        <pt x="224" y="84" on="0"/>
        <pt x="200" y="27" on="0"/>
        <pt x="195" y="13" on="1"/>
        <pt x="254" y="23" on="0"/>
      </contour>
      <contour>
        <pt x="568" y="657" on="1"/>
        <pt x="581" y="676" on="0"/>
        <pt x="581" y="714" on="0"/>
        <pt x="551" y="732" on="0"/>
        <pt x="532" y="733" on="1"/>
        <pt x="517" y="708" on="0"/>
        <pt x="489" y="655" on="1"/>
        <pt x="517" y="660" on="0"/>
        <pt x="554" y="660" on="0"/>
      </contour>
      <contour>
        <pt x="258" y="473" on="0"/>
        <pt x="192" y="319" on="0"/>
        <pt x="192" y="193" on="0"/>
        <pt x="216" y="152" on="1"/>
        <pt x="320" y="396" on="0"/>
        <pt x="446" y="627" on="1"/>
        <pt x="377" y="601" on="0"/>
      </contour>
      <contour>
        <pt x="132" y="409" on="0"/>
        <pt x="51" y="210" on="0"/>
        <pt x="51" y="144" on="1"/>
        <pt x="51" y="12" on="0"/>
        <pt x="159" y="10" on="1"/>
        <pt x="199" y="112" on="1"/>
        <pt x="142" y="157" on="0"/>
        <pt x="142" y="243" on="1"/>
        <pt x="142" y="360" on="0"/>
        <pt x="331" y="610" on="0"/>
        <pt x="457" y="647" on="1"/>
        <pt x="475" y="681" on="0"/>
        <pt x="504" y="731" on="1"/>
        <pt x="425" y="722" on="0"/>
        <pt x="256" y="589" on="0"/>
      </contour>
      <contour>
        <pt x="446" y="498" on="1"/>
        <pt x="447" y="491" on="1"/>
        <pt x="447" y="479" on="0"/>
        <pt x="440" y="479" on="1"/>
        <pt x="427" y="479" on="0"/>
        <pt x="427" y="534" on="0"/>
        <pt x="466" y="580" on="0"/>
        <pt x="540" y="627" on="0"/>
        <pt x="552" y="638" on="1"/>
        <pt x="536" y="642" on="0"/>
        <pt x="505" y="642" on="0"/>
        <pt x="480" y="637" on="1"/>
        <pt x="352" y="392" on="0"/>
        <pt x="240" y="123" on="1"/>
        <pt x="276" y="90" on="0"/>
        <pt x="341" y="86" on="1"/>
        <pt x="447" y="172" on="0"/>
        <pt x="605" y="454" on="0"/>
        <pt x="605" y="550" on="1"/>
        <pt x="605" y="601" on="0"/>
        <pt x="579" y="624" on="1"/>
        <pt x="561" y="604" on="0"/>
        <pt x="490" y="555" on="0"/>
        <pt x="446" y="516" on="0"/>
      </contour>
      <contour>
        <pt x="584" y="818" on="1"/>
        <pt x="541" y="750" on="1"/>
        <pt x="608" y="747" on="0"/>
        <pt x="608" y="692" on="1"/>
        <pt x="608" y="668" on="0"/>
        <pt x="596" y="648" on="1"/>
        <pt x="647" y="623" on="0"/>
        <pt x="647" y="551" on="1"/>
        <pt x="647" y="454" on="0"/>
        <pt x="482" y="179" on="0"/>
        <pt x="366" y="86" on="1"/>
        <pt x="408" y="88" on="0"/>
        <pt x="499" y="124" on="0"/>
        <pt x="555" y="158" on="0"/>
        <pt x="562" y="158" on="0"/>
        <pt x="562" y="150" on="1"/>
        <pt x="562" y="130" on="0"/>
        <pt x="410" y="69" on="0"/>
        <pt x="351" y="69" on="1"/>
        <pt x="344" y="69" on="1"/>
        <pt x="261" y="7" on="0"/>
        <pt x="187" y="-8" on="1"/>
        <pt x="170" y="-56" on="0"/>
        <pt x="158" y="-94" on="1"/>
        <pt x="154" y="-98" on="0"/>
        <pt x="143" y="-98" on="0"/>
        <pt x="132" y="-85" on="0"/>
        <pt x="130" y="-72" on="1"/>
        <pt x="133" y="-63" on="0"/>
        <pt x="150" y="-14" on="1"/>
        <pt x="139" y="-15" on="0"/>
        <pt x="131" y="-15" on="1"/>
        <pt x="65" y="-15" on="0"/>
        <pt x="1" y="58" on="0"/>
        <pt x="1" y="201" on="0"/>
        <pt x="93" y="413" on="0"/>
        <pt x="235" y="602" on="0"/>
        <pt x="425" y="741" on="0"/>
        <pt x="514" y="749" on="1"/>
        <pt x="570" y="846" on="0"/>
        <pt x="581" y="846" on="1"/>
        <pt x="589" y="846" on="0"/>
        <pt x="589" y="824" on="0"/>
      </contour>
    </TTGlyph>
    <TTGlyph name="Otilde" xMin="1" yMin="-15" xMax="717" yMax="837">
      <contour>
        <pt x="573" y="750" on="0"/>
        <pt x="608" y="718" on="0"/>
        <pt x="608" y="668" on="0"/>
        <pt x="596" y="648" on="1"/>
        <pt x="647" y="623" on="0"/>
        <pt x="647" y="551" on="1"/>
        <pt x="647" y="454" on="0"/>
        <pt x="482" y="179" on="0"/>
        <pt x="366" y="86" on="1"/>
        <pt x="408" y="88" on="0"/>
        <pt x="499" y="124" on="0"/>
        <pt x="555" y="158" on="0"/>
        <pt x="562" y="158" on="0"/>
        <pt x="562" y="150" on="1"/>
        <pt x="562" y="130" on="0"/>
        <pt x="410" y="69" on="0"/>
        <pt x="351" y="69" on="1"/>
        <pt x="344" y="69" on="1"/>
        <pt x="230" y="-15" on="0"/>
        <pt x="131" y="-15" on="1"/>
        <pt x="65" y="-15" on="0"/>
        <pt x="1" y="58" on="0"/>
        <pt x="1" y="204" on="0"/>
        <pt x="98" y="422" on="0"/>
        <pt x="247" y="615" on="0"/>
        <pt x="445" y="750" on="0"/>
        <pt x="536" y="750" on="1"/>
      </contour>
      <contour>
        <pt x="446" y="498" on="1"/>
        <pt x="447" y="491" on="1"/>
        <pt x="447" y="479" on="0"/>
        <pt x="440" y="479" on="1"/>
        <pt x="427" y="479" on="0"/>
        <pt x="427" y="534" on="0"/>
        <pt x="466" y="580" on="0"/>
        <pt x="540" y="627" on="0"/>
        <pt x="552" y="638" on="1"/>
        <pt x="536" y="642" on="0"/>
        <pt x="526" y="642" on="1"/>
        <pt x="440" y="642" on="0"/>
        <pt x="282" y="513" on="0"/>
        <pt x="192" y="332" on="0"/>
        <pt x="192" y="256" on="1"/>
        <pt x="192" y="96" on="0"/>
        <pt x="341" y="86" on="1"/>
        <pt x="447" y="172" on="0"/>
        <pt x="605" y="454" on="0"/>
        <pt x="605" y="550" on="1"/>
        <pt x="605" y="601" on="0"/>
        <pt x="579" y="624" on="1"/>
        <pt x="561" y="604" on="0"/>
        <pt x="490" y="555" on="0"/>
        <pt x="446" y="516" on="0"/>
      </contour>
      <contour>
        <pt x="162" y="10" on="1"/>
        <pt x="236" y="10" on="0"/>
        <pt x="320" y="70" on="1"/>
        <pt x="230" y="77" on="0"/>
        <pt x="142" y="171" on="0"/>
        <pt x="142" y="308" on="0"/>
        <pt x="209" y="455" on="0"/>
        <pt x="315" y="578" on="0"/>
        <pt x="464" y="660" on="0"/>
        <pt x="539" y="660" on="1"/>
        <pt x="554" y="660" on="0"/>
        <pt x="568" y="657" on="1"/>
        <pt x="581" y="676" on="0"/>
        <pt x="581" y="715" on="0"/>
        <pt x="549" y="733" on="0"/>
        <pt x="528" y="733" on="1"/>
        <pt x="447" y="733" on="0"/>
        <pt x="269" y="604" on="0"/>
        <pt x="137" y="420" on="0"/>
        <pt x="51" y="213" on="0"/>
        <pt x="51" y="145" on="1"/>
        <pt x="51" y="10" on="0"/>
      </contour>
      <contour>
        <pt x="665" y="791" on="1"/>
        <pt x="571" y="781" on="1"/>
        <pt x="549" y="781" on="0"/>
        <pt x="515" y="808" on="0"/>
        <pt x="508" y="832" on="1"/>
        <pt x="508" y="837" on="0"/>
        <pt x="517" y="837" on="0"/>
        <pt x="520" y="831" on="1"/>
        <pt x="535" y="807" on="0"/>
        <pt x="569" y="807" on="1"/>
        <pt x="653" y="816" on="1"/>
        <pt x="678" y="816" on="0"/>
        <pt x="717" y="794" on="0"/>
        <pt x="717" y="771" on="1"/>
        <pt x="717" y="765" on="0"/>
        <pt x="708" y="765" on="0"/>
        <pt x="705" y="771" on="1"/>
        <pt x="692" y="791" on="0"/>
      </contour>
    </TTGlyph>
    <TTGlyph name="P" xMin="0" yMin="-73" xMax="889" yMax="738">
      <contour>
        <pt x="0" y="-51" on="1"/>
        <pt x="0" y="2" on="0"/>
        <pt x="276" y="351" on="0"/>
        <pt x="442" y="500" on="1"/>
        <pt x="464" y="555" on="0"/>
        <pt x="464" y="587" on="1"/>
        <pt x="464" y="722" on="0"/>
        <pt x="235" y="722" on="1"/>
        <pt x="165" y="722" on="0"/>
        <pt x="111" y="696" on="1"/>
        <pt x="78" y="680" on="0"/>
        <pt x="78" y="632" on="0"/>
        <pt x="149" y="581" on="0"/>
        <pt x="235" y="541" on="0"/>
        <pt x="306" y="476" on="0"/>
        <pt x="306" y="440" on="1"/>
        <pt x="306" y="420" on="0"/>
        <pt x="298" y="400" on="0"/>
        <pt x="295" y="400" on="1"/>
        <pt x="290" y="400" on="0"/>
        <pt x="288" y="414" on="1"/>
        <pt x="288" y="470" on="0"/>
        <pt x="204" y="515" on="1"/>
        <pt x="168" y="534" on="0"/>
        <pt x="132" y="552" on="1"/>
        <pt x="48" y="597" on="0"/>
        <pt x="48" y="649" on="1"/>
        <pt x="48" y="673" on="0"/>
        <pt x="92" y="710" on="0"/>
        <pt x="126" y="720" on="1"/>
        <pt x="191" y="738" on="0"/>
        <pt x="283" y="738" on="0"/>
        <pt x="365" y="724" on="0"/>
        <pt x="454" y="692" on="0"/>
        <pt x="511" y="625" on="0"/>
        <pt x="511" y="579" on="1"/>
        <pt x="511" y="573" on="0"/>
        <pt x="509" y="557" on="1"/>
        <pt x="718" y="728" on="0"/>
        <pt x="839" y="728" on="1"/>
        <pt x="889" y="728" on="0"/>
        <pt x="889" y="686" on="1"/>
        <pt x="889" y="638" on="0"/>
        <pt x="776" y="482" on="0"/>
        <pt x="615" y="359" on="0"/>
        <pt x="556" y="359" on="1"/>
        <pt x="487" y="359" on="0"/>
        <pt x="482" y="430" on="1"/>
        <pt x="482" y="446" on="0"/>
        <pt x="492" y="446" on="1"/>
        <pt x="499" y="446" on="0"/>
        <pt x="512" y="416" on="0"/>
        <pt x="549" y="381" on="0"/>
        <pt x="569" y="381" on="1"/>
        <pt x="615" y="381" on="0"/>
        <pt x="743" y="505" on="0"/>
        <pt x="830" y="646" on="0"/>
        <pt x="830" y="677" on="1"/>
        <pt x="830" y="699" on="0"/>
        <pt x="807" y="699" on="1"/>
        <pt x="706" y="699" on="0"/>
        <pt x="498" y="517" on="1"/>
        <pt x="465" y="422" on="0"/>
        <pt x="275" y="139" on="0"/>
        <pt x="71" y="-73" on="0"/>
        <pt x="24" y="-73" on="1"/>
        <pt x="0" y="-73" on="0"/>
      </contour>
      <contour>
        <pt x="43" y="-45" on="1"/>
        <pt x="92" y="-45" on="0"/>
        <pt x="346" y="291" on="0"/>
        <pt x="419" y="445" on="1"/>
        <pt x="271" y="303" on="0"/>
        <pt x="39" y="8" on="0"/>
        <pt x="39" y="-40" on="1"/>
        <pt x="39" y="-45" on="0"/>
      </contour>
    </TTGlyph>
    <TTGlyph name="Q" xMin="0" yMin="-102" xMax="876" yMax="736">
      <contour>
        <pt x="712" y="736" on="1"/>
        <pt x="838" y="736" on="0"/>
        <pt x="838" y="571" on="0"/>
        <pt x="609" y="289" on="0"/>
        <pt x="444" y="148" on="1"/>
        <pt x="481" y="134" on="0"/>
        <pt x="586" y="67" on="0"/>
        <pt x="682" y="21" on="0"/>
        <pt x="783" y="21" on="0"/>
        <pt x="855" y="58" on="1"/>
        <pt x="864" y="63" on="0"/>
        <pt x="876" y="63" on="0"/>
        <pt x="876" y="54" on="0"/>
        <pt x="863" y="44" on="1"/>
        <pt x="839" y="29" on="0"/>
        <pt x="737" y="-7" on="0"/>
        <pt x="643" y="-7" on="0"/>
        <pt x="543" y="36" on="0"/>
        <pt x="436" y="107" on="0"/>
        <pt x="410" y="119" on="1"/>
        <pt x="290" y="21" on="0"/>
        <pt x="87" y="-102" on="0"/>
        <pt x="36" y="-102" on="1"/>
        <pt x="0" y="-102" on="0"/>
        <pt x="0" y="-77" on="1"/>
        <pt x="0" y="-43" on="0"/>
        <pt x="109" y="70" on="0"/>
        <pt x="284" y="163" on="0"/>
        <pt x="362" y="163" on="1"/>
        <pt x="388" y="163" on="0"/>
        <pt x="419" y="156" on="1"/>
        <pt x="570" y="284" on="0"/>
        <pt x="779" y="543" on="0"/>
        <pt x="779" y="623" on="1"/>
        <pt x="779" y="709" on="0"/>
        <pt x="668" y="709" on="1"/>
        <pt x="593" y="709" on="0"/>
        <pt x="417" y="635" on="0"/>
        <pt x="282" y="533" on="0"/>
        <pt x="191" y="422" on="0"/>
        <pt x="191" y="385" on="1"/>
        <pt x="191" y="340" on="0"/>
        <pt x="326" y="340" on="0"/>
        <pt x="479" y="445" on="0"/>
        <pt x="519" y="503" on="1"/>
        <pt x="565" y="573" on="0"/>
        <pt x="588" y="573" on="1"/>
        <pt x="599" y="573" on="0"/>
        <pt x="599" y="558" on="1"/>
        <pt x="599" y="530" on="0"/>
        <pt x="480" y="416" on="0"/>
        <pt x="306" y="320" on="0"/>
        <pt x="243" y="320" on="1"/>
        <pt x="158" y="320" on="0"/>
        <pt x="158" y="377" on="1"/>
        <pt x="158" y="420" on="0"/>
        <pt x="256" y="543" on="0"/>
        <pt x="407" y="656" on="0"/>
        <pt x="615" y="736" on="0"/>
      </contour>
      <contour>
        <pt x="38" y="-53" on="1"/>
        <pt x="38" y="-70" on="0"/>
        <pt x="102" y="-70" on="0"/>
        <pt x="281" y="41" on="0"/>
        <pt x="386" y="128" on="1"/>
        <pt x="358" y="138" on="0"/>
        <pt x="333" y="138" on="1"/>
        <pt x="279" y="138" on="0"/>
        <pt x="135" y="63" on="0"/>
        <pt x="38" y="-28" on="0"/>
      </contour>
    </TTGlyph>
    <TTGlyph name="R" xMin="0" yMin="-71" xMax="934" yMax="730">
      <contour>
        <pt x="478" y="427" on="1"/>
        <pt x="478" y="436" on="0"/>
        <pt x="462" y="437" on="1"/>
        <pt x="412" y="336" on="0"/>
        <pt x="224" y="91" on="0"/>
        <pt x="57" y="-71" on="0"/>
        <pt x="0" y="-71" on="0"/>
        <pt x="0" y="-47" on="1"/>
        <pt x="0" y="9" on="0"/>
        <pt x="277" y="348" on="0"/>
        <pt x="449" y="494" on="1"/>
        <pt x="466" y="543" on="0"/>
        <pt x="466" y="620" on="0"/>
        <pt x="423" y="675" on="0"/>
        <pt x="387" y="688" on="1"/>
        <pt x="323" y="711" on="0"/>
        <pt x="252" y="711" on="1"/>
        <pt x="88" y="711" on="0"/>
        <pt x="86" y="656" on="1"/>
        <pt x="86" y="635" on="0"/>
        <pt x="136" y="604" on="0"/>
        <pt x="209" y="580" on="0"/>
        <pt x="282" y="551" on="0"/>
        <pt x="333" y="497" on="0"/>
        <pt x="333" y="435" on="0"/>
        <pt x="314" y="435" on="0"/>
        <pt x="314" y="447" on="1"/>
        <pt x="314" y="484" on="0"/>
        <pt x="230" y="538" on="0"/>
        <pt x="130" y="567" on="0"/>
        <pt x="46" y="615" on="0"/>
        <pt x="46" y="670" on="0"/>
        <pt x="88" y="705" on="0"/>
        <pt x="120" y="714" on="1"/>
        <pt x="184" y="730" on="0"/>
        <pt x="288" y="730" on="0"/>
        <pt x="373" y="716" on="0"/>
        <pt x="455" y="683" on="0"/>
        <pt x="505" y="619" on="0"/>
        <pt x="505" y="575" on="1"/>
        <pt x="505" y="559" on="0"/>
        <pt x="500" y="536" on="1"/>
        <pt x="738" y="725" on="0"/>
        <pt x="881" y="725" on="1"/>
        <pt x="934" y="725" on="0"/>
        <pt x="934" y="685" on="1"/>
        <pt x="934" y="638" on="0"/>
        <pt x="807" y="479" on="0"/>
        <pt x="637" y="355" on="0"/>
        <pt x="582" y="355" on="1"/>
        <pt x="548" y="355" on="0"/>
        <pt x="522" y="369" on="1"/>
        <pt x="521" y="370" on="0"/>
        <pt x="515" y="370" on="0"/>
        <pt x="515" y="309" on="0"/>
        <pt x="518" y="248" on="0"/>
        <pt x="532" y="145" on="0"/>
        <pt x="558" y="72" on="0"/>
        <pt x="610" y="16" on="0"/>
        <pt x="677" y="16" on="0"/>
        <pt x="748" y="48" on="1"/>
        <pt x="758" y="53" on="0"/>
        <pt x="773" y="53" on="0"/>
        <pt x="773" y="49" on="1"/>
        <pt x="773" y="40" on="0"/>
        <pt x="758" y="33" on="1"/>
        <pt x="672" y="-12" on="0"/>
        <pt x="576" y="-12" on="0"/>
        <pt x="513" y="57" on="0"/>
        <pt x="489" y="174" on="0"/>
        <pt x="481" y="283" on="0"/>
        <pt x="481" y="407" on="0"/>
      </contour>
      <contour>
        <pt x="489" y="499" on="1"/>
        <pt x="481" y="476" on="0"/>
        <pt x="471" y="455" on="1"/>
        <pt x="503" y="455" on="1"/>
        <pt x="508" y="455" on="0"/>
        <pt x="510" y="437" on="0"/>
        <pt x="512" y="411" on="0"/>
        <pt x="524" y="394" on="0"/>
        <pt x="559" y="374" on="0"/>
        <pt x="582" y="374" on="1"/>
        <pt x="628" y="374" on="0"/>
        <pt x="773" y="499" on="0"/>
        <pt x="879" y="648" on="0"/>
        <pt x="879" y="682" on="1"/>
        <pt x="879" y="700" on="0"/>
        <pt x="861" y="700" on="1"/>
        <pt x="736" y="700" on="0"/>
      </contour>
      <contour>
        <pt x="43" y="-41" on="1"/>
        <pt x="66" y="-41" on="0"/>
        <pt x="216" y="113" on="0"/>
        <pt x="390" y="353" on="0"/>
        <pt x="433" y="452" on="1"/>
        <pt x="275" y="316" on="0"/>
        <pt x="38" y="26" on="0"/>
        <pt x="38" y="-34" on="1"/>
        <pt x="38" y="-41" on="0"/>
      </contour>
    </TTGlyph>
    <TTGlyph name="S" xMin="0" yMin="-31" xMax="1135" yMax="724">
      <contour>
        <pt x="325" y="99" on="1"/>
        <pt x="301" y="131" on="0"/>
        <pt x="263" y="188" on="1"/>
        <pt x="0" y="214" on="0"/>
        <pt x="0" y="298" on="1"/>
        <pt x="0" y="317" on="0"/>
        <pt x="39" y="341" on="0"/>
        <pt x="79" y="341" on="1"/>
        <pt x="179" y="341" on="0"/>
        <pt x="278" y="214" on="1"/>
        <pt x="378" y="204" on="0"/>
        <pt x="505" y="204" on="1"/>
        <pt x="516" y="204" on="1"/>
        <pt x="644" y="281" on="0"/>
        <pt x="754" y="359" on="1"/>
        <pt x="799" y="441" on="0"/>
        <pt x="865" y="548" on="0"/>
        <pt x="912" y="606" on="1"/>
        <pt x="1005" y="724" on="0"/>
        <pt x="1108" y="724" on="1"/>
        <pt x="1135" y="724" on="0"/>
        <pt x="1135" y="700" on="1"/>
        <pt x="1135" y="642" on="0"/>
        <pt x="943" y="454" on="0"/>
        <pt x="784" y="346" on="1"/>
        <pt x="736" y="254" on="0"/>
        <pt x="712" y="212" on="1"/>
        <pt x="852" y="223" on="0"/>
        <pt x="914" y="246" on="1"/>
        <pt x="917" y="246" on="1"/>
        <pt x="921" y="246" on="0"/>
        <pt x="921" y="235" on="0"/>
        <pt x="914" y="225" on="1"/>
        <pt x="839" y="202" on="0"/>
        <pt x="698" y="189" on="1"/>
        <pt x="644" y="96" on="0"/>
        <pt x="543" y="-7" on="0"/>
        <pt x="492" y="-7" on="1"/>
        <pt x="410" y="-7" on="0"/>
        <pt x="337" y="84" on="1"/>
        <pt x="194" y="12" on="0"/>
        <pt x="84" y="-26" on="1"/>
        <pt x="69" y="-31" on="0"/>
        <pt x="30" y="-31" on="0"/>
        <pt x="30" y="-16" on="1"/>
        <pt x="30" y="-8" on="0"/>
        <pt x="46" y="5" on="0"/>
        <pt x="59" y="5" on="1"/>
        <pt x="139" y="5" on="0"/>
      </contour>
      <contour>
        <pt x="516" y="179" on="1"/>
        <pt x="440" y="136" on="0"/>
        <pt x="366" y="98" on="1"/>
        <pt x="433" y="15" on="0"/>
        <pt x="488" y="15" on="1"/>
        <pt x="529" y="15" on="0"/>
        <pt x="610" y="103" on="0"/>
        <pt x="659" y="186" on="1"/>
        <pt x="598" y="181" on="0"/>
      </contour>
      <contour>
        <pt x="1080" y="700" on="1"/>
        <pt x="1011" y="700" on="0"/>
        <pt x="941" y="608" on="1"/>
        <pt x="883" y="530" on="0"/>
        <pt x="814" y="402" on="1"/>
        <pt x="940" y="495" on="0"/>
        <pt x="1092" y="648" on="0"/>
        <pt x="1092" y="690" on="1"/>
        <pt x="1092" y="700" on="0"/>
      </contour>
      <contour>
        <pt x="48" y="302" on="1"/>
        <pt x="48" y="245" on="0"/>
        <pt x="241" y="219" on="1"/>
        <pt x="163" y="323" on="0"/>
        <pt x="84" y="323" on="1"/>
        <pt x="48" y="323" on="0"/>
      </contour>
      <contour>
        <pt x="354" y="113" on="1"/>
        <pt x="416" y="146" on="0"/>
        <pt x="473" y="179" on="1"/>
        <pt x="469" y="179" on="1"/>
        <pt x="382" y="179" on="0"/>
        <pt x="301" y="185" on="1"/>
        <pt x="339" y="132" on="0"/>
      </contour>
      <contour>
        <pt x="727" y="308" on="1"/>
        <pt x="673" y="272" on="0"/>
        <pt x="559" y="204" on="1"/>
        <pt x="636" y="206" on="0"/>
        <pt x="672" y="209" on="1"/>
        <pt x="691" y="242" on="0"/>
      </contour>
    </TTGlyph>
    <TTGlyph name="Scaron" xMin="0" yMin="-31" xMax="1240" yMax="840">
      <contour>
        <pt x="325" y="99" on="1"/>
        <pt x="301" y="131" on="0"/>
        <pt x="263" y="188" on="1"/>
        <pt x="0" y="214" on="0"/>
        <pt x="0" y="298" on="1"/>
        <pt x="0" y="317" on="0"/>
        <pt x="39" y="341" on="0"/>
        <pt x="79" y="341" on="1"/>
        <pt x="179" y="341" on="0"/>
        <pt x="278" y="214" on="1"/>
        <pt x="378" y="204" on="0"/>
        <pt x="505" y="204" on="1"/>
        <pt x="516" y="204" on="1"/>
        <pt x="644" y="281" on="0"/>
        <pt x="754" y="359" on="1"/>
        <pt x="799" y="441" on="0"/>
        <pt x="865" y="548" on="0"/>
        <pt x="912" y="606" on="1"/>
        <pt x="1005" y="724" on="0"/>
        <pt x="1108" y="724" on="1"/>
        <pt x="1135" y="724" on="0"/>
        <pt x="1135" y="700" on="1"/>
        <pt x="1135" y="642" on="0"/>
        <pt x="943" y="454" on="0"/>
        <pt x="784" y="346" on="1"/>
        <pt x="736" y="254" on="0"/>
        <pt x="712" y="212" on="1"/>
        <pt x="852" y="223" on="0"/>
        <pt x="914" y="246" on="1"/>
        <pt x="917" y="246" on="1"/>
        <pt x="921" y="246" on="0"/>
        <pt x="921" y="235" on="0"/>
        <pt x="914" y="225" on="1"/>
        <pt x="839" y="202" on="0"/>
        <pt x="698" y="189" on="1"/>
        <pt x="644" y="96" on="0"/>
        <pt x="543" y="-7" on="0"/>
        <pt x="492" y="-7" on="1"/>
        <pt x="410" y="-7" on="0"/>
        <pt x="337" y="84" on="1"/>
        <pt x="194" y="12" on="0"/>
        <pt x="84" y="-26" on="1"/>
        <pt x="69" y="-31" on="0"/>
        <pt x="30" y="-31" on="0"/>
        <pt x="30" y="-16" on="1"/>
        <pt x="30" y="-8" on="0"/>
        <pt x="46" y="5" on="0"/>
        <pt x="59" y="5" on="1"/>
        <pt x="139" y="5" on="0"/>
      </contour>
      <contour>
        <pt x="516" y="179" on="1"/>
        <pt x="440" y="136" on="0"/>
        <pt x="366" y="98" on="1"/>
        <pt x="433" y="15" on="0"/>
        <pt x="488" y="15" on="1"/>
        <pt x="529" y="15" on="0"/>
        <pt x="610" y="103" on="0"/>
        <pt x="659" y="186" on="1"/>
        <pt x="598" y="181" on="0"/>
      </contour>
      <contour>
        <pt x="1080" y="700" on="1"/>
        <pt x="1011" y="700" on="0"/>
        <pt x="941" y="608" on="1"/>
        <pt x="883" y="530" on="0"/>
        <pt x="814" y="402" on="1"/>
        <pt x="940" y="495" on="0"/>
        <pt x="1092" y="648" on="0"/>
        <pt x="1092" y="690" on="1"/>
        <pt x="1092" y="700" on="0"/>
      </contour>
      <contour>
        <pt x="48" y="302" on="1"/>
        <pt x="48" y="245" on="0"/>
        <pt x="241" y="219" on="1"/>
        <pt x="163" y="323" on="0"/>
        <pt x="84" y="323" on="1"/>
        <pt x="48" y="323" on="0"/>
      </contour>
      <contour>
        <pt x="354" y="113" on="1"/>
        <pt x="416" y="146" on="0"/>
        <pt x="473" y="179" on="1"/>
        <pt x="469" y="179" on="1"/>
        <pt x="382" y="179" on="0"/>
        <pt x="301" y="185" on="1"/>
        <pt x="339" y="132" on="0"/>
      </contour>
      <contour>
        <pt x="727" y="308" on="1"/>
        <pt x="673" y="272" on="0"/>
        <pt x="559" y="204" on="1"/>
        <pt x="636" y="206" on="0"/>
        <pt x="672" y="209" on="1"/>
        <pt x="691" y="242" on="0"/>
      </contour>
      <contour>
        <pt x="1204" y="809" on="0"/>
        <pt x="1146" y="769" on="0"/>
        <pt x="1131" y="749" on="0"/>
        <pt x="1110" y="749" on="0"/>
        <pt x="1101" y="758" on="1"/>
        <pt x="1098" y="762" on="0"/>
        <pt x="1091" y="809" on="0"/>
        <pt x="1077" y="830" on="1"/>
        <pt x="1075" y="834" on="0"/>
        <pt x="1075" y="835" on="1"/>
        <pt x="1075" y="840" on="0"/>
        <pt x="1087" y="840" on="0"/>
        <pt x="1105" y="823" on="0"/>
        <pt x="1123" y="785" on="0"/>
        <pt x="1123" y="784" on="1"/>
        <pt x="1147" y="806" on="0"/>
        <pt x="1234" y="836" on="1"/>
        <pt x="1240" y="836" on="0"/>
        <pt x="1240" y="821" on="0"/>
      </contour>
    </TTGlyph>
    <TTGlyph name="T" xMin="-41" yMin="-49" xMax="951" yMax="761">
      <contour>
        <pt x="268" y="594" on="1"/>
        <pt x="46" y="605" on="1"/>
        <pt x="44" y="605" on="0"/>
        <pt x="30" y="593" on="0"/>
        <pt x="20" y="593" on="0"/>
        <pt x="18" y="594" on="1"/>
        <pt x="-41" y="615" on="0"/>
        <pt x="-41" y="645" on="1"/>
        <pt x="-41" y="660" on="0"/>
        <pt x="-24" y="660" on="1"/>
        <pt x="-14" y="660" on="0"/>
        <pt x="225" y="629" on="0"/>
        <pt x="501" y="629" on="0"/>
        <pt x="628" y="644" on="1"/>
        <pt x="763" y="761" on="0"/>
        <pt x="896" y="761" on="1"/>
        <pt x="951" y="761" on="0"/>
        <pt x="951" y="735" on="1"/>
        <pt x="951" y="667" on="0"/>
        <pt x="643" y="622" on="1"/>
        <pt x="541" y="520" on="0"/>
        <pt x="396" y="289" on="1"/>
        <pt x="342" y="204" on="0"/>
        <pt x="289" y="125" on="1"/>
        <pt x="172" y="-49" on="0"/>
        <pt x="98" y="-49" on="1"/>
        <pt x="71" y="-49" on="0"/>
        <pt x="71" y="-2" on="0"/>
        <pt x="91" y="29" on="1"/>
        <pt x="110" y="59" on="0"/>
        <pt x="121" y="59" on="1"/>
        <pt x="122" y="59" on="0"/>
        <pt x="122" y="59" on="1"/>
        <pt x="135" y="59" on="0"/>
        <pt x="135" y="44" on="1"/>
        <pt x="131" y="25" on="1"/>
        <pt x="131" y="20" on="0"/>
        <pt x="135" y="20" on="1"/>
        <pt x="188" y="20" on="0"/>
        <pt x="315" y="236" on="1"/>
        <pt x="366" y="323" on="0"/>
        <pt x="524" y="545" on="0"/>
        <pt x="598" y="616" on="1"/>
        <pt x="425" y="594" on="0"/>
      </contour>
      <contour>
        <pt x="872" y="742" on="1"/>
        <pt x="776" y="742" on="0"/>
        <pt x="673" y="650" on="1"/>
        <pt x="747" y="661" on="0"/>
        <pt x="854" y="693" on="0"/>
        <pt x="898" y="721" on="0"/>
        <pt x="898" y="742" on="0"/>
      </contour>
    </TTGlyph>
    <TTGlyph name="Thorn" xMin="0" yMin="-73" xMax="794" yMax="738">
      <contour>
        <pt x="0" y="-51" on="1"/>
        <pt x="0" y="2" on="0"/>
        <pt x="239" y="274" on="0"/>
        <pt x="389" y="386" on="1"/>
        <pt x="464" y="524" on="0"/>
        <pt x="464" y="587" on="1"/>
        <pt x="464" y="722" on="0"/>
        <pt x="235" y="722" on="1"/>
        <pt x="165" y="722" on="0"/>
        <pt x="111" y="696" on="1"/>
        <pt x="78" y="680" on="0"/>
        <pt x="78" y="632" on="0"/>
        <pt x="149" y="581" on="0"/>
        <pt x="235" y="541" on="0"/>
        <pt x="306" y="476" on="0"/>
        <pt x="306" y="440" on="1"/>
        <pt x="306" y="420" on="0"/>
        <pt x="298" y="400" on="0"/>
        <pt x="295" y="400" on="1"/>
        <pt x="290" y="400" on="0"/>
        <pt x="288" y="414" on="1"/>
        <pt x="288" y="470" on="0"/>
        <pt x="204" y="515" on="1"/>
        <pt x="168" y="534" on="0"/>
        <pt x="132" y="552" on="1"/>
        <pt x="48" y="597" on="0"/>
        <pt x="48" y="649" on="1"/>
        <pt x="48" y="673" on="0"/>
        <pt x="92" y="710" on="0"/>
        <pt x="126" y="720" on="1"/>
        <pt x="191" y="738" on="0"/>
        <pt x="283" y="738" on="0"/>
        <pt x="365" y="724" on="0"/>
        <pt x="454" y="692" on="0"/>
        <pt x="511" y="625" on="0"/>
        <pt x="511" y="531" on="0"/>
        <pt x="464" y="439" on="1"/>
        <pt x="634" y="550" on="0"/>
        <pt x="748" y="550" on="1"/>
        <pt x="794" y="550" on="0"/>
        <pt x="794" y="507" on="1"/>
        <pt x="794" y="453" on="0"/>
        <pt x="667" y="263" on="0"/>
        <pt x="491" y="111" on="0"/>
        <pt x="431" y="111" on="1"/>
        <pt x="362" y="111" on="0"/>
        <pt x="357" y="182" on="1"/>
        <pt x="357" y="198" on="0"/>
        <pt x="367" y="198" on="1"/>
        <pt x="374" y="198" on="0"/>
        <pt x="387" y="168" on="0"/>
        <pt x="424" y="133" on="0"/>
        <pt x="444" y="133" on="1"/>
        <pt x="492" y="133" on="0"/>
        <pt x="633" y="282" on="0"/>
        <pt x="734" y="458" on="0"/>
        <pt x="734" y="499" on="1"/>
        <pt x="734" y="521" on="0"/>
        <pt x="716" y="521" on="1"/>
        <pt x="617" y="521" on="0"/>
        <pt x="441" y="395" on="1"/>
        <pt x="383" y="293" on="0"/>
        <pt x="219" y="76" on="0"/>
        <pt x="62" y="-73" on="0"/>
        <pt x="24" y="-73" on="1"/>
        <pt x="0" y="-73" on="0"/>
      </contour>
      <contour>
        <pt x="43" y="-45" on="1"/>
        <pt x="83" y="-45" on="0"/>
        <pt x="275" y="190" on="0"/>
        <pt x="358" y="332" on="1"/>
        <pt x="230" y="228" on="0"/>
        <pt x="39" y="7" on="0"/>
        <pt x="39" y="-40" on="1"/>
        <pt x="39" y="-45" on="0"/>
      </contour>
    </TTGlyph>
    <TTGlyph name="U" xMin="1" yMin="-15" xMax="840" yMax="744">
      <contour>
        <pt x="288" y="441" on="1"/>
        <pt x="274" y="445" on="1"/>
        <pt x="272" y="445" on="0"/>
        <pt x="232" y="412" on="0"/>
        <pt x="180" y="374" on="0"/>
        <pt x="106" y="341" on="0"/>
        <pt x="74" y="341" on="1"/>
        <pt x="1" y="341" on="0"/>
        <pt x="1" y="394" on="1"/>
        <pt x="1" y="434" on="0"/>
        <pt x="87" y="555" on="0"/>
        <pt x="216" y="665" on="0"/>
        <pt x="385" y="744" on="0"/>
        <pt x="458" y="744" on="1"/>
        <pt x="556" y="744" on="0"/>
        <pt x="556" y="677" on="1"/>
        <pt x="556" y="625" on="0"/>
        <pt x="439" y="434" on="0"/>
        <pt x="368" y="347" on="1"/>
        <pt x="181" y="116" on="0"/>
        <pt x="181" y="63" on="1"/>
        <pt x="181" y="35" on="0"/>
        <pt x="217" y="35" on="1"/>
        <pt x="291" y="35" on="0"/>
        <pt x="438" y="153" on="1"/>
        <pt x="474" y="242" on="0"/>
        <pt x="627" y="457" on="0"/>
        <pt x="782" y="605" on="0"/>
        <pt x="821" y="605" on="1"/>
        <pt x="840" y="605" on="0"/>
        <pt x="840" y="587" on="1"/>
        <pt x="840" y="541" on="0"/>
        <pt x="618" y="280" on="0"/>
        <pt x="483" y="166" on="1"/>
        <pt x="458" y="104" on="0"/>
        <pt x="458" y="69" on="1"/>
        <pt x="458" y="6" on="0"/>
        <pt x="527" y="6" on="1"/>
        <pt x="552" y="6" on="0"/>
        <pt x="624" y="44" on="0"/>
        <pt x="641" y="61" on="0"/>
        <pt x="647" y="61" on="0"/>
        <pt x="647" y="57" on="1"/>
        <pt x="647" y="36" on="0"/>
        <pt x="542" y="-15" on="0"/>
        <pt x="489" y="-15" on="1"/>
        <pt x="414" y="-15" on="0"/>
        <pt x="414" y="55" on="1"/>
        <pt x="414" y="84" on="0"/>
        <pt x="426" y="120" on="1"/>
        <pt x="270" y="1" on="0"/>
        <pt x="185" y="1" on="1"/>
        <pt x="160" y="1" on="0"/>
        <pt x="128" y="33" on="0"/>
        <pt x="128" y="84" on="0"/>
        <pt x="207" y="204" on="0"/>
        <pt x="320" y="346" on="0"/>
        <pt x="376" y="419" on="1"/>
        <pt x="511" y="595" on="0"/>
        <pt x="511" y="667" on="1"/>
        <pt x="511" y="721" on="0"/>
        <pt x="434" y="721" on="1"/>
        <pt x="374" y="721" on="0"/>
        <pt x="231" y="649" on="0"/>
        <pt x="120" y="550" on="0"/>
        <pt x="45" y="443" on="0"/>
        <pt x="45" y="408" on="1"/>
        <pt x="45" y="367" on="0"/>
        <pt x="98" y="367" on="1"/>
        <pt x="140" y="367" on="0"/>
        <pt x="228" y="422" on="0"/>
        <pt x="287" y="494" on="0"/>
        <pt x="324" y="551" on="0"/>
        <pt x="327" y="560" on="1"/>
        <pt x="330" y="572" on="0"/>
        <pt x="347" y="572" on="1"/>
        <pt x="352" y="572" on="0"/>
        <pt x="361" y="564" on="0"/>
        <pt x="361" y="553" on="0"/>
        <pt x="304" y="460" on="0"/>
        <pt x="297" y="441" on="0"/>
      </contour>
      <contour>
        <pt x="792" y="573" on="1"/>
        <pt x="764" y="573" on="0"/>
        <pt x="664" y="450" on="1"/>
        <pt x="563" y="325" on="0"/>
        <pt x="503" y="209" on="1"/>
        <pt x="617" y="311" on="0"/>
        <pt x="796" y="529" on="0"/>
        <pt x="796" y="566" on="1"/>
        <pt x="796" y="573" on="0"/>
      </contour>
    </TTGlyph>
    <TTGlyph name="Uacute" xMin="1" yMin="-15" xMax="840" yMax="777">
      <contour>
        <pt x="288" y="441" on="1"/>
        <pt x="274" y="445" on="1"/>
        <pt x="272" y="445" on="0"/>
        <pt x="232" y="412" on="0"/>
        <pt x="180" y="374" on="0"/>
        <pt x="106" y="341" on="0"/>
        <pt x="74" y="341" on="1"/>
        <pt x="1" y="341" on="0"/>
        <pt x="1" y="394" on="1"/>
        <pt x="1" y="434" on="0"/>
        <pt x="87" y="555" on="0"/>
        <pt x="216" y="665" on="0"/>
        <pt x="385" y="744" on="0"/>
        <pt x="458" y="744" on="1"/>
        <pt x="556" y="744" on="0"/>
        <pt x="556" y="677" on="1"/>
        <pt x="556" y="625" on="0"/>
        <pt x="439" y="434" on="0"/>
        <pt x="368" y="347" on="1"/>
        <pt x="181" y="116" on="0"/>
        <pt x="181" y="63" on="1"/>
        <pt x="181" y="35" on="0"/>
        <pt x="217" y="35" on="1"/>
        <pt x="291" y="35" on="0"/>
        <pt x="438" y="153" on="1"/>
        <pt x="474" y="242" on="0"/>
        <pt x="627" y="457" on="0"/>
        <pt x="782" y="605" on="0"/>
        <pt x="821" y="605" on="1"/>
        <pt x="840" y="605" on="0"/>
        <pt x="840" y="587" on="1"/>
        <pt x="840" y="541" on="0"/>
        <pt x="618" y="280" on="0"/>
        <pt x="483" y="166" on="1"/>
        <pt x="458" y="104" on="0"/>
        <pt x="458" y="69" on="1"/>
        <pt x="458" y="6" on="0"/>
        <pt x="527" y="6" on="1"/>
        <pt x="552" y="6" on="0"/>
        <pt x="624" y="44" on="0"/>
        <pt x="641" y="61" on="0"/>
        <pt x="647" y="61" on="0"/>
        <pt x="647" y="57" on="1"/>
        <pt x="647" y="36" on="0"/>
        <pt x="542" y="-15" on="0"/>
        <pt x="489" y="-15" on="1"/>
        <pt x="414" y="-15" on="0"/>
        <pt x="414" y="55" on="1"/>
        <pt x="414" y="84" on="0"/>
        <pt x="426" y="120" on="1"/>
        <pt x="270" y="1" on="0"/>
        <pt x="185" y="1" on="1"/>
        <pt x="160" y="1" on="0"/>
        <pt x="128" y="33" on="0"/>
        <pt x="128" y="84" on="0"/>
        <pt x="207" y="204" on="0"/>
        <pt x="320" y="346" on="0"/>
        <pt x="376" y="419" on="1"/>
        <pt x="511" y="595" on="0"/>
        <pt x="511" y="667" on="1"/>
        <pt x="511" y="721" on="0"/>
        <pt x="434" y="721" on="1"/>
        <pt x="374" y="721" on="0"/>
        <pt x="231" y="649" on="0"/>
        <pt x="120" y="550" on="0"/>
        <pt x="45" y="443" on="0"/>
        <pt x="45" y="408" on="1"/>
        <pt x="45" y="367" on="0"/>
        <pt x="98" y="367" on="1"/>
        <pt x="140" y="367" on="0"/>
        <pt x="228" y="422" on="0"/>
        <pt x="287" y="494" on="0"/>
        <pt x="324" y="551" on="0"/>
        <pt x="327" y="560" on="1"/>
        <pt x="330" y="572" on="0"/>
        <pt x="347" y="572" on="1"/>
        <pt x="352" y="572" on="0"/>
        <pt x="361" y="564" on="0"/>
        <pt x="361" y="553" on="0"/>
        <pt x="304" y="460" on="0"/>
        <pt x="297" y="441" on="0"/>
      </contour>
      <contour>
        <pt x="792" y="573" on="1"/>
        <pt x="764" y="573" on="0"/>
        <pt x="664" y="450" on="1"/>
        <pt x="563" y="325" on="0"/>
        <pt x="503" y="209" on="1"/>
        <pt x="617" y="311" on="0"/>
        <pt x="796" y="529" on="0"/>
        <pt x="796" y="566" on="1"/>
        <pt x="796" y="573" on="0"/>
      </contour>
      <contour>
        <pt x="810" y="764" on="1"/>
        <pt x="810" y="747" on="0"/>
        <pt x="731" y="705" on="0"/>
        <pt x="689" y="690" on="1"/>
        <pt x="683" y="690" on="0"/>
        <pt x="683" y="705" on="0"/>
        <pt x="718" y="717" on="0"/>
        <pt x="769" y="755" on="0"/>
        <pt x="786" y="777" on="0"/>
        <pt x="810" y="777" on="0"/>
      </contour>
    </TTGlyph>
    <TTGlyph name="Ucircumflex" xMin="1" yMin="-15" xMax="840" yMax="784">
      <contour>
        <pt x="288" y="441" on="1"/>
        <pt x="274" y="445" on="1"/>
        <pt x="272" y="445" on="0"/>
        <pt x="232" y="412" on="0"/>
        <pt x="180" y="374" on="0"/>
        <pt x="106" y="341" on="0"/>
        <pt x="74" y="341" on="1"/>
        <pt x="1" y="341" on="0"/>
        <pt x="1" y="394" on="1"/>
        <pt x="1" y="434" on="0"/>
        <pt x="87" y="555" on="0"/>
        <pt x="216" y="665" on="0"/>
        <pt x="385" y="744" on="0"/>
        <pt x="458" y="744" on="1"/>
        <pt x="556" y="744" on="0"/>
        <pt x="556" y="677" on="1"/>
        <pt x="556" y="625" on="0"/>
        <pt x="439" y="434" on="0"/>
        <pt x="368" y="347" on="1"/>
        <pt x="181" y="116" on="0"/>
        <pt x="181" y="63" on="1"/>
        <pt x="181" y="35" on="0"/>
        <pt x="217" y="35" on="1"/>
        <pt x="291" y="35" on="0"/>
        <pt x="438" y="153" on="1"/>
        <pt x="474" y="242" on="0"/>
        <pt x="627" y="457" on="0"/>
        <pt x="782" y="605" on="0"/>
        <pt x="821" y="605" on="1"/>
        <pt x="840" y="605" on="0"/>
        <pt x="840" y="587" on="1"/>
        <pt x="840" y="541" on="0"/>
        <pt x="618" y="280" on="0"/>
        <pt x="483" y="166" on="1"/>
        <pt x="458" y="104" on="0"/>
        <pt x="458" y="69" on="1"/>
        <pt x="458" y="6" on="0"/>
        <pt x="527" y="6" on="1"/>
        <pt x="552" y="6" on="0"/>
        <pt x="624" y="44" on="0"/>
        <pt x="641" y="61" on="0"/>
        <pt x="647" y="61" on="0"/>
        <pt x="647" y="57" on="1"/>
        <pt x="647" y="36" on="0"/>
        <pt x="542" y="-15" on="0"/>
        <pt x="489" y="-15" on="1"/>
        <pt x="414" y="-15" on="0"/>
        <pt x="414" y="55" on="1"/>
        <pt x="414" y="84" on="0"/>
        <pt x="426" y="120" on="1"/>
        <pt x="270" y="1" on="0"/>
        <pt x="185" y="1" on="1"/>
        <pt x="160" y="1" on="0"/>
        <pt x="128" y="33" on="0"/>
        <pt x="128" y="84" on="0"/>
        <pt x="207" y="204" on="0"/>
        <pt x="320" y="346" on="0"/>
        <pt x="376" y="419" on="1"/>
        <pt x="511" y="595" on="0"/>
        <pt x="511" y="667" on="1"/>
        <pt x="511" y="721" on="0"/>
        <pt x="434" y="721" on="1"/>
        <pt x="374" y="721" on="0"/>
        <pt x="231" y="649" on="0"/>
        <pt x="120" y="550" on="0"/>
        <pt x="45" y="443" on="0"/>
        <pt x="45" y="408" on="1"/>
        <pt x="45" y="367" on="0"/>
        <pt x="98" y="367" on="1"/>
        <pt x="140" y="367" on="0"/>
        <pt x="228" y="422" on="0"/>
        <pt x="287" y="494" on="0"/>
        <pt x="324" y="551" on="0"/>
        <pt x="327" y="560" on="1"/>
        <pt x="330" y="572" on="0"/>
        <pt x="347" y="572" on="1"/>
        <pt x="352" y="572" on="0"/>
        <pt x="361" y="564" on="0"/>
        <pt x="361" y="553" on="0"/>
        <pt x="304" y="460" on="0"/>
        <pt x="297" y="441" on="0"/>
      </contour>
      <contour>
        <pt x="792" y="573" on="1"/>
        <pt x="764" y="573" on="0"/>
        <pt x="664" y="450" on="1"/>
        <pt x="563" y="325" on="0"/>
        <pt x="503" y="209" on="1"/>
        <pt x="617" y="311" on="0"/>
        <pt x="796" y="529" on="0"/>
        <pt x="796" y="566" on="1"/>
        <pt x="796" y="573" on="0"/>
      </contour>
      <contour>
        <pt x="660" y="724" on="0"/>
        <pt x="718" y="764" on="0"/>
        <pt x="733" y="784" on="0"/>
        <pt x="754" y="784" on="0"/>
        <pt x="763" y="775" on="1"/>
        <pt x="766" y="771" on="0"/>
        <pt x="773" y="724" on="0"/>
        <pt x="787" y="703" on="1"/>
        <pt x="789" y="699" on="0"/>
        <pt x="789" y="698" on="1"/>
        <pt x="789" y="693" on="0"/>
        <pt x="777" y="693" on="0"/>
        <pt x="759" y="710" on="0"/>
        <pt x="741" y="748" on="0"/>
        <pt x="741" y="749" on="1"/>
        <pt x="717" y="727" on="0"/>
        <pt x="630" y="697" on="1"/>
        <pt x="624" y="697" on="0"/>
        <pt x="624" y="712" on="0"/>
      </contour>
    </TTGlyph>
    <TTGlyph name="Udieresis" xMin="1" yMin="-15" xMax="840" yMax="775">
      <contour>
        <pt x="288" y="441" on="1"/>
        <pt x="274" y="445" on="1"/>
        <pt x="272" y="445" on="0"/>
        <pt x="232" y="412" on="0"/>
        <pt x="180" y="374" on="0"/>
        <pt x="106" y="341" on="0"/>
        <pt x="74" y="341" on="1"/>
        <pt x="1" y="341" on="0"/>
        <pt x="1" y="394" on="1"/>
        <pt x="1" y="434" on="0"/>
        <pt x="87" y="555" on="0"/>
        <pt x="216" y="665" on="0"/>
        <pt x="385" y="744" on="0"/>
        <pt x="458" y="744" on="1"/>
        <pt x="556" y="744" on="0"/>
        <pt x="556" y="677" on="1"/>
        <pt x="556" y="625" on="0"/>
        <pt x="439" y="434" on="0"/>
        <pt x="368" y="347" on="1"/>
        <pt x="181" y="116" on="0"/>
        <pt x="181" y="63" on="1"/>
        <pt x="181" y="35" on="0"/>
        <pt x="217" y="35" on="1"/>
        <pt x="291" y="35" on="0"/>
        <pt x="438" y="153" on="1"/>
        <pt x="474" y="242" on="0"/>
        <pt x="627" y="457" on="0"/>
        <pt x="782" y="605" on="0"/>
        <pt x="821" y="605" on="1"/>
        <pt x="840" y="605" on="0"/>
        <pt x="840" y="587" on="1"/>
        <pt x="840" y="541" on="0"/>
        <pt x="618" y="280" on="0"/>
        <pt x="483" y="166" on="1"/>
        <pt x="458" y="104" on="0"/>
        <pt x="458" y="69" on="1"/>
        <pt x="458" y="6" on="0"/>
        <pt x="527" y="6" on="1"/>
        <pt x="552" y="6" on="0"/>
        <pt x="624" y="44" on="0"/>
        <pt x="641" y="61" on="0"/>
        <pt x="647" y="61" on="0"/>
        <pt x="647" y="57" on="1"/>
        <pt x="647" y="36" on="0"/>
        <pt x="542" y="-15" on="0"/>
        <pt x="489" y="-15" on="1"/>
        <pt x="414" y="-15" on="0"/>
        <pt x="414" y="55" on="1"/>
        <pt x="414" y="84" on="0"/>
        <pt x="426" y="120" on="1"/>
        <pt x="270" y="1" on="0"/>
        <pt x="185" y="1" on="1"/>
        <pt x="160" y="1" on="0"/>
        <pt x="128" y="33" on="0"/>
        <pt x="128" y="84" on="0"/>
        <pt x="207" y="204" on="0"/>
        <pt x="320" y="346" on="0"/>
        <pt x="376" y="419" on="1"/>
        <pt x="511" y="595" on="0"/>
        <pt x="511" y="667" on="1"/>
        <pt x="511" y="721" on="0"/>
        <pt x="434" y="721" on="1"/>
        <pt x="374" y="721" on="0"/>
        <pt x="231" y="649" on="0"/>
        <pt x="120" y="550" on="0"/>
        <pt x="45" y="443" on="0"/>
        <pt x="45" y="408" on="1"/>
        <pt x="45" y="367" on="0"/>
        <pt x="98" y="367" on="1"/>
        <pt x="140" y="367" on="0"/>
        <pt x="228" y="422" on="0"/>
        <pt x="287" y="494" on="0"/>
        <pt x="324" y="551" on="0"/>
        <pt x="327" y="560" on="1"/>
        <pt x="330" y="572" on="0"/>
        <pt x="347" y="572" on="1"/>
        <pt x="352" y="572" on="0"/>
        <pt x="361" y="564" on="0"/>
        <pt x="361" y="553" on="0"/>
        <pt x="304" y="460" on="0"/>
        <pt x="297" y="441" on="0"/>
      </contour>
      <contour>
        <pt x="792" y="573" on="1"/>
        <pt x="764" y="573" on="0"/>
        <pt x="664" y="450" on="1"/>
        <pt x="563" y="325" on="0"/>
        <pt x="503" y="209" on="1"/>
        <pt x="617" y="311" on="0"/>
        <pt x="796" y="529" on="0"/>
        <pt x="796" y="566" on="1"/>
        <pt x="796" y="573" on="0"/>
      </contour>
      <contour>
        <pt x="690" y="775" on="0"/>
        <pt x="701" y="763" on="0"/>
        <pt x="701" y="741" on="0"/>
        <pt x="671" y="707" on="0"/>
        <pt x="649" y="707" on="0"/>
        <pt x="639" y="720" on="0"/>
        <pt x="639" y="737" on="0"/>
        <pt x="671" y="775" on="0"/>
      </contour>
      <contour>
        <pt x="779" y="775" on="0"/>
        <pt x="790" y="763" on="0"/>
        <pt x="790" y="741" on="0"/>
        <pt x="760" y="707" on="0"/>
        <pt x="738" y="707" on="0"/>
        <pt x="728" y="720" on="0"/>
        <pt x="728" y="737" on="0"/>
        <pt x="760" y="775" on="0"/>
      </contour>
    </TTGlyph>
    <TTGlyph name="Ugrave" xMin="1" yMin="-15" xMax="840" yMax="787">
      <contour>
        <pt x="288" y="441" on="1"/>
        <pt x="274" y="445" on="1"/>
        <pt x="272" y="445" on="0"/>
        <pt x="232" y="412" on="0"/>
        <pt x="180" y="374" on="0"/>
        <pt x="106" y="341" on="0"/>
        <pt x="74" y="341" on="1"/>
        <pt x="1" y="341" on="0"/>
        <pt x="1" y="394" on="1"/>
        <pt x="1" y="434" on="0"/>
        <pt x="87" y="555" on="0"/>
        <pt x="216" y="665" on="0"/>
        <pt x="385" y="744" on="0"/>
        <pt x="458" y="744" on="1"/>
        <pt x="556" y="744" on="0"/>
        <pt x="556" y="677" on="1"/>
        <pt x="556" y="625" on="0"/>
        <pt x="439" y="434" on="0"/>
        <pt x="368" y="347" on="1"/>
        <pt x="181" y="116" on="0"/>
        <pt x="181" y="63" on="1"/>
        <pt x="181" y="35" on="0"/>
        <pt x="217" y="35" on="1"/>
        <pt x="291" y="35" on="0"/>
        <pt x="438" y="153" on="1"/>
        <pt x="474" y="242" on="0"/>
        <pt x="627" y="457" on="0"/>
        <pt x="782" y="605" on="0"/>
        <pt x="821" y="605" on="1"/>
        <pt x="840" y="605" on="0"/>
        <pt x="840" y="587" on="1"/>
        <pt x="840" y="541" on="0"/>
        <pt x="618" y="280" on="0"/>
        <pt x="483" y="166" on="1"/>
        <pt x="458" y="104" on="0"/>
        <pt x="458" y="69" on="1"/>
        <pt x="458" y="6" on="0"/>
        <pt x="527" y="6" on="1"/>
        <pt x="552" y="6" on="0"/>
        <pt x="624" y="44" on="0"/>
        <pt x="641" y="61" on="0"/>
        <pt x="647" y="61" on="0"/>
        <pt x="647" y="57" on="1"/>
        <pt x="647" y="36" on="0"/>
        <pt x="542" y="-15" on="0"/>
        <pt x="489" y="-15" on="1"/>
        <pt x="414" y="-15" on="0"/>
        <pt x="414" y="55" on="1"/>
        <pt x="414" y="84" on="0"/>
        <pt x="426" y="120" on="1"/>
        <pt x="270" y="1" on="0"/>
        <pt x="185" y="1" on="1"/>
        <pt x="160" y="1" on="0"/>
        <pt x="128" y="33" on="0"/>
        <pt x="128" y="84" on="0"/>
        <pt x="207" y="204" on="0"/>
        <pt x="320" y="346" on="0"/>
        <pt x="376" y="419" on="1"/>
        <pt x="511" y="595" on="0"/>
        <pt x="511" y="667" on="1"/>
        <pt x="511" y="721" on="0"/>
        <pt x="434" y="721" on="1"/>
        <pt x="374" y="721" on="0"/>
        <pt x="231" y="649" on="0"/>
        <pt x="120" y="550" on="0"/>
        <pt x="45" y="443" on="0"/>
        <pt x="45" y="408" on="1"/>
        <pt x="45" y="367" on="0"/>
        <pt x="98" y="367" on="1"/>
        <pt x="140" y="367" on="0"/>
        <pt x="228" y="422" on="0"/>
        <pt x="287" y="494" on="0"/>
        <pt x="324" y="551" on="0"/>
        <pt x="327" y="560" on="1"/>
        <pt x="330" y="572" on="0"/>
        <pt x="347" y="572" on="1"/>
        <pt x="352" y="572" on="0"/>
        <pt x="361" y="564" on="0"/>
        <pt x="361" y="553" on="0"/>
        <pt x="304" y="460" on="0"/>
        <pt x="297" y="441" on="0"/>
      </contour>
      <contour>
        <pt x="792" y="573" on="1"/>
        <pt x="764" y="573" on="0"/>
        <pt x="664" y="450" on="1"/>
        <pt x="563" y="325" on="0"/>
        <pt x="503" y="209" on="1"/>
        <pt x="617" y="311" on="0"/>
        <pt x="796" y="529" on="0"/>
        <pt x="796" y="566" on="1"/>
        <pt x="796" y="573" on="0"/>
      </contour>
      <contour>
        <pt x="637" y="774" on="1"/>
        <pt x="637" y="787" on="0"/>
        <pt x="660" y="787" on="0"/>
        <pt x="678" y="765" on="0"/>
        <pt x="729" y="727" on="0"/>
        <pt x="754" y="718" on="1"/>
        <pt x="764" y="715" on="0"/>
        <pt x="764" y="700" on="0"/>
        <pt x="758" y="700" on="1"/>
        <pt x="674" y="730" on="0"/>
        <pt x="648" y="756" on="1"/>
        <pt x="637" y="767" on="0"/>
      </contour>
    </TTGlyph>
    <TTGlyph name="V" xMin="-31" yMin="-36" xMax="890" yMax="725">
      <contour>
        <pt x="75" y="-14" on="1"/>
        <pt x="75" y="79" on="0"/>
        <pt x="328" y="307" on="1"/>
        <pt x="436" y="512" on="0"/>
        <pt x="436" y="599" on="1"/>
        <pt x="436" y="650" on="0"/>
        <pt x="402" y="674" on="1"/>
        <pt x="367" y="698" on="0"/>
        <pt x="332" y="702" on="1"/>
        <pt x="278" y="708" on="0"/>
        <pt x="197" y="708" on="0"/>
        <pt x="137" y="703" on="0"/>
        <pt x="55" y="689" on="0"/>
        <pt x="4" y="652" on="0"/>
        <pt x="4" y="597" on="0"/>
        <pt x="68" y="567" on="0"/>
        <pt x="159" y="556" on="0"/>
        <pt x="249" y="541" on="0"/>
        <pt x="313" y="496" on="0"/>
        <pt x="313" y="456" on="1"/>
        <pt x="313" y="447" on="0"/>
        <pt x="306" y="447" on="1"/>
        <pt x="300" y="453" on="1"/>
        <pt x="275" y="501" on="0"/>
        <pt x="160" y="518" on="1"/>
        <pt x="115" y="524" on="0"/>
        <pt x="71" y="532" on="1"/>
        <pt x="-31" y="551" on="0"/>
        <pt x="-31" y="617" on="1"/>
        <pt x="-31" y="648" on="0"/>
        <pt x="18" y="692" on="0"/>
        <pt x="60" y="704" on="1"/>
        <pt x="139" y="725" on="0"/>
        <pt x="244" y="725" on="1"/>
        <pt x="373" y="725" on="0"/>
        <pt x="432" y="695" on="1"/>
        <pt x="455" y="683" on="0"/>
        <pt x="489" y="636" on="0"/>
        <pt x="489" y="604" on="1"/>
        <pt x="489" y="533" on="0"/>
        <pt x="416" y="384" on="1"/>
        <pt x="563" y="508" on="0"/>
        <pt x="839" y="698" on="0"/>
        <pt x="873" y="698" on="1"/>
        <pt x="879" y="698" on="0"/>
        <pt x="890" y="682" on="0"/>
        <pt x="890" y="664" on="0"/>
        <pt x="876" y="655" on="1"/>
        <pt x="832" y="628" on="0"/>
        <pt x="798" y="593" on="0"/>
        <pt x="784" y="593" on="0"/>
        <pt x="779" y="603" on="0"/>
        <pt x="776" y="603" on="1"/>
        <pt x="747" y="603" on="0"/>
        <pt x="517" y="445" on="0"/>
        <pt x="394" y="341" on="1"/>
        <pt x="318" y="198" on="0"/>
        <pt x="139" y="-36" on="0"/>
        <pt x="99" y="-36" on="1"/>
        <pt x="91" y="-36" on="0"/>
        <pt x="75" y="-23" on="0"/>
      </contour>
      <contour>
        <pt x="111" y="-5" on="1"/>
        <pt x="129" y="-5" on="0"/>
        <pt x="241" y="152" on="0"/>
        <pt x="301" y="259" on="1"/>
        <pt x="109" y="78" on="0"/>
        <pt x="109" y="-2" on="1"/>
        <pt x="109" y="-5" on="0"/>
      </contour>
    </TTGlyph>
    <TTGlyph name="W" xMin="-64" yMin="-68" xMax="1234" yMax="738">
      <contour>
        <pt x="454" y="-9" on="1"/>
        <pt x="442" y="-9" on="0"/>
        <pt x="442" y="5" on="1"/>
        <pt x="442" y="36" on="0"/>
        <pt x="653" y="469" on="0"/>
        <pt x="653" y="503" on="1"/>
        <pt x="653" y="517" on="0"/>
        <pt x="638" y="517" on="1"/>
        <pt x="595" y="517" on="0"/>
        <pt x="447" y="386" on="1"/>
        <pt x="379" y="232" on="0"/>
        <pt x="141" y="-68" on="0"/>
        <pt x="79" y="-68" on="1"/>
        <pt x="58" y="-68" on="0"/>
        <pt x="58" y="-43" on="1"/>
        <pt x="75" y="30" on="0"/>
        <pt x="263" y="250" on="0"/>
        <pt x="389" y="359" on="1"/>
        <pt x="441" y="478" on="0"/>
        <pt x="441" y="545" on="1"/>
        <pt x="441" y="719" on="0"/>
        <pt x="196" y="719" on="1"/>
        <pt x="130" y="719" on="0"/>
        <pt x="81" y="708" on="1"/>
        <pt x="-13" y="689" on="0"/>
        <pt x="-21" y="641" on="1"/>
        <pt x="-19" y="585" on="0"/>
        <pt x="90" y="560" on="1"/>
        <pt x="136" y="550" on="0"/>
        <pt x="228" y="528" on="0"/>
        <pt x="292" y="482" on="0"/>
        <pt x="292" y="446" on="1"/>
        <pt x="292" y="438" on="0"/>
        <pt x="280" y="411" on="0"/>
        <pt x="263" y="411" on="0"/>
        <pt x="263" y="421" on="1"/>
        <pt x="263" y="427" on="0"/>
        <pt x="272" y="441" on="0"/>
        <pt x="272" y="445" on="1"/>
        <pt x="272" y="473" on="0"/>
        <pt x="154" y="502" on="1"/>
        <pt x="104" y="514" on="0"/>
        <pt x="5" y="545" on="0"/>
        <pt x="-64" y="600" on="0"/>
        <pt x="-64" y="666" on="0"/>
        <pt x="1" y="709" on="0"/>
        <pt x="50" y="719" on="1"/>
        <pt x="145" y="738" on="0"/>
        <pt x="218" y="738" on="1"/>
        <pt x="342" y="738" on="0"/>
        <pt x="490" y="638" on="0"/>
        <pt x="490" y="540" on="1"/>
        <pt x="490" y="495" on="0"/>
        <pt x="461" y="419" on="1"/>
        <pt x="622" y="548" on="0"/>
        <pt x="667" y="548" on="1"/>
        <pt x="680" y="548" on="0"/>
        <pt x="699" y="528" on="0"/>
        <pt x="699" y="499" on="0"/>
        <pt x="661" y="397" on="0"/>
        <pt x="526" y="107" on="0"/>
        <pt x="526" y="103" on="0"/>
        <pt x="529" y="101" on="1"/>
        <pt x="535" y="101" on="0"/>
        <pt x="548" y="119" on="1"/>
        <pt x="645" y="254" on="0"/>
        <pt x="1033" y="611" on="0"/>
        <pt x="1175" y="673" on="1"/>
        <pt x="1204" y="685" on="0"/>
        <pt x="1234" y="685" on="0"/>
        <pt x="1234" y="664" on="0"/>
        <pt x="1208" y="649" on="0"/>
        <pt x="1145" y="606" on="0"/>
        <pt x="1125" y="588" on="0"/>
        <pt x="1117" y="588" on="0"/>
        <pt x="1115" y="600" on="0"/>
        <pt x="1108" y="600" on="0"/>
        <pt x="1100" y="597" on="1"/>
        <pt x="979" y="540" on="0"/>
        <pt x="792" y="360" on="1"/>
        <pt x="595" y="169" on="0"/>
        <pt x="514" y="50" on="1"/>
        <pt x="485" y="8" on="0"/>
        <pt x="460" y="-9" on="0"/>
      </contour>
      <contour>
        <pt x="106" y="-32" on="1"/>
        <pt x="143" y="-32" on="0"/>
        <pt x="304" y="183" on="0"/>
        <pt x="368" y="312" on="1"/>
        <pt x="257" y="205" on="0"/>
        <pt x="100" y="13" on="0"/>
        <pt x="100" y="-26" on="1"/>
        <pt x="100" y="-32" on="0"/>
      </contour>
    </TTGlyph>
    <TTGlyph name="X" xMin="0" yMin="-26" xMax="1047" yMax="741">
      <contour>
        <pt x="460" y="740" on="1"/>
        <pt x="566" y="740" on="0"/>
        <pt x="566" y="625" on="1"/>
        <pt x="566" y="554" on="0"/>
        <pt x="509" y="371" on="1"/>
        <pt x="690" y="516" on="0"/>
        <pt x="1003" y="741" on="0"/>
        <pt x="1027" y="741" on="1"/>
        <pt x="1031" y="741" on="0"/>
        <pt x="1047" y="727" on="0"/>
        <pt x="1047" y="714" on="0"/>
        <pt x="966" y="635" on="0"/>
        <pt x="956" y="635" on="1"/>
        <pt x="954" y="635" on="0"/>
        <pt x="949" y="642" on="0"/>
        <pt x="946" y="642" on="1"/>
        <pt x="919" y="642" on="0"/>
        <pt x="655" y="453" on="0"/>
        <pt x="492" y="320" on="1"/>
        <pt x="436" y="144" on="0"/>
        <pt x="436" y="81" on="1"/>
        <pt x="436" y="-1" on="0"/>
        <pt x="507" y="-1" on="1"/>
        <pt x="549" y="-1" on="0"/>
        <pt x="628" y="43" on="0"/>
        <pt x="681" y="96" on="1"/>
        <pt x="691" y="106" on="1"/>
        <pt x="697" y="106" on="0"/>
        <pt x="697" y="83" on="0"/>
        <pt x="639" y="26" on="0"/>
        <pt x="542" y="-23" on="0"/>
        <pt x="499" y="-23" on="1"/>
        <pt x="389" y="-23" on="0"/>
        <pt x="389" y="88" on="1"/>
        <pt x="389" y="153" on="0"/>
        <pt x="425" y="264" on="1"/>
        <pt x="205" y="82" on="0"/>
        <pt x="124" y="-8" on="1"/>
        <pt x="110" y="-23" on="0"/>
        <pt x="99" y="-26" on="0"/>
        <pt x="86" y="-26" on="0"/>
        <pt x="86" y="-21" on="1"/>
        <pt x="86" y="26" on="0"/>
        <pt x="442" y="317" on="1"/>
        <pt x="470" y="390" on="0"/>
        <pt x="520" y="557" on="0"/>
        <pt x="529" y="610" on="0"/>
        <pt x="529" y="633" on="1"/>
        <pt x="529" y="719" on="0"/>
        <pt x="449" y="719" on="1"/>
        <pt x="377" y="719" on="0"/>
        <pt x="226" y="642" on="0"/>
        <pt x="118" y="534" on="0"/>
        <pt x="48" y="420" on="0"/>
        <pt x="48" y="381" on="1"/>
        <pt x="48" y="335" on="0"/>
        <pt x="97" y="335" on="1"/>
        <pt x="167" y="335" on="0"/>
        <pt x="330" y="481" on="0"/>
        <pt x="373" y="549" on="1"/>
        <pt x="376" y="553" on="0"/>
        <pt x="382" y="553" on="1"/>
        <pt x="395" y="553" on="0"/>
        <pt x="395" y="541" on="1"/>
        <pt x="395" y="538" on="0"/>
        <pt x="372" y="506" on="1"/>
        <pt x="320" y="435" on="0"/>
        <pt x="318" y="418" on="1"/>
        <pt x="317" y="413" on="0"/>
        <pt x="312" y="413" on="1"/>
        <pt x="303" y="413" on="0"/>
        <pt x="301" y="422" on="1"/>
        <pt x="301" y="425" on="0"/>
        <pt x="299" y="425" on="1"/>
        <pt x="286" y="412" on="0"/>
        <pt x="220" y="364" on="0"/>
        <pt x="194" y="348" on="1"/>
        <pt x="124" y="307" on="0"/>
        <pt x="76" y="307" on="1"/>
        <pt x="0" y="307" on="0"/>
        <pt x="0" y="366" on="1"/>
        <pt x="0" y="410" on="0"/>
        <pt x="86" y="538" on="0"/>
        <pt x="215" y="656" on="0"/>
        <pt x="385" y="740" on="0"/>
      </contour>
    </TTGlyph>
    <TTGlyph name="Y" xMin="-37" yMin="-619" xMax="870" yMax="716">
      <contour>
        <pt x="715" y="152" on="1"/>
        <pt x="724" y="152" on="0"/>
        <pt x="724" y="140" on="1"/>
        <pt x="724" y="109" on="0"/>
        <pt x="372" y="-120" on="0"/>
        <pt x="256" y="-175" on="1"/>
        <pt x="232" y="-208" on="1"/>
        <pt x="302" y="-235" on="0"/>
        <pt x="302" y="-356" on="0"/>
        <pt x="182" y="-514" on="0"/>
        <pt x="42" y="-619" on="0"/>
        <pt x="-37" y="-619" on="0"/>
        <pt x="-37" y="-582" on="1"/>
        <pt x="-37" y="-523" on="0"/>
        <pt x="172" y="-219" on="1"/>
        <pt x="169" y="-218" on="0"/>
        <pt x="162" y="-218" on="1"/>
        <pt x="101" y="-227" on="0"/>
        <pt x="99" y="-227" on="1"/>
        <pt x="82" y="-227" on="0"/>
        <pt x="82" y="-206" on="0"/>
        <pt x="109" y="-203" on="1"/>
        <pt x="145" y="-195" on="0"/>
        <pt x="206" y="-169" on="1"/>
        <pt x="268" y="-80" on="0"/>
        <pt x="369" y="55" on="1"/>
        <pt x="244" y="-28" on="0"/>
        <pt x="192" y="-28" on="1"/>
        <pt x="171" y="-28" on="0"/>
        <pt x="150" y="-5" on="0"/>
        <pt x="150" y="62" on="0"/>
        <pt x="230" y="185" on="0"/>
        <pt x="345" y="318" on="0"/>
        <pt x="460" y="455" on="0"/>
        <pt x="540" y="590" on="0"/>
        <pt x="540" y="636" on="1"/>
        <pt x="540" y="695" on="0"/>
        <pt x="456" y="695" on="1"/>
        <pt x="387" y="695" on="0"/>
        <pt x="198" y="599" on="0"/>
        <pt x="54" y="446" on="0"/>
        <pt x="54" y="377" on="1"/>
        <pt x="54" y="330" on="0"/>
        <pt x="109" y="330" on="1"/>
        <pt x="149" y="330" on="0"/>
        <pt x="237" y="375" on="0"/>
        <pt x="270" y="406" on="1"/>
        <pt x="339" y="470" on="0"/>
        <pt x="357" y="505" on="1"/>
        <pt x="366" y="521" on="0"/>
        <pt x="387" y="521" on="0"/>
        <pt x="387" y="512" on="1"/>
        <pt x="387" y="492" on="0"/>
        <pt x="291" y="393" on="0"/>
        <pt x="145" y="303" on="0"/>
        <pt x="49" y="303" on="0"/>
        <pt x="15" y="349" on="0"/>
        <pt x="15" y="381" on="1"/>
        <pt x="15" y="437" on="0"/>
        <pt x="160" y="596" on="0"/>
        <pt x="377" y="716" on="0"/>
        <pt x="467" y="716" on="1"/>
        <pt x="580" y="716" on="0"/>
        <pt x="580" y="617" on="1"/>
        <pt x="580" y="568" on="0"/>
        <pt x="503" y="434" on="0"/>
        <pt x="392" y="304" on="0"/>
        <pt x="336" y="240" on="1"/>
        <pt x="204" y="89" on="0"/>
        <pt x="204" y="21" on="1"/>
        <pt x="204" y="-1" on="0"/>
        <pt x="232" y="-1" on="1"/>
        <pt x="276" y="-1" on="0"/>
        <pt x="396" y="91" on="1"/>
        <pt x="553" y="297" on="0"/>
        <pt x="802" y="570" on="0"/>
        <pt x="842" y="570" on="1"/>
        <pt x="870" y="570" on="0"/>
        <pt x="870" y="549" on="1"/>
        <pt x="870" y="503" on="0"/>
        <pt x="638" y="260" on="0"/>
        <pt x="491" y="144" on="1"/>
        <pt x="379" y="-2" on="0"/>
        <pt x="288" y="-130" on="1"/>
        <pt x="405" y="-71" on="0"/>
        <pt x="642" y="85" on="0"/>
        <pt x="701" y="144" on="1"/>
        <pt x="709" y="152" on="0"/>
      </contour>
      <contour>
        <pt x="165" y="-493" on="0"/>
        <pt x="264" y="-351" on="0"/>
        <pt x="264" y="-251" on="0"/>
        <pt x="216" y="-231" on="1"/>
        <pt x="7" y="-530" on="0"/>
        <pt x="7" y="-573" on="1"/>
        <pt x="7" y="-590" on="0"/>
        <pt x="20" y="-590" on="1"/>
        <pt x="48" y="-590" on="0"/>
      </contour>
      <contour>
        <pt x="824" y="540" on="1"/>
        <pt x="797" y="540" on="0"/>
        <pt x="549" y="219" on="1"/>
        <pt x="662" y="321" on="0"/>
        <pt x="832" y="508" on="0"/>
        <pt x="832" y="533" on="1"/>
        <pt x="832" y="540" on="0"/>
      </contour>
    </TTGlyph>
</ttFont>
